{
.formatVersion = 3;
axes = (
{
name = Weight;
tag = wght;
}
);
classes = (
{
code = "S Sacute Scaron";
name = _S_Both;
},
{
code = "T Tcedilla Tcaron Tcommaaccent";
name = _T_Both;
},
{
code = "U Uogonek Umacron Uring Uhungarumlaut Ugrave Uacute Ucircumflex Udieresis";
name = _U_Both;
},
{
code = W;
name = _W_Both;
},
{
code = "Y Yacute Ydieresis";
name = _Y_Both;
},
{
code = "Z Zacute Zdotaccent Zcaron";
name = _Z_Both;
},
{
code = "g gbreve gcommaaccent";
name = _g_Both;
},
{
code = "i iogonek igrave iacute icircumflex idieresis imacron";
name = _i_Both;
},
{
code = "s scaron sacute";
name = _s_both;
},
{
code = "t tcedilla tcaron tcommaaccent";
name = _t_Both;
},
{
code = "u uogonek ugrave uacute ucircumflex udieresis umacron uring uhungarumlaut";
name = _u_Both;
},
{
code = w;
name = _w_Both;
},
{
code = "y ydieresis yacute";
name = _y_Both;
},
{
code = "z zacute zdotaccent zcaron";
name = _z_Both;
},
{
code = "quoteleft quotedblleft";
name = _quoteleft_Both;
},
{
code = "quoteright quotedblright";
name = _quoteright_Both;
},
{
code = "quotesingle quotedbl";
name = _quotesingl_Both;
},
{
code = "guilsinglleft guillemetleft";
name = _guilsinglleft_Both;
},
{
code = "guilsinglright guillemetright";
name = _guilsinglright_Both;
},
{
code = hyphen;
name = _hyphen_Both;
},
{
code = "period comma";
name = _period_Both;
},
{
code = B;
name = _B_Both;
},
{
code = F;
name = _F_Both;
},
{
code = "H I";
name = _H_Both;
},
{
code = J;
name = _J_Both;
},
{
code = M;
name = _M_Both;
},
{
code = P;
name = _P_Both;
},
{
code = V;
name = _V_Both;
},
{
code = X;
name = _X_Both;
},
{
code = j;
name = _j_Both;
},
{
code = v;
name = _v_Both;
},
{
code = x;
name = _x_Both;
},
{
code = exclam;
name = _exclam_Both;
},
{
code = question;
name = _question_Both;
},
{
code = ampersand;
name = _ampersand_Both;
},
{
code = asterisk;
name = _asterisk_Both;
},
{
code = questiondown;
name = _questiondown_Both;
},
{
code = exclamdown;
name = _exclamdown_Both;
},
{

glyphs = (
{
glyphname = A;
layers = (
{
background = {
shapes = (
{
closed = 1;
nodes = (
(1172,0,l),
(1378,0,l),
(832,1465,l),
(644,1465,l),
(99,0,l),
(264,0,l),
(408,418,l),
(1026,418,l)
);
},
{
closed = 1;
nodes = (
(454,551,l),
(650,1123,l),
(707,1327,l),
(727,1327,l),
(784,1123,l),
(978,551,l)
);
}
);
};
layerId = "48D2EA9E-46BD-4B15-B2EA-011CD0F10041";
shapes = (
{
closed = 1;
nodes = (
(948,0,l),
(1425,0,l),
(1011,1465,l),
(449,1465,l),
(32,0,l),
(395,0,l),
(464,303,l),
(878,303,l)
);
},
{
closed = 1;
nodes = (
(520,536,l),
(616,962,l),
(661,1193,l),
(681,1193,l),
(726,962,l),
(823,536,l)
);
}
);
width = 1457;
},
{
layerId = "F06CBC40-6010-41C8-A897-7AE20112A561";
shapes = (
{
closed = 1;
nodes = (
(1020,0,l),
(1402,0,l),
(949,1465,l),
(512,1465,l),
(56,0,l),
(353,0,l),
(448,341,l),
(925,341,l)
);
},
{
closed = 1;
nodes = (
(500,542,l),
(634,1024,l),
(676,1227,l),
(696,1227,l),
(739,1024,l),
(873,542,l)
);
}
);
width = 1459;
},
{
layerId = "338923BD-A73B-4463-96D5-6CCFD2C76DE7";
shapes = (
{
closed = 1;
nodes = (
(1129,0,l),
(1368,0,l),
(856,1465,l),
(606,1465,l),
(93,0,l),
(290,0,l),
(424,399,l),
(995,399,l)
);
},
{
closed = 1;
nodes = (
(471,550,l),
(662,1117,l),
(699,1277,l),
(719,1277,l),
(758,1117,l),
(949,550,l)
);
}
);
width = 1461;
},
{
layerId = "E5A5C170-0FDF-4A9B-BA4A-24DEB95A442A";
shapes = (
{
closed = 1;
nodes = (
(1201,0,l),
(1345,0,l),
(794,1465,l),
(669,1465,l),
(117,0,l),
(248,0,l),
(408,438,l),
(1042,438,l)
);
},
{
closed = 1;
nodes = (
(452,556,l),
(681,1179,l),
(714,1311,l),
(734,1311,l),
(771,1179,l),
(1000,556,l)
);
}
);
width = 1462;
}
);
leftKerningGroup = _A_Right;
rightKerningGroup = _A_Left;
unicode = 65;
},
{
glyphname = AE;
layers = (
{
background = {
shapes = (
{
closed = 1;
nodes = (
(1786,0,l),
(1818,174,l),
(1628,156,o),
(1408,146,o),
(1204,140,c),
(1176,332,o),
(1158,512,o),
(1136,706,c),
(1312,704,o),
(1480,700,o),
(1658,690,c),
(1692,858,l),
(1506,844,o),
(1310,842,o),
(1122,838,c),
(1104,1006,o),
(1090,1182,o),
(1074,1348,c),
(1278,1344,o),
(1508,1336,o),
(1710,1318,c),
(1742,1496,l),
(1608,1492,o),
(1430,1490,o),
(1292,1490,cs),
(1144,1490,o),
(958,1494,o),
(806,1498,c),
(416,760,l),
(278,506,o),
(146,256,o),
(0,4,c),
(192,-4,l),
(422,436,l),
(510,440,o),
(636,448,o),
(706,448,cs),
(754,448,o),
(876,448,o),
(952,446,c),
(992,10,o),
(992,6,o),
(992,0,c)
);
},
{
closed = 1;
nodes = (
(680,586,o),
(576,586,o),
(500,588,c),
(692,956,l),
(748,1070,o),
(820,1226,o),
(856,1320,c),
(876,1320,l),
(878,1226,o),
(888,1098,o),
(900,980,cs),
(942,588,l),
(874,586,o),
(774,586,o),
(728,586,cs)
);
}
);
};
layerId = "48D2EA9E-46BD-4B15-B2EA-011CD0F10041";
shapes = (
{
closed = 1;
nodes = (
(967,0,l),
(1849,0,l),
(1893,257,l),
(1397,257,l),
(1358,636,l),
(1764,636,l),
(1802,869,l),
(1336,869,l),
(1301,1208,l),
(1802,1208,l),
(1847,1465,l),
(661,1465,l),
(23,0,l),
(394,0,l),
(508,303,l),
(936,303,l)
);
},
{
closed = 1;
nodes = (
(598,536,l),
(757,962,l),
(837,1193,l),
(857,1193,l),
(870,962,l),
(913,536,l)
);
}
);
width = 2011;
},
{
layerId = "F06CBC40-6010-41C8-A897-7AE20112A561";
shapes = (
{
closed = 1;
nodes = (
(979,0,l),
(1818,0,l),
(1857,217,l),
(1316,217,l),
(1272,656,l),
(1720,656,l),
(1755,855,l),
(1253,855,l),
(1213,1248,l),
(1764,1248,l),
(1803,1465,l),
(713,1465,l),
(15,0,l),
(320,0,l),
(471,341,l),
(945,341,l)
);
},
{
closed = 1;
nodes = (
(554,542,l),
(768,1024,l),
(842,1227,l),
(861,1227,l),
(878,1024,l),
(926,542,l)
);
}
);
width = 1979;
},
{
layerId = "338923BD-A73B-4463-96D5-6CCFD2C76DE7";
shapes = (
{
closed = 1;
nodes = (
(998,0,l),
(1772,0,l),
(1802,157,l),
(1195,157,l),
(1143,685,l),
(1654,685,l),
(1685,835,l),
(1129,835,l),
(1082,1308,l),
(1706,1308,l),
(1737,1465,l),
(790,1465,l),
(3,0,l),
(208,0,l),
(415,399,l),
(959,399,l)
);
},
{
closed = 1;
nodes = (
(488,550,l),
(784,1117,l),
(850,1277,l),
(867,1277,l),
(889,1117,l),
(946,550,l)
);
}
);
width = 1932;
},
{
layerId = "E5A5C170-0FDF-4A9B-BA4A-24DEB95A442A";
shapes = (
{
closed = 1;
nodes = (
(1010,0,l),
(1741,0,l),
(1766,117,l),
(1114,117,l),
(1057,705,l),
(1610,705,l),
(1638,822,l),
(1046,822,l),
(995,1348,l),
(1668,1348,l),
(1693,1465,l),
(841,1465,l),
(-5,0,l),
(133,0,l),
(378,438,l),
(968,438,l)
);
},
{
closed = 1;
nodes = (
(444,556,l),
(795,1179,l),
(855,1311,l),
(871,1311,l),
(896,1179,l),
(959,556,l)
);
}
);
width = 1901;
}
);
leftKerningGroup = _A_Right;
rightKerningGroup = _E_Left;
unicode = 198;
},
{
color = 9;
glyphname = Abrevedotbelow;
layers = (
{
anchors = (
{
name = bottom;
position = "{784, -597}";
},
{
name = ogonek;
position = "{1564, 0}";
},
{
name = top;
position = "{783, 1888}";
}
);
layerId = "48D2EA9E-46BD-4B15-B2EA-011CD0F10041";
shapes = (
{
closed = 1;
nodes = (
(924,-587,o),
(1014,-502,o),
(1014,-366,cs),
(1014,-231,o),
(924,-143,o),
(785,-143,cs),
(643,-143,o),
(552,-231,o),
(552,-366,cs),
(552,-502,o),
(643,-587,o),
(785,-587,cs)
);
},
{
alignment = -1;
ref = Abreve;
}
);
width = 1585;
},
{
anchors = (
{
name = bottom;
position = "{778, -547}";
},
{
name = ogonek;
position = "{1520, 0}";
},
{
name = top;
position = "{778, 1874}";
}
);
layerId = "F06CBC40-6010-41C8-A897-7AE20112A561";
shapes = (
{
closed = 1;
nodes = (
(892,-539,o),
(966,-468,o),
(966,-357,cs),
(966,-245,o),
(892,-173,o),
(777,-173,cs),
(661,-173,o),
(586,-245,o),
(586,-357,cs),
(586,-468,o),
(661,-539,o),
(777,-539,cs)
);
},
{
alignment = -1;
ref = Abreve;
}
);
width = 1567;
},
{
anchors = (
{
name = bottom;
position = "{768, -473}";
},
{
name = ogonek;
position = "{1455, 0}";
},
{
name = top;
position = "{771, 1854}";
}
);
layerId = "338923BD-A73B-4463-96D5-6CCFD2C76DE7";
shapes = (
{
closed = 1;
nodes = (
(843,-468,o),
(895,-418,o),
(895,-343,cs),
(895,-266,o),
(843,-217,o),
(766,-217,cs),
(687,-217,o),
(636,-266,o),
(636,-343,cs),
(636,-418,o),
(687,-468,o),
(766,-468,cs)
);
},
{
alignment = -1;
ref = Abreve;
}
);
width = 1539;
},
{
anchors = (
{
name = bottom;
position = "{761, -423}";
},
{
name = ogonek;
position = "{1411, 0}";
},
{
name = top;
position = "{766, 1841}";
}
);
layerId = "E5A5C170-0FDF-4A9B-BA4A-24DEB95A442A";
shapes = (
{
closed = 1;
nodes = (
(810,-421,o),
(848,-385,o),
(848,-334,cs),
(848,-280,o),
(810,-247,o),
(759,-247,cs),
(705,-247,o),
(669,-280,o),
(669,-334,cs),
(669,-385,o),
(705,-421,o),
(759,-421,cs)
);
},
{
alignment = -1;
ref = Abreve;
}
);
width = 1520;
}
);
unicode = 7862;
},
{
color = 9;
glyphname = Abrevehookabove;
layers = (
{
anchors = (
{
name = bottom;
position = "{784, 0}";
},
{
name = ogonek;
position = "{1564, 0}";
},
{
name = top;
position = "{783, 2341}";
}
);
layerId = "48D2EA9E-46BD-4B15-B2EA-011CD0F10041";
shapes = (
{
closed = 1;
nodes = (
(799,1920,l),
(817,2072,l),
(716,1996,l),
(861,1996,o),
(943,2067,o),
(943,2164,cs),
(943,2272,o),
(852,2363,o),
(719,2363,cs),
(652,2363,o),
(563,2338,o),
(472,2267,c),
(525,2151,l),
(551,2169,o),
(590,2181,o),
(622,2181,cs),
(655,2181,o),
(682,2168,o),
(682,2135,cs),
(682,2093,o),
(626,2081,o),
(580,2071,c),
(596,1920,l)
);
},
{
alignment = -1;
ref = A;
},
{
alignment = -1;
pos = (148,0);
ref = breve.cap;
}
);
width = 1585;
},
{
anchors = (
{
name = bottom;
position = "{778, 0}";
},
{
name = ogonek;
position = "{1520, 0}";
},
{
name = top;
position = "{778, 2323}";
}
);
layerId = "F06CBC40-6010-41C8-A897-7AE20112A561";
shapes = (
{
closed = 1;
nodes = (
(779,1898,l),
(792,2044,l),
(710,1974,l),
(853,1974,o),
(937,2045,o),
(937,2144,cs),
(937,2246,o),
(851,2330,o),
(723,2330,cs),
(658,2330,o),
(570,2308,o),
(487,2239,c),
(535,2143,l),
(563,2167,o),
(606,2181,o),
(646,2181,cs),
(693,2181,o),
(726,2160,o),
(726,2121,cs),
(726,2073,o),
(664,2052,o),
(601,2045,c),
(613,1898,l)
);
},
{
alignment = -1;
ref = A;
},
{
alignment = -1;
pos = (176,0);
ref = breve.cap;
}
);
width = 1567;
},
{
anchors = (
{
name = bottom;
position = "{768, 0}";
},
{
name = ogonek;
position = "{1455, 0}";
},
{
name = top;
position = "{771, 2297}";
}
);
layerId = "338923BD-A73B-4463-96D5-6CCFD2C76DE7";
shapes = (
{
closed = 1;
nodes = (
(749,1865,l),
(754,2003,l),
(701,1942,l),
(841,1942,o),
(929,2013,o),
(929,2114,cs),
(929,2207,o),
(850,2280,o),
(728,2280,cs),
(668,2280,o),
(580,2264,o),
(509,2198,c),
(550,2131,l),
(582,2165,o),
(631,2180,o),
(682,2180,cs),
(749,2180,o),
(792,2147,o),
(792,2101,cs),
(792,2042,o),
(720,2008,o),
(632,2005,c),
(638,1865,l)
);
},
{
alignment = -1;
ref = A;
},
{
alignment = -1;
pos = (219,0);
ref = breve.cap;
}
);
width = 1539;
},
{
anchors = (
{
name = bottom;
position = "{761, 0}";
},
{
name = ogonek;
position = "{1411, 0}";
},
{
name = top;
position = "{766, 2279}";
}
);
layerId = "E5A5C170-0FDF-4A9B-BA4A-24DEB95A442A";
shapes = (
{
closed = 1;
nodes = (
(729,1843,l),
(729,1975,l),
(695,1920,l),
(833,1920,o),
(923,1992,o),
(923,2094,cs),
(923,2181,o),
(849,2247,o),
(731,2247,cs),
(674,2247,o),
(587,2234,o),
(524,2170,c),
(560,2123,l),
(595,2164,o),
(647,2179,o),
(706,2179,cs),
(787,2179,o),
(836,2139,o),
(836,2088,cs),
(836,2021,o),
(757,1979,o),
(653,1979,c),
(655,1843,l)
);
},
{
alignment = -1;
ref = A;
},
{
alignment = -1;
pos = (248,0);
ref = breve.cap;
}
);
width = 1520;
}
);
unicode = 7858;
},
{
color = 9;
glyphname = Acircumflexdotbelow;
layers = (
{
anchors = (
{
name = bottom;
position = "{784, -597}";
},
{
name = ogonek;
position = "{1564, 0}";
},
{
name = top;
position = "{783, 2070}";
}
);
layerId = "48D2EA9E-46BD-4B15-B2EA-011CD0F10041";
shapes = (
{
closed = 1;
nodes = (
(924,-587,o),
(1014,-502,o),
(1014,-366,cs),
(1014,-231,o),
(924,-143,o),
(785,-143,cs),
(643,-143,o),
(552,-231,o),
(552,-366,cs),
(552,-502,o),
(643,-587,o),
(785,-587,cs)
);
},
{
alignment = -1;
ref = Acircumflex;
}
);
width = 1585;
},
{
anchors = (
{
name = bottom;
position = "{778, -547}";
},
{
name = ogonek;
position = "{1520, 0}";
},
{
name = top;
position = "{778, 2056}";
}
);
layerId = "F06CBC40-6010-41C8-A897-7AE20112A561";
shapes = (
{
closed = 1;
nodes = (
(892,-539,o),
(966,-468,o),
(966,-357,cs),
(966,-245,o),
(892,-173,o),
(777,-173,cs),
(661,-173,o),
(586,-245,o),
(586,-357,cs),
(586,-468,o),
(661,-539,o),
(777,-539,cs)
);
},
{
alignment = -1;
ref = Acircumflex;
}
);
width = 1567;
},
{
anchors = (
{
name = bottom;
position = "{768, -473}";
},
{
name = ogonek;
position = "{1455, 0}";
},
{
name = top;
position = "{771, 2034}";
}
);
layerId = "338923BD-A73B-4463-96D5-6CCFD2C76DE7";
shapes = (
{
closed = 1;
nodes = (
(843,-468,o),
(895,-418,o),
(895,-343,cs),
(895,-266,o),
(843,-217,o),
(766,-217,cs),
(687,-217,o),
(636,-266,o),
(636,-343,cs),
(636,-418,o),
(687,-468,o),
(766,-468,cs)
);
},
{
alignment = -1;
ref = Acircumflex;
}
);
width = 1539;
},
{
anchors = (
{
name = bottom;
position = "{761, -423}";
},
{
name = ogonek;
position = "{1411, 0}";
},
{
name = top;
position = "{766, 2019}";
}
);
layerId = "E5A5C170-0FDF-4A9B-BA4A-24DEB95A442A";
shapes = (
{
closed = 1;
nodes = (
(810,-421,o),
(848,-385,o),
(848,-334,cs),
(848,-280,o),
(810,-247,o),
(759,-247,cs),
(705,-247,o),
(669,-280,o),
(669,-334,cs),
(669,-385,o),
(705,-421,o),
(759,-421,cs)
);
},
{
alignment = -1;
ref = Acircumflex;
}
);
width = 1520;
}
);
unicode = 7852;
},
{
color = 9;
glyphname = Acircumflexhookabove;
layers = (
{
anchors = (
{
name = bottom;
position = "{784, 0}";
},
{
name = ogonek;
position = "{1564, 0}";
}
);
layerId = "48D2EA9E-46BD-4B15-B2EA-011CD0F10041";
shapes = (
{
closed = 1;
nodes = (
(1179,1573,l),
(908,1987,l),
(585,1987,l),
(666,1813,l),
(909,1573,l)
);
},
{
closed = 1;
nodes = (
(582,1573,l),
(825,1812,l),
(908,1987,l),
(585,1987,l),
(313,1573,l)
);
},
{
closed = 1;
nodes = (
(1349,1804,l),
(1368,1956,l),
(1267,1879,l),
(1412,1879,o),
(1494,1950,o),
(1494,2047,cs),
(1494,2155,o),
(1403,2245,o),
(1271,2245,cs),
(1202,2245,o),
(1114,2221,o),
(1023,2148,c),
(1077,2035,l),
(1101,2053,o),
(1142,2065,o),
(1175,2065,cs),
(1208,2065,o),
(1232,2050,o),
(1232,2018,cs),
(1232,1977,o),
(1178,1963,o),
(1131,1955,c),
(1146,1804,l)
);
},
{
alignment = -1;
ref = A;
}
);
width = 1585;
},
{
anchors = (
{
name = bottom;
position = "{778, 0}";
},
{
name = ogonek;
position = "{1520, 0}";
}
);
layerId = "F06CBC40-6010-41C8-A897-7AE20112A561";
shapes = (
{
closed = 1;
nodes = (
(1147,1578,l),
(872,1983,l),
(616,1983,l),
(680,1837,l),
(927,1578,l)
);
},
{
closed = 1;
nodes = (
(559,1578,l),
(806,1838,l),
(872,1983,l),
(616,1983,l),
(339,1578,l)
);
},
{
closed = 1;
nodes = (
(1277,1810,l),
(1290,1956,l),
(1209,1887,l),
(1352,1887,o),
(1436,1958,o),
(1436,2056,cs),
(1436,2158,o),
(1349,2241,o),
(1221,2241,cs),
(1156,2241,o),
(1068,2221,o),
(985,2150,c),
(1034,2055,l),
(1061,2080,o),
(1105,2093,o),
(1146,2093,cs),
(1192,2093,o),
(1224,2071,o),
(1224,2034,cs),
(1224,1985,o),
(1162,1963,o),
(1099,1957,c),
(1110,1810,l)
);
},
{
alignment = -1;
ref = A;
}
);
width = 1567;
},
{
anchors = (
{
name = bottom;
position = "{768, 0}";
},
{
name = ogonek;
position = "{1455, 0}";
}
);
layerId = "338923BD-A73B-4463-96D5-6CCFD2C76DE7";
shapes = (
{
closed = 1;
nodes = (
(1100,1586,l),
(817,1976,l),
(663,1976,l),
(701,1874,l),
(954,1586,l)
);
},
{
closed = 1;
nodes = (
(524,1586,l),
(777,1876,l),
(817,1976,l),
(663,1976,l),
(379,1586,l)
);
},
{
closed = 1;
nodes = (
(1168,1820,l),
(1173,1957,l),
(1121,1898,l),
(1261,1898,o),
(1348,1969,o),
(1348,2070,cs),
(1348,2163,o),
(1269,2236,o),
(1147,2236,cs),
(1086,2236,o),
(999,2220,o),
(928,2152,c),
(969,2086,l),
(1002,2120,o),
(1050,2136,o),
(1102,2136,cs),
(1169,2136,o),
(1211,2102,o),
(1211,2057,cs),
(1211,1997,o),
(1139,1963,o),
(1051,1961,c),
(1057,1820,l)
);
},
{
alignment = -1;
ref = A;
}
);
width = 1539;
},
{
anchors = (
{
name = bottom;
position = "{761, 0}";
},
{
name = ogonek;
position = "{1411, 0}";
}
);
layerId = "E5A5C170-0FDF-4A9B-BA4A-24DEB95A442A";
shapes = (
{
closed = 1;
nodes = (
(1068,1591,l),
(780,1972,l),
(694,1972,l),
(715,1898,l),
(972,1591,l)
);
},
{
closed = 1;
nodes = (
(501,1591,l),
(758,1901,l),
(780,1972,l),
(694,1972,l),
(406,1591,l)
);
},
{
closed = 1;
nodes = (
(1095,1827,l),
(1095,1958,l),
(1062,1905,l),
(1200,1905,o),
(1289,1977,o),
(1289,2079,cs),
(1289,2166,o),
(1215,2232,o),
(1098,2232,cs),
(1039,2232,o),
(953,2219,o),
(890,2154,c),
(926,2107,l),
(962,2147,o),
(1013,2164,o),
(1073,2164,cs),
(1153,2164,o),
(1202,2123,o),
(1202,2072,cs),
(1202,2005,o),
(1124,1963,o),
(1019,1963,c),
(1021,1827,l)
);
},
{
alignment = -1;
ref = A;
}
);
width = 1520;
}
);
unicode = 7848;
},
{
glyphname = Adieresis;
layers = (
{
background = {
shapes = (
{
closed = 1;
nodes = (
(104,-2,l),
(181,204,l),
(221,206,o),
(280,209,o),
(313,209,cs),
(346,209,o),
(416,209,o),
(455,208,c),
(481,137,o),
(502,67,o),
(522,-4,c),
(637,4,l),
(365,703,l),
(287,694,l),
(157,355,ls),
(111,236,o),
(63,120,o),
(11,2,c)
);
},
{
closed = 1;
nodes = (
(432,276,l),
(394,275,o),
(346,274,o),
(313,274,cs),
(291,274,o),
(242,274,o),
(208,275,c),
(271,447,ls),
(290,500,o),
(305,552,o),
(314,596,c),
(323,596,l),
(332,552,o),
(346,505,o),
(366,451,cs)
);
},
{
closed = 1;
nodes = (
(459,819,o),
(483,847,o),
(483,879,cs),
(483,914,o),
(460,937,o),
(427,937,cs),
(396,937,o),
(368,910,o),
(368,877,cs),
(368,845,o),
(390,819,o),
(424,819,cs)
);
},
{
closed = 1;
nodes = (
(261,819,o),
(286,847,o),
(286,879,cs),
(286,914,o),
(262,937,o),
(229,937,cs),
(197,937,o),
(170,910,o),
(170,877,cs),
(170,845,o),
(192,819,o),
(227,819,cs)
);
}
);
};
layerId = "48D2EA9E-46BD-4B15-B2EA-011CD0F10041";
shapes = (
{
alignment = -1;
pos = (4,0);
ref = A;
},
{
alignment = -1;
pos = (68,0);
ref = dieresis.cap;
}
);
width = 1469;
},
{
layerId = "F06CBC40-6010-41C8-A897-7AE20112A561";
shapes = (
{
alignment = -1;
pos = (7,0);
ref = A;
},
{
alignment = -1;
pos = (124,0);
ref = dieresis.cap;
}
);
width = 1479;
},
{
layerId = "338923BD-A73B-4463-96D5-6CCFD2C76DE7";
shapes = (
{
alignment = -1;
pos = (12,0);
ref = A;
},
{
alignment = -1;
pos = (207,0);
ref = dieresis.cap;
}
);
width = 1495;
},
{
layerId = "E5A5C170-0FDF-4A9B-BA4A-24DEB95A442A";
shapes = (
{
alignment = -1;
pos = (15,0);
ref = A;
},
{
alignment = -1;
pos = (263,0);
ref = dieresis.cap;
}
);
width = 1506;
}
);
leftKerningGroup = _A_Right;
rightKerningGroup = _A_Left;
unicode = 196;
},
{
glyphname = "Adieresis-cy";
layers = (
{
anchors = (
{
name = _top;
position = "{784, 1465}";
},
{
name = top;
position = "{784, 2024}";
}
);
layerId = "48D2EA9E-46BD-4B15-B2EA-011CD0F10041";
shapes = (
{
closed = 1;
nodes = (
(1565,0,l),
(1040,1465,l),
(556,1465,l),
(22,0,l),
(456,0,l),
(801,1211,l),
(718,1211,l),
(1040,0,l)
);
},
{
closed = 1;
nodes = (
(1239,260,l),
(1079,585,l),
(400,585,l),
(273,260,l)
);
},
{
closed = 1;
nodes = (
(643,1596,o),
(722,1676,o),
(722,1800,cs),
(722,1922,o),
(643,2005,o),
(516,2005,cs),
(391,2005,o),
(312,1922,o),
(312,1800,cs),
(312,1676,o),
(391,1596,o),
(516,1596,cs)
);
},
{
closed = 1;
nodes = (
(1178,1596,o),
(1256,1676,o),
(1256,1800,cs),
(1256,1922,o),
(1178,2005,o),
(1050,2005,cs),
(926,2005,o),
(842,1922,o),
(842,1800,cs),
(842,1676,o),
(926,1596,o),
(1050,1596,cs)
);
}
);
width = 1586;
},
{
anchors = (
{
name = _top;
position = "{778, 1465}";
},
{
name = top;
position = "{778, 1974}";
}
);
layerId = "F06CBC40-6010-41C8-A897-7AE20112A561";
shapes = (
{
closed = 1;
nodes = (
(1521,0,l),
(978,1465,l),
(600,1465,l),
(46,0,l),
(394,0,l),
(795,1263,l),
(722,1263,l),
(1106,0,l)
);
},
{
closed = 1;
nodes = (
(1209,336,l),
(1079,599,l),
(402,599,l),
(301,336,l)
);
},
{
closed = 1;
nodes = (
(631,1614,o),
(699,1680,o),
(699,1784,cs),
(699,1884,o),
(631,1953,o),
(527,1953,cs),
(423,1953,o),
(356,1884,o),
(356,1784,cs),
(356,1680,o),
(423,1614,o),
(527,1614,cs)
);
},
{
closed = 1;
nodes = (
(1134,1614,o),
(1200,1680,o),
(1200,1784,cs),
(1200,1884,o),
(1134,1953,o),
(1028,1953,cs),
(926,1953,o),
(855,1884,o),
(855,1784,cs),
(855,1680,o),
(926,1614,o),
(1028,1614,cs)
);
}
);
width = 1566;
},
{
anchors = (
{
name = _top;
position = "{770, 1465}";
},
{
name = top;
position = "{770, 1898}";
}
);
layerId = "338923BD-A73B-4463-96D5-6CCFD2C76DE7";
shapes = (
{
closed = 1;
nodes = (
(1456,0,l),
(886,1465,l),
(667,1465,l),
(82,0,l),
(300,0,l),
(786,1340,l),
(727,1340,l),
(1204,0,l)
);
},
{
closed = 1;
nodes = (
(1163,451,l),
(1078,621,l),
(406,621,l),
(343,451,l)
);
},
{
closed = 1;
nodes = (
(614,1640,o),
(664,1686,o),
(664,1759,cs),
(664,1828,o),
(614,1876,o),
(543,1876,cs),
(471,1876,o),
(423,1828,o),
(423,1759,cs),
(423,1686,o),
(471,1640,o),
(543,1640,cs)
);
},
{
closed = 1;
nodes = (
(1069,1640,o),
(1117,1686,o),
(1117,1759,cs),
(1117,1828,o),
(1069,1876,o),
(996,1876,cs),
(926,1876,o),
(875,1828,o),
(875,1759,cs),
(875,1686,o),
(926,1640,o),
(996,1640,cs)
);
}
);
width = 1537;
},
{
anchors = (
{
name = _top;
position = "{765, 1465}";
},
{
name = top;
position = "{765, 1847}";
}
);
layerId = "E5A5C170-0FDF-4A9B-BA4A-24DEB95A442A";
shapes = (
{
closed = 1;
nodes = (
(1412,0,l),
(825,1465,l),
(711,1465,l),
(106,0,l),
(238,0,l),
(780,1391,l),
(731,1391,l),
(1269,0,l)
);
},
{
closed = 1;
nodes = (
(1132,528,l),
(1077,635,l),
(409,635,l),
(371,528,l)
);
},
{
closed = 1;
nodes = (
(603,1658,o),
(641,1690,o),
(641,1742,cs),
(641,1791,o),
(603,1825,o),
(554,1825,cs),
(503,1825,o),
(468,1791,o),
(468,1742,cs),
(468,1690,o),
(503,1658,o),
(554,1658,cs)
);
},
{
closed = 1;
nodes = (
(1026,1658,o),
(1061,1690,o),
(1061,1742,cs),
(1061,1791,o),
(1026,1825,o),
(975,1825,cs),
(926,1825,o),
(888,1791,o),
(888,1742,cs),
(888,1690,o),
(926,1658,o),
(975,1658,cs)
);
}
);
width = 1518;
}
);
leftKerningGroup = "Abreve-cy";
rightKerningGroup = "Abreve-cy1";
unicode = 1234;
},
{
color = 9;
glyphname = Adotbelow;
layers = (
{
anchors = (
{
name = bottom;
position = "{784, -597}";
},
{
name = ogonek;
position = "{1564, 0}";
},
{
name = top;
position = "{783, 1465}";
}
);
layerId = "48D2EA9E-46BD-4B15-B2EA-011CD0F10041";
shapes = (
{
closed = 1;
nodes = (
(924,-587,o),
(1014,-502,o),
(1014,-366,cs),
(1014,-231,o),
(924,-143,o),
(785,-143,cs),
(643,-143,o),
(552,-231,o),
(552,-366,cs),
(552,-502,o),
(643,-587,o),
(785,-587,cs)
);
},
{
alignment = -1;
ref = A;
}
);
width = 1585;
},
{
anchors = (
{
name = bottom;
position = "{778, -547}";
},
{
name = ogonek;
position = "{1520, 0}";
},
{
name = top;
position = "{778, 1465}";
}
);
layerId = "F06CBC40-6010-41C8-A897-7AE20112A561";
shapes = (
{
closed = 1;
nodes = (
(892,-539,o),
(966,-468,o),
(966,-357,cs),
(966,-245,o),
(892,-173,o),
(777,-173,cs),
(661,-173,o),
(586,-245,o),
(586,-357,cs),
(586,-468,o),
(661,-539,o),
(777,-539,cs)
);
},
{
alignment = -1;
ref = A;
}
);
width = 1567;
},
{
anchors = (
{
name = bottom;
position = "{768, -473}";
},
{
name = ogonek;
position = "{1455, 0}";
},
{
name = top;
position = "{771, 1465}";
}
);
layerId = "338923BD-A73B-4463-96D5-6CCFD2C76DE7";
shapes = (
{
closed = 1;
nodes = (
(843,-468,o),
(895,-418,o),
(895,-343,cs),
(895,-266,o),
(843,-217,o),
(766,-217,cs),
(687,-217,o),
(636,-266,o),
(636,-343,cs),
(636,-418,o),
(687,-468,o),
(766,-468,cs)
);
},
{
alignment = -1;
ref = A;
}
);
width = 1539;
},
{
anchors = (
{
name = bottom;
position = "{761, -423}";
},
{
name = ogonek;
position = "{1411, 0}";
},
{
name = top;
position = "{766, 1465}";
}
);
layerId = "E5A5C170-0FDF-4A9B-BA4A-24DEB95A442A";
shapes = (
{
closed = 1;
nodes = (
(810,-421,o),
(848,-385,o),
(848,-334,cs),
(848,-280,o),
(810,-247,o),
(759,-247,cs),
(705,-247,o),
(669,-280,o),
(669,-334,cs),
(669,-385,o),
(705,-421,o),
(759,-421,cs)
);
},
{
alignment = -1;
ref = A;
}
);
width = 1520;
}
);
unicode = 7840;
},
{
glyphname = Agrave;
layers = (
{
background = {
shapes = (
{
closed = 1;
nodes = (
(253,-4,l),
(411,418,l),
(493,422,o),
(614,428,o),
(681,428,cs),
(749,428,o),
(892,428,o),
(972,426,c),
(1025,281,o),
(1068,137,o),
(1109,-8,c),
(1345,8,l),
(788,1440,l),
(628,1421,l),
(362,727,ls),
(268,483,o),
(169,246,o),
(63,4,c)
);
},
{
closed = 1;
nodes = (
(925,565,l),
(847,563,o),
(749,561,o),
(681,561,cs),
(636,561,o),
(536,561,o),
(466,563,c),
(595,915,l),
(634,1024,o),
(665,1130,o),
(683,1221,c),
(702,1221,l),
(720,1130,o),
(749,1034,o),
(790,924,cs)
);
},
{
closed = 1;
nodes = (
(849,1626,l),
(749,1718,o),
(601,1815,o),
(462,1868,c),
(333,1735,l),
(489,1679,o),
(636,1616,o),
(765,1546,c)
);
}
);
};
layerId = "48D2EA9E-46BD-4B15-B2EA-011CD0F10041";
shapes = (
{
alignment = -1;
pos = (4,0);
ref = A;
},
{
alignment = -1;
pos = (176,0);
ref = grave.cap;
}
);
width = 1469;
},
{
layerId = "F06CBC40-6010-41C8-A897-7AE20112A561";
shapes = (
{
alignment = -1;
pos = (7,0);
ref = A;
},
{
alignment = -1;
pos = (190,0);
ref = grave.cap;
}
);
width = 1479;
},
{
layerId = "338923BD-A73B-4463-96D5-6CCFD2C76DE7";
shapes = (
{
alignment = -1;
pos = (12,0);
ref = A;
},
{
alignment = -1;
pos = (210,0);
ref = grave.cap;
}
);
width = 1495;
},
{
layerId = "E5A5C170-0FDF-4A9B-BA4A-24DEB95A442A";
shapes = (
{
alignment = -1;
pos = (15,0);
ref = A;
},
{
alignment = -1;
pos = (223,0);
ref = grave.cap;
}
);
width = 1506;
}
);
leftKerningGroup = _A_Right;
rightKerningGroup = _A_Left;
unicode = 192;
},
{
color = 9;
glyphname = Ahookabove;
layers = (
{
anchors = (
{
name = bottom;
position = "{784, 0}";
},
{
name = ogonek;
position = "{1564, 0}";
},
{
name = top;
position = "{816, 2132}";
}
);
layerId = "48D2EA9E-46BD-4B15-B2EA-011CD0F10041";
shapes = (
{
closed = 1;
nodes = (
(934,1559,l),
(949,1780,l),
(796,1647,l),
(1017,1662,o),
(1131,1778,o),
(1131,1900,cs),
(1131,2018,o),
(1014,2132,o),
(794,2132,cs),
(688,2132,o),
(571,2103,o),
(478,2045,c),
(569,1884,l),
(616,1908,o),
(667,1917,o),
(706,1917,cs),
(766,1917,o),
(797,1898,o),
(797,1855,cs),
(797,1809,o),
(725,1788,o),
(637,1782,c),
(652,1559,l)
);
},
{
alignment = -1;
ref = A;
}
);
width = 1585;
},
{
anchors = (
{
name = bottom;
position = "{778, 0}";
},
{
name = ogonek;
position = "{1520, 0}";
},
{
name = top;
position = "{809, 2098}";
}
);
layerId = "F06CBC40-6010-41C8-A897-7AE20112A561";
shapes = (
{
closed = 1;
nodes = (
(900,1557,l),
(911,1762,l),
(788,1654,l),
(991,1664,o),
(1103,1768,o),
(1103,1884,cs),
(1103,1996,o),
(993,2098,o),
(795,2098,cs),
(700,2098,o),
(585,2073,o),
(498,2007,c),
(575,1878,l),
(620,1910,o),
(676,1924,o),
(726,1924,cs),
(796,1924,o),
(834,1898,o),
(834,1849,cs),
(834,1797,o),
(761,1768,o),
(659,1764,c),
(670,1557,l)
);
},
{
alignment = -1;
ref = A;
}
);
width = 1567;
},
{
anchors = (
{
name = bottom;
position = "{768, 0}";
},
{
name = ogonek;
position = "{1455, 0}";
},
{
name = top;
position = "{799, 2048}";
}
);
layerId = "338923BD-A73B-4463-96D5-6CCFD2C76DE7";
shapes = (
{
closed = 1;
nodes = (
(850,1553,l),
(855,1734,l),
(775,1664,l),
(953,1668,o),
(1062,1752,o),
(1062,1861,cs),
(1062,1962,o),
(962,2048,o),
(796,2048,cs),
(717,2048,o),
(607,2027,o),
(528,1950,c),
(585,1870,l),
(626,1914,o),
(690,1934,o),
(757,1934,cs),
(840,1934,o),
(889,1897,o),
(889,1840,cs),
(889,1778,o),
(814,1738,o),
(692,1736,c),
(698,1553,l)
);
},
{
alignment = -1;
ref = A;
}
);
width = 1539;
},
{
anchors = (
{
name = bottom;
position = "{761, 0}";
},
{
name = ogonek;
position = "{1411, 0}";
},
{
name = top;
position = "{792, 2014}";
}
);
layerId = "E5A5C170-0FDF-4A9B-BA4A-24DEB95A442A";
shapes = (
{
closed = 1;
nodes = (
(817,1551,l),
(817,1716,l),
(766,1671,l),
(928,1671,o),
(1035,1741,o),
(1035,1845,cs),
(1035,1939,o),
(941,2014,o),
(797,2014,cs),
(728,2014,o),
(621,1996,o),
(548,1912,c),
(592,1865,l),
(630,1916,o),
(699,1941,o),
(777,1941,cs),
(870,1941,o),
(926,1896,o),
(926,1834,cs),
(926,1765,o),
(850,1718,o),
(714,1718,c),
(716,1551,l)
);
},
{
alignment = -1;
ref = A;
}
);
width = 1520;
}
);
unicode = 7842;
},
{
glyphname = "Aie-cy";
leftMetricsKey = AE;
widthMetricsKey = AE;
layers = (
{
anchors = (
{
name = bottom;
position = "{1165, 0}";
},
{
name = top;
position = "{1254, 1465}";
}
);
layerId = "48D2EA9E-46BD-4B15-B2EA-011CD0F10041";
shapes = (
{
closed = 1;
nodes = (
(967,0,l),
(1849,0,l),
(1893,257,l),
(1397,257,l),
(1358,636,l),
(1764,636,l),
(1802,869,l),
(1336,869,l),
(1301,1208,l),
(1802,1208,l),
(1847,1465,l),
(661,1465,l),
(23,0,l),
(394,0,l),
(508,303,l),
(936,303,l)
);
},
{
closed = 1;
nodes = (
(598,536,l),
(757,962,l),
(837,1193,l),
(857,1193,l),
(870,962,l),
(913,536,l)
);
}
);
width = 2011;
},
{
anchors = (
{
name = bottom;
position = "{1111, 0}";
},
{
name = top;
position = "{1244, 1465}";
}
);
layerId = "F06CBC40-6010-41C8-A897-7AE20112A561";
shapes = (
{
closed = 1;
nodes = (
(979,0,l),
(1818,0,l),
(1857,217,l),
(1316,217,l),
(1272,656,l),
(1720,656,l),
(1755,855,l),
(1253,855,l),
(1213,1248,l),
(1764,1248,l),
(1803,1465,l),
(713,1465,l),
(15,0,l),
(320,0,l),
(471,341,l),
(945,341,l)
);
},
{
closed = 1;
nodes = (
(554,542,l),
(768,1024,l),
(842,1227,l),
(861,1227,l),
(878,1024,l),
(926,542,l)
);
}
);
width = 1979;
},
{
anchors = (
{
name = bottom;
position = "{1029, 0}";
},
{
name = top;
position = "{1229, 1465}";
}
);
layerId = "338923BD-A73B-4463-96D5-6CCFD2C76DE7";
shapes = (
{
closed = 1;
nodes = (
(998,0,l),
(1772,0,l),
(1802,157,l),
(1195,157,l),
(1143,685,l),
(1654,685,l),
(1685,835,l),
(1129,835,l),
(1082,1308,l),
(1706,1308,l),
(1737,1465,l),
(790,1465,l),
(3,0,l),
(208,0,l),
(415,399,l),
(959,399,l)
);
},
{
closed = 1;
nodes = (
(488,550,l),
(784,1117,l),
(850,1277,l),
(867,1277,l),
(889,1117,l),
(946,550,l)
);
}
);
width = 1932;
},
{
anchors = (
{
name = bottom;
position = "{975, 0}";
},
{
name = top;
position = "{1219, 1465}";
}
);
layerId = "E5A5C170-0FDF-4A9B-BA4A-24DEB95A442A";
shapes = (
{
closed = 1;
nodes = (
(1010,0,l),
(1741,0,l),
(1766,117,l),
(1114,117,l),
(1057,705,l),
(1610,705,l),
(1638,822,l),
(1046,822,l),
(995,1348,l),
(1668,1348,l),
(1693,1465,l),
(841,1465,l),
(-5,0,l),
(133,0,l),
(378,438,l),
(968,438,l)
);
},
{
closed = 1;
nodes = (
(444,556,l),
(795,1179,l),
(855,1311,l),
(871,1311,l),
(896,1179,l),
(959,556,l)
);
}
);
width = 1901;
}
);
rightKerningGroup = "Aie-cy";
unicode = 1236;
},
{
glyphname = Alphatonos;
rightMetricsKey = A;
layers = (
{
layerId = "48D2EA9E-46BD-4B15-B2EA-011CD0F10041";
shapes = (
{
closed = 1;
nodes = (
(542,1465,l),
(102,1465,l),
(22,876,l),
(358,876,l)
);
},
{
alignment = -1;
pos = (248,0);
ref = A;
}
);
width = 1705;
},
{
layerId = "F06CBC40-6010-41C8-A897-7AE20112A561";
shapes = (
{
closed = 1;
nodes = (
(471,1465,l),
(120,1465,l),
(28,872,l),
(295,872,l)
);
},
{
alignment = -1;
pos = (182,0);
ref = A;
}
);
width = 1641;
},
{
layerId = "338923BD-A73B-4463-96D5-6CCFD2C76DE7";
shapes = (
{
closed = 1;
nodes = (
(364,1465,l),
(148,1465,l),
(36,865,l),
(201,865,l)
);
},
{
alignment = -1;
pos = (84,0);
ref = A;
}
);
width = 1545;
},
{
layerId = "E5A5C170-0FDF-4A9B-BA4A-24DEB95A442A";
shapes = (
{
closed = 1;
nodes = (
(293,1465,l),
(166,1465,l),
(42,860,l),
(138,860,l)
);
},
{
alignment = -1;
pos = (19,0);
ref = A;
}
);
width = 1481;
}
);
rightKerningGroup = Alpha;
unicode = 902;
},
{
glyphname = Aogonek;
layers = (
{
background = {
shapes = (
{
closed = 1;
nodes = (
(232,-4,l),
(396,436,l),
(482,440,o),
(608,448,o),
(678,448,cs),
(748,448,o),
(898,448,o),
(982,446,c),
(1038,294,o),
(1082,144,o),
(1126,-6,c),
(1018,-90,o),
(958,-188,o),
(958,-276,cs),
(958,-380,o),
(1044,-446,o),
(1152,-446,cs),
(1224,-446,o),
(1288,-416,o),
(1344,-366,c),
(1302,-286,l),
(1266,-306,o),
(1228,-314,o),
(1202,-314,cs),
(1148,-314,o),
(1108,-278,o),
(1108,-222,cs),
(1108,-146,o),
(1182,-60,o),
(1276,2,c),
(1372,8,l),
(790,1504,l),
(622,1486,l),
(344,760,ls),
(246,506,o),
(144,256,o),
(32,4,c)
);
},
{
closed = 1;
nodes = (
(934,590,l),
(852,588,o),
(748,586,o),
(678,586,cs),
(632,586,o),
(526,586,o),
(454,588,c),
(588,956,ls),
(630,1070,o),
(662,1182,o),
(680,1276,c),
(700,1276,l),
(720,1182,o),
(748,1080,o),
(792,966,c)
);
}
);
};
layerId = "48D2EA9E-46BD-4B15-B2EA-011CD0F10041";
shapes = (
{
closed = 1;
nodes = (
(803,-343,o),
(893,-435,o),
(1037,-435,cs),
(1145,-435,o),
(1257,-382,o),
(1300,-344,c),
(1300,-209,l),
(1273,-223,o),
(1232,-228,o),
(1203,-228,cs),
(1115,-228,o),
(1079,-168,o),
(1079,-122,cs),
(1079,-70,o),
(1124,-31,o),
(1170,0,c),
(1425,0,l),
(1011,1465,l),
(449,1465,l),
(32,0,l),
(395,0,l),
(464,303,l),
(878,303,l),
(947,7,l),
(847,-63,o),
(803,-146,o),
(803,-227,cs)
);
},
{
closed = 1;
nodes = (
(520,536,l),
(616,962,l),
(661,1193,l),
(681,1193,l),
(726,962,l),
(823,536,l)
);
}
);
width = 1457;
},
{
layerId = "F06CBC40-6010-41C8-A897-7AE20112A561";
shapes = (
{
closed = 1;
nodes = (
(859,-346,o),
(949,-434,o),
(1082,-434,cs),
(1178,-434,o),
(1275,-388,o),
(1323,-347,c),
(1323,-233,l),
(1294,-249,o),
(1241,-261,o),
(1205,-261,cs),
(1124,-261,o),
(1086,-207,o),
(1086,-154,cs),
(1086,-92,o),
(1134,-43,o),
(1204,0,c),
(1402,0,l),
(949,1465,l),
(512,1465,l),
(56,0,l),
(353,0,l),
(448,341,l),
(925,341,l),
(1017,10,l),
(922,-56,o),
(859,-145,o),
(859,-235,cs)
);
},
{
closed = 1;
nodes = (
(500,542,l),
(634,1024,l),
(676,1227,l),
(696,1227,l),
(739,1024,l),
(873,542,l)
);
}
);
width = 1459;
},
{
layerId = "338923BD-A73B-4463-96D5-6CCFD2C76DE7";
shapes = (
{
closed = 1;
nodes = (
(942,-351,o),
(1033,-432,o),
(1150,-432,cs),
(1227,-432,o),
(1303,-396,o),
(1358,-351,c),
(1358,-270,l),
(1326,-289,o),
(1254,-310,o),
(1207,-310,cs),
(1137,-310,o),
(1096,-266,o),
(1096,-201,cs),
(1096,-126,o),
(1148,-60,o),
(1254,0,c),
(1368,0,l),
(856,1465,l),
(606,1465,l),
(93,0,l),
(290,0,l),
(424,399,l),
(995,399,l),
(1123,15,l),
(1035,-46,o),
(942,-143,o),
(942,-248,cs)
);
},
{
closed = 1;
nodes = (
(471,550,l),
(662,1117,l),
(699,1277,l),
(719,1277,l),
(758,1117,l),
(949,550,l)
);
}
);
width = 1461;
},
{
layerId = "E5A5C170-0FDF-4A9B-BA4A-24DEB95A442A";
shapes = (
{
closed = 1;
nodes = (
(997,-354,o),
(1089,-431,o),
(1195,-431,cs),
(1260,-431,o),
(1322,-401,o),
(1381,-354,c),
(1381,-295,l),
(1347,-316,o),
(1263,-343,o),
(1209,-343,cs),
(1146,-343,o),
(1103,-305,o),
(1103,-233,cs),
(1103,-148,o),
(1157,-72,o),
(1287,0,c),
(1345,0,l),
(794,1465,l),
(669,1465,l),
(117,0,l),
(248,0,l),
(408,438,l),
(1042,438,l),
(1194,18,l),
(1110,-39,o),
(997,-142,o),
(997,-257,cs)
);
},
{
closed = 1;
nodes = (
(452,556,l),
(681,1179,l),
(714,1311,l),
(734,1311,l),
(771,1179,l),
(1000,556,l)
);
}
);
width = 1462;
}
);
leftKerningGroup = _A_Right;
rightKerningGroup = _A_Left;
unicode = 260;
},
{
glyphname = Aring;
layers = (
{
background = {
shapes = (
{
closed = 1;
nodes = (
(384,713,o),
(432,757,o),
(432,814,cs),
(432,864,o),
(395,902,o),
(335,902,cs),
(268,902,o),
(223,856,o),
(223,801,cs),
(223,749,o),
(264,713,o),
(320,713,cs)
);
},
{
closed = 1;
nodes = (
(303,753,o),
(285,781,o),
(285,810,cs),
(285,839,o),
(303,861,o),
(326,861,cs),
(353,861,o),
(373,835,o),
(373,805,cs),
(373,774,o),
(353,753,o),
(329,753,cs)
);
}
);
};
layerId = "48D2EA9E-46BD-4B15-B2EA-011CD0F10041";
shapes = (
{
alignment = -1;
ref = A;
},
{
alignment = -1;
pos = (212,0);
ref = ring.cap;
}
);
width = 1469;
},
{
layerId = "F06CBC40-6010-41C8-A897-7AE20112A561";
shapes = (
{
alignment = -1;
ref = A;
},
{
alignment = -1;
pos = (235,0);
ref = ring.cap;
}
);
width = 1479;
},
{
layerId = "338923BD-A73B-4463-96D5-6CCFD2C76DE7";
shapes = (
{
alignment = -1;
ref = A;
},
{
alignment = -1;
pos = (269,0);
ref = ring.cap;
}
);
width = 1495;
},
{
layerId = "E5A5C170-0FDF-4A9B-BA4A-24DEB95A442A";
shapes = (
{
alignment = -1;
ref = A;
},
{
alignment = -1;
pos = (292,0);
ref = ring.cap;
}
);
width = 1506;
}
);
leftKerningGroup = _A_Right;
rightKerningGroup = _A_Left;
unicode = 197;
},
{
glyphname = B;
layers = (
{
background = {
shapes = (
{
closed = 1;
nodes = (
(982,874,o),
(1111,1003,o),
(1111,1145,cs),
(1111,1304,o),
(952,1465,o),
(630,1465,cs),
(218,1465,l),
(218,0,l),
(594,0,ls),
(978,0,o),
(1178,268,o),
(1178,466,cs),
(1178,636,o),
(1030,751,o),
(847,799,c)
);
},
{
closed = 1;
nodes = (
(414,698,l),
(614,698,ls),
(830,698,o),
(972,621,o),
(972,435,cs),
(972,296,o),
(895,133,o),
(616,133,cs),
(414,133,l)
);
},
{
closed = 1;
nodes = (
(414,832,l),
(414,1331,l),
(596,1331,ls),
(802,1331,o),
(915,1244,o),
(915,1094,cs),
(915,981,o),
(853,898,o),
(758,832,c)
);
}
);
};
layerId = "48D2EA9E-46BD-4B15-B2EA-011CD0F10041";
shapes = (
{
closed = 1;
nodes = (
(1264,913,o),
(1381,993,o),
(1381,1145,cs),
(1381,1340,o),
(1176,1465,o),
(793,1465,cs),
(160,1465,l),
(160,0,l),
(729,0,ls),
(1176,0,o),
(1443,207,o),
(1443,459,cs),
(1443,671,o),
(1263,781,o),
(1116,818,c)
);
},
{
closed = 1;
nodes = (
(611,636,l),
(744,636,ls),
(871,636,o),
(979,587,o),
(979,455,cs),
(979,345,o),
(887,257,o),
(761,257,cs),
(611,257,l)
);
},
{
closed = 1;
nodes = (
(611,869,l),
(611,1208,l),
(760,1208,ls),
(862,1208,o),
(941,1142,o),
(941,1041,cs),
(941,959,o),
(904,893,o),
(868,869,c)
);
}
);
width = 1539;
},
{
layerId = "F06CBC40-6010-41C8-A897-7AE20112A561";
shapes = (
{
closed = 1;
nodes = (
(1160,894,o),
(1275,991,o),
(1275,1139,cs),
(1275,1322,o),
(1088,1465,o),
(729,1465,cs),
(183,1465,l),
(183,0,l),
(681,0,ls),
(1104,0,o),
(1339,225,o),
(1339,458,cs),
(1339,655,o),
(1175,767,o),
(1023,808,c)
);
},
{
closed = 1;
nodes = (
(533,656,l),
(708,656,ls),
(844,656,o),
(976,597,o),
(976,447,cs),
(976,329,o),
(881,217,o),
(704,217,cs),
(533,217,l)
);
},
{
closed = 1;
nodes = (
(533,855,l),
(533,1248,l),
(696,1248,ls),
(838,1248,o),
(929,1174,o),
(929,1061,cs),
(929,971,o),
(884,896,o),
(824,855,c)
);
}
);
width = 1444;
},
{
layerId = "338923BD-A73B-4463-96D5-6CCFD2C76DE7";
shapes = (
{
closed = 1;
nodes = (
(1003,866,o),
(1115,989,o),
(1115,1130,cs),
(1115,1296,o),
(956,1465,o),
(632,1465,cs),
(217,1465,l),
(217,0,l),
(609,0,ls),
(995,0,o),
(1182,252,o),
(1182,456,cs),
(1182,632,o),
(1044,747,o),
(883,793,c)
);
},
{
closed = 1;
nodes = (
(417,685,l),
(655,685,ls),
(804,685,o),
(971,611,o),
(971,436,cs),
(971,305,o),
(873,157,o),
(618,157,cs),
(417,157,l)
);
},
{
closed = 1;
nodes = (
(417,835,l),
(417,1308,l),
(599,1308,ls),
(803,1308,o),
(911,1222,o),
(911,1091,cs),
(911,990,o),
(853,901,o),
(759,835,c)
);
}
);
width = 1301;
},
{
layerId = "E5A5C170-0FDF-4A9B-BA4A-24DEB95A442A";
shapes = (
{
closed = 1;
nodes = (
(898,847,o),
(1009,988,o),
(1009,1124,cs),
(1009,1278,o),
(868,1465,o),
(568,1465,cs),
(240,1465,l),
(240,0,l),
(561,0,ls),
(922,0,o),
(1078,270,o),
(1078,455,cs),
(1078,616,o),
(957,733,o),
(790,783,c)
);
},
{
closed = 1;
nodes = (
(339,705,l),
(619,705,ls),
(777,705,o),
(968,620,o),
(968,428,cs),
(968,289,o),
(867,117,o),
(561,117,cs),
(339,117,l)
);
},
{
closed = 1;
nodes = (
(339,822,l),
(339,1348,l),
(534,1348,ls),
(780,1348,o),
(899,1254,o),
(899,1111,cs),
(899,1003,o),
(833,904,o),
(716,822,c)
);
}
);
width = 1206;
}
);
unicode = 66;
},
{
glyphname = "Be-cy";
layers = (
{
layerId = "48D2EA9E-46BD-4B15-B2EA-011CD0F10041";
shapes = (
{
closed = 1;
nodes = (
(738,0,ls),
(984,0,o),
(1135,53,o),
(1230,149,c),
(1324,237,o),
(1366,362,o),
(1366,505,cs),
(1366,753,o),
(1176,888,o),
(853,888,cs),
(531,888,l),
(531,587,l),
(742,587,ls),
(873,587,o),
(926,552,o),
(926,463,cs),
(926,431,o),
(922,405,o),
(909,382,c),
(886,346,o),
(830,333,o),
(753,333,cs),
(579,333,l),
(579,1116,l),
(1216,1116,l),
(1216,1465,l),
(169,1465,l),
(169,0,l)
);
}
);
width = 1444;
},
{
layerId = "F06CBC40-6010-41C8-A897-7AE20112A561";
shapes = (
{
closed = 1;
nodes = (
(714,0,ls),
(952,0,o),
(1095,53,o),
(1188,146,c),
(1276,231,o),
(1318,350,o),
(1318,487,cs),
(1318,733,o),
(1130,870,o),
(807,870,cs),
(474,870,l),
(474,627,l),
(722,627,ls),
(893,627,o),
(968,568,o),
(968,452,cs),
(968,403,o),
(956,361,o),
(931,330,c),
(898,286,o),
(834,267,o),
(729,267,cs),
(521,267,l),
(521,1186,l),
(1180,1186,l),
(1180,1465,l),
(193,1465,l),
(193,0,l)
);
}
);
width = 1406;
},
{
layerId = "338923BD-A73B-4463-96D5-6CCFD2C76DE7";
shapes = (
{
closed = 1;
nodes = (
(677,0,ls),
(903,0,o),
(1036,52,o),
(1124,141,cs),
(1205,223,o),
(1247,332,o),
(1247,461,cs),
(1247,704,o),
(1060,844,o),
(738,844,cs),
(389,844,l),
(389,688,l),
(691,688,ls),
(924,688,o),
(1030,593,o),
(1030,436,cs),
(1030,360,o),
(1007,296,o),
(965,251,c),
(917,196,o),
(839,167,o),
(694,167,cs),
(435,167,l),
(435,1292,l),
(1125,1292,l),
(1125,1465,l),
(228,1465,l),
(228,0,l)
);
}
);
width = 1348;
},
{
layerId = "E5A5C170-0FDF-4A9B-BA4A-24DEB95A442A";
shapes = (
{
closed = 1;
nodes = (
(652,0,ls),
(870,0,o),
(997,51,o),
(1082,138,c),
(1157,217,o),
(1199,320,o),
(1199,443,cs),
(1199,685,o),
(1014,827,o),
(692,827,cs),
(332,827,l),
(332,728,l),
(671,728,ls),
(945,728,o),
(1071,610,o),
(1071,425,cs),
(1071,332,o),
(1041,253,o),
(987,198,c),
(930,136,o),
(843,100,o),
(671,100,cs),
(378,100,l),
(378,1363,l),
(1088,1363,l),
(1088,1465,l),
(251,1465,l),
(251,0,l)
);
}
);
width = 1309;
}
);
leftKerningGroup = "I-cy";
unicode = 1041;
},
{
glyphname = C;
layers = (
{
background = {
shapes = (
{
closed = 1;
nodes = (
(655,125,l),
(590,83,o),
(508,65,o),
(458,65,cs),
(291,65,o),
(193,213,o),
(193,378,cs),
(193,559,o),
(314,691,o),
(456,691,cs),
(507,691,o),
(572,679,o),
(646,639,c),
(656,645,l),
(674,727,l),
(599,752,o),
(530,761,o),
(479,761,cs),
(274,761,o),
(85,622,o),
(85,354,cs),
(85,131,o),
(219,-14,o),
(424,-14,cs),
(483,-14,o),
(593,-2,o),
(684,77,c)
);
}
);
};
layerId = "48D2EA9E-46BD-4B15-B2EA-011CD0F10041";
shapes = (
{
closed = 1;
nodes = (
(1321,319,l),
(1259,297,o),
(1177,259,o),
(1040,259,cs),
(738,259,o),
(554,437,o),
(554,756,cs),
(554,1055,o),
(713,1228,o),
(963,1228,cs),
(1045,1228,o),
(1150,1209,o),
(1257,1157,c),
(1277,1164,l),
(1340,1438,l),
(1213,1472,o),
(1044,1485,o),
(952,1485,cs),
(521,1485,o),
(90,1205,o),
(90,686,cs),
(90,256,o),
(396,-20,o),
(810,-20,cs),
(1007,-20,o),
(1209,42,o),
(1321,131,c)
);
}
);
width = 1436;
},
{
layerId = "F06CBC40-6010-41C8-A897-7AE20112A561";
shapes = (
{
closed = 1;
nodes = (
(1317,287,l),
(1225,242,o),
(1115,212,o),
(996,212,cs),
(661,212,o),
(476,435,o),
(476,746,cs),
(476,1061,o),
(665,1268,o),
(943,1268,cs),
(1026,1268,o),
(1147,1249,o),
(1260,1194,c),
(1280,1202,l),
(1332,1428,l),
(1201,1471,o),
(1036,1485,o),
(945,1485,cs),
(519,1485,o),
(113,1191,o),
(113,694,cs),
(113,255,o),
(413,-20,o),
(824,-20,cs),
(987,-20,o),
(1192,28,o),
(1317,129,c)
);
}
);
width = 1438;
},
{
layerId = "338923BD-A73B-4463-96D5-6CCFD2C76DE7";
shapes = (
{
closed = 1;
nodes = (
(1312,238,l),
(1175,160,o),
(1023,142,o),
(930,142,cs),
(546,142,o),
(359,432,o),
(359,731,cs),
(359,1069,o),
(592,1328,o),
(913,1328,cs),
(998,1328,o),
(1142,1310,o),
(1264,1250,c),
(1284,1259,l),
(1319,1414,l),
(1184,1470,o),
(1025,1485,o),
(934,1485,cs),
(516,1485,o),
(147,1171,o),
(147,707,cs),
(147,254,o),
(439,-20,o),
(844,-20,cs),
(956,-20,o),
(1166,8,o),
(1312,125,c)
);
}
);
width = 1442;
},
{
layerId = "E5A5C170-0FDF-4A9B-BA4A-24DEB95A442A";
shapes = (
{
closed = 1;
nodes = (
(1309,205,l),
(1142,105,o),
(962,95,o),
(886,95,cs),
(469,95,o),
(281,430,o),
(281,721,cs),
(281,1075,o),
(544,1368,o),
(893,1368,cs),
(979,1368,o),
(1139,1350,o),
(1267,1287,c),
(1287,1297,l),
(1310,1405,l),
(1172,1469,o),
(1018,1485,o),
(927,1485,cs),
(514,1485,o),
(170,1157,o),
(170,715,cs),
(170,253,o),
(456,-20,o),
(857,-20,cs),
(936,-20,o),
(1149,-6,o),
(1309,123,c)
);
}
);
width = 1445;
}
);
leftKerningGroup = _C_Right;
rightKerningGroup = _C_Left;
unicode = 67;
},
{
glyphname = Ccedilla;
layers = (
{
background = {
shapes = (
{
closed = 1;
nodes = (
(1325,258,l),
(1164,163,o),
(1013,140,o),
(910,140,cs),
(551,140,o),
(352,432,o),
(352,741,cs),
(352,1064,o),
(582,1330,o),
(902,1330,cs),
(990,1330,o),
(1121,1310,o),
(1267,1243,c),
(1287,1253,l),
(1321,1427,l),
(1174,1471,o),
(1038,1485,o),
(947,1485,cs),
(527,1485,o),
(148,1188,o),
(148,699,cs),
(148,287,o),
(417,7,o),
(774,-20,c),
(698,-158,l),
(698,-202,l),
(766,-202,o),
(854,-221,o),
(854,-292,cs),
(854,-350,o),
(796,-384,o),
(678,-384,c),
(678,-502,l),
(848,-502,o),
(1006,-418,o),
(1006,-279,cs),
(1006,-179,o),
(914,-123,o),
(839,-114,c),
(894,-20,l),
(1021,-11,o),
(1198,29,o),
(1325,141,c)
);
}
);
};
layerId = "48D2EA9E-46BD-4B15-B2EA-011CD0F10041";
shapes = (
{
closed = 1;
nodes = (
(1321,319,l),
(1259,297,o),
(1177,259,o),
(1040,259,cs),
(738,259,o),
(554,437,o),
(554,756,cs),
(554,1055,o),
(713,1228,o),
(963,1228,cs),
(1045,1228,o),
(1150,1209,o),
(1257,1157,c),
(1277,1164,l),
(1340,1438,l),
(1213,1472,o),
(1044,1485,o),
(952,1485,cs),
(521,1485,o),
(90,1204,o),
(90,689,cs),
(90,255,o),
(397,-21,o),
(811,-20,c),
(830,-54,o),
(837,-80,o),
(837,-114,cs),
(837,-187,o),
(804,-258,o),
(610,-258,c),
(610,-467,l),
(987,-467,o),
(1078,-310,o),
(1078,-171,cs),
(1078,-96,o),
(1052,-44,o),
(1020,2,c),
(1141,28,o),
(1250,74,o),
(1321,131,c)
);
}
);
width = 1436;
},
{
layerId = "F06CBC40-6010-41C8-A897-7AE20112A561";
shapes = (
{
closed = 1;
nodes = (
(1317,287,l),
(1225,242,o),
(1115,212,o),
(996,212,cs),
(661,212,o),
(476,435,o),
(476,746,cs),
(476,1061,o),
(665,1268,o),
(943,1268,cs),
(1026,1268,o),
(1147,1249,o),
(1260,1194,c),
(1280,1202,l),
(1332,1428,l),
(1201,1471,o),
(1036,1485,o),
(945,1485,cs),
(519,1485,o),
(113,1190,o),
(113,697,cs),
(113,257,o),
(410,-17,o),
(817,-20,c),
(834,-50,o),
(843,-77,o),
(843,-114,cs),
(843,-207,o),
(784,-268,o),
(617,-268,c),
(617,-445,l),
(929,-445,o),
(1049,-306,o),
(1049,-149,cs),
(1049,-86,o),
(1028,-40,o),
(1002,-2,c),
(1118,20,o),
(1234,62,o),
(1317,129,c)
);
}
);
width = 1438;
},
{
layerId = "338923BD-A73B-4463-96D5-6CCFD2C76DE7";
shapes = (
{
closed = 1;
nodes = (
(1312,238,l),
(1175,160,o),
(1023,142,o),
(930,142,cs),
(546,142,o),
(359,432,o),
(359,731,cs),
(359,1069,o),
(592,1328,o),
(913,1328,cs),
(998,1328,o),
(1142,1310,o),
(1264,1250,c),
(1284,1259,l),
(1319,1414,l),
(1184,1470,o),
(1025,1485,o),
(934,1485,cs),
(516,1485,o),
(147,1170,o),
(147,708,cs),
(147,260,o),
(430,-11,o),
(827,-20,c),
(841,-45,o),
(851,-72,o),
(851,-113,cs),
(851,-236,o),
(755,-283,o),
(628,-283,c),
(628,-413,l),
(841,-413,o),
(1006,-301,o),
(1006,-117,cs),
(1006,-70,o),
(993,-35,o),
(976,-9,c),
(1083,7,o),
(1211,45,o),
(1312,125,c)
);
}
);
width = 1442;
},
{
layerId = "E5A5C170-0FDF-4A9B-BA4A-24DEB95A442A";
shapes = (
{
closed = 1;
nodes = (
(1309,205,l),
(1142,105,o),
(962,95,o),
(886,95,cs),
(469,95,o),
(281,430,o),
(281,721,cs),
(281,1075,o),
(544,1368,o),
(893,1368,cs),
(979,1368,o),
(1139,1350,o),
(1267,1287,c),
(1287,1297,l),
(1310,1405,l),
(1172,1469,o),
(1018,1485,o),
(927,1485,cs),
(514,1485,o),
(170,1157,o),
(170,715,cs),
(170,262,o),
(443,-7,o),
(834,-20,c),
(846,-42,o),
(857,-69,o),
(857,-113,cs),
(857,-255,o),
(735,-293,o),
(635,-293,c),
(635,-392,l),
(783,-392,o),
(977,-297,o),
(977,-96,cs),
(977,-59,o),
(969,-32,o),
(959,-13,c),
(1060,-2,o),
(1196,33,o),
(1309,123,c)
);
}
);
width = 1445;
}
);
leftKerningGroup = _C_Right;
rightKerningGroup = _C_Left;
unicode = 199;
},
{
glyphname = "Che-cy";
layers = (
{
anchors = (
{
name = bottomright;
position = "{1420, 0}";
},
{
name = top;
position = "{772, 1465}";
}
);
layerId = "48D2EA9E-46BD-4B15-B2EA-011CD0F10041";
shapes = (
{
closed = 1;
nodes = (
(1420,0,l),
(1420,1465,l),
(951,1465,l),
(951,0,l)
);
},
{
closed = 1;
nodes = (
(813,458,o),
(1024,514,o),
(1154,678,c),
(983,853,l),
(945,830,o),
(862,814,o),
(791,814,cs),
(646,814,o),
(583,900,o),
(583,1071,cs),
(583,1465,l),
(118,1465,l),
(118,895,ls),
(118,599,o),
(363,458,o),
(618,458,cs)
);
}
);
width = 1588;
},
{
anchors = (
{
name = bottomright;
position = "{1376, 0}";
},
{
name = top;
position = "{760, 1465}";
}
);
layerId = "F06CBC40-6010-41C8-A897-7AE20112A561";
shapes = (
{
closed = 1;
nodes = (
(1376,0,l),
(1376,1465,l),
(1003,1465,l),
(1003,0,l)
);
},
{
closed = 1;
nodes = (
(826,490,o),
(1044,550,o),
(1171,697,c),
(1031,836,l),
(978,799,o),
(862,773,o),
(767,773,cs),
(593,773,o),
(507,872,o),
(507,1074,cs),
(507,1465,l),
(138,1465,l),
(138,938,ls),
(138,639,o),
(363,490,o),
(632,490,cs)
);
}
);
width = 1568;
},
{
anchors = (
{
name = bottomright;
position = "{1309, 0}";
},
{
name = top;
position = "{742, 1465}";
}
);
layerId = "338923BD-A73B-4463-96D5-6CCFD2C76DE7";
shapes = (
{
closed = 1;
nodes = (
(1309,0,l),
(1309,1465,l),
(1082,1465,l),
(1082,0,l)
);
},
{
closed = 1;
nodes = (
(846,539,o),
(1075,603,o),
(1196,726,c),
(1102,811,l),
(1028,753,o),
(861,712,o),
(730,712,cs),
(513,712,o),
(394,829,o),
(394,1079,cs),
(394,1465,l),
(169,1465,l),
(169,1003,ls),
(169,700,o),
(363,539,o),
(653,539,cs)
);
}
);
width = 1538;
},
{
anchors = (
{
name = bottomright;
position = "{1265, 0}";
},
{
name = top;
position = "{730, 1465}";
}
);
layerId = "E5A5C170-0FDF-4A9B-BA4A-24DEB95A442A";
shapes = (
{
closed = 1;
nodes = (
(1265,0,l),
(1265,1465,l),
(1134,1465,l),
(1134,0,l)
);
},
{
closed = 1;
nodes = (
(859,571,o),
(1095,638,o),
(1213,745,c),
(1150,794,l),
(1061,722,o),
(861,671,o),
(706,671,cs),
(460,671,o),
(318,801,o),
(318,1082,cs),
(318,1465,l),
(189,1465,l),
(189,1046,ls),
(189,741,o),
(363,571,o),
(667,571,cs)
);
}
);
width = 1518;
}
);
leftKerningGroup = "Che-cy";
rightKerningGroup = "I-cy1";
unicode = 1063;
},
{
glyphname = "Cheabkhasian-cy";
layers = (
{
anchors = (
{
name = bottom;
position = "{1194, 0}";
}
);
layerId = "48D2EA9E-46BD-4B15-B2EA-011CD0F10041";
shapes = (
{
closed = 1;
nodes = (
(1403,-41,o),
(1678,30,o),
(1871,235,c),
(1705,456,l),
(1594,387,o),
(1490,330,o),
(1314,330,cs),
(1033,330,o),
(904,492,o),
(904,804,cs),
(904,1060,o),
(1032,1172,o),
(1183,1172,cs),
(1378,1172,o),
(1446,1036,o),
(1443,837,c),
(1443,790,o),
(1439,720,o),
(1428,686,c),
(1852,605,l),
(1862,680,o),
(1862,757,o),
(1862,835,cs),
(1862,1224,o),
(1638,1505,o),
(1237,1505,cs),
(836,1505,o),
(474,1172,o),
(474,704,cs),
(474,314,o),
(736,-41,o),
(1196,-41,cs)
);
},
{
closed = 1;
nodes = (
(601,925,ls),
(459,925,o),
(402,1004,o),
(402,1150,cs),
(402,1249,o),
(431,1362,o),
(476,1465,c),
(133,1465,l),
(54,1329,o),
(14,1189,o),
(14,1064,cs),
(14,790,o),
(168,605,o),
(516,605,cs),
(1852,605,l),
(1584,925,l)
);
}
);
width = 1970;
},
{
anchors = (
{
name = bottom;
position = "{1184, 0}";
}
);
layerId = "F06CBC40-6010-41C8-A897-7AE20112A561";
shapes = (
{
closed = 1;
nodes = (
(1401,-34,o),
(1656,42,o),
(1837,233,c),
(1700,413,l),
(1584,325,o),
(1462,262,o),
(1278,262,cs),
(971,262,o),
(804,455,o),
(804,788,cs),
(804,1076,o),
(962,1232,o),
(1166,1232,cs),
(1390,1232,o),
(1496,1076,o),
(1495,854,c),
(1495,816,o),
(1491,758,o),
(1482,728,c),
(1822,661,l),
(1830,726,o),
(1830,789,o),
(1830,855,cs),
(1830,1228,o),
(1598,1499,o),
(1211,1499,cs),
(808,1499,o),
(462,1168,o),
(462,711,cs),
(462,310,o),
(734,-34,o),
(1187,-34,cs)
);
},
{
closed = 1;
nodes = (
(583,919,ls),
(413,919,o),
(338,999,o),
(338,1166,cs),
(338,1261,o),
(366,1366,o),
(410,1465,c),
(135,1465,l),
(66,1341,o),
(28,1215,o),
(28,1098,cs),
(28,830,o),
(180,661,o),
(514,661,cs),
(1822,661,l),
(1612,919,l)
);
}
);
width = 1946;
},
{
anchors = (
{
name = bottom;
position = "{1170, 0}";
}
);
layerId = "338923BD-A73B-4463-96D5-6CCFD2C76DE7";
shapes = (
{
closed = 1;
nodes = (
(1399,-24,o),
(1624,60,o),
(1786,229,c),
(1693,348,l),
(1570,233,o),
(1421,159,o),
(1225,159,cs),
(877,159,o),
(654,400,o),
(654,765,cs),
(654,1099,o),
(858,1321,o),
(1141,1321,cs),
(1407,1321,o),
(1571,1137,o),
(1572,879,c),
(1572,854,o),
(1569,814,o),
(1564,792,c),
(1777,746,l),
(1783,794,o),
(1783,838,o),
(1783,884,cs),
(1783,1233,o),
(1539,1489,o),
(1171,1489,cs),
(765,1489,o),
(443,1161,o),
(443,721,cs),
(443,304,o),
(732,-24,o),
(1173,-24,cs)
);
},
{
closed = 1;
nodes = (
(555,909,ls),
(343,909,o),
(243,992,o),
(243,1190,cs),
(243,1280,o),
(269,1373,o),
(312,1465,c),
(139,1466,l),
(83,1359,o),
(50,1253,o),
(50,1150,cs),
(50,889,o),
(199,746,o),
(511,746,cs),
(1777,746,l),
(1654,909,l)
);
}
);
width = 1911;
},
{
anchors = (
{
name = bottom;
position = "{1161, 0}";
}
);
layerId = "E5A5C170-0FDF-4A9B-BA4A-24DEB95A442A";
shapes = (
{
closed = 1;
nodes = (
(1397,-17,o),
(1602,72,o),
(1752,226,c),
(1688,305,l),
(1561,172,o),
(1393,91,o),
(1189,91,cs),
(814,91,o),
(554,363,o),
(554,750,cs),
(554,1114,o),
(788,1380,o),
(1124,1380,cs),
(1418,1380,o),
(1621,1178,o),
(1624,896,c),
(1624,879,o),
(1621,852,o),
(1619,835,c),
(1747,803,l),
(1752,839,o),
(1752,870,o),
(1752,903,cs),
(1752,1237,o),
(1499,1482,o),
(1144,1482,cs),
(737,1482,o),
(431,1157,o),
(431,728,cs),
(431,300,o),
(731,-17,o),
(1164,-17,cs)
);
},
{
closed = 1;
nodes = (
(537,903,ls),
(296,903,o),
(180,987,o),
(180,1206,cs),
(180,1293,o),
(204,1378,o),
(247,1465,c),
(142,1467,l),
(94,1371,o),
(64,1278,o),
(64,1184,cs),
(64,928,o),
(212,803,o),
(509,803,cs),
(1747,803,l),
(1682,903,l)
);
}
);
width = 1887;
}
);
unicode = 1212;
},
{
glyphname = "Chedescender-cy";
layers = (
{
anchors = (
{
name = top;
position = "{772, 1465}";
}
);
layerId = "48D2EA9E-46BD-4B15-B2EA-011CD0F10041";
shapes = (
{
closed = 1;
nodes = (
(1420,0,l),
(1420,1465,l),
(951,1465,l),
(951,0,l)
);
},
{
closed = 1;
nodes = (
(813,458,o),
(1024,514,o),
(1154,678,c),
(983,853,l),
(945,830,o),
(862,814,o),
(791,814,cs),
(646,814,o),
(583,900,o),
(583,1071,cs),
(583,1465,l),
(118,1465,l),
(118,895,ls),
(118,599,o),
(363,458,o),
(618,458,cs)
);
},
{
closed = 1;
nodes = (
(1454,0,l),
(1658,388,l),
(1324,388,l),
(1324,0,l)
);
},
{
closed = 1;
nodes = (
(1658,-380,l),
(1658,388,l),
(1239,388,l),
(1325,-380,l)
);
}
);
width = 1696;
},
{
anchors = (
{
name = top;
position = "{760, 1465}";
}
);
layerId = "F06CBC40-6010-41C8-A897-7AE20112A561";
shapes = (
{
closed = 1;
nodes = (
(1376,0,l),
(1376,1465,l),
(1003,1465,l),
(1003,0,l)
);
},
{
closed = 1;
nodes = (
(826,490,o),
(1044,550,o),
(1171,697,c),
(1031,836,l),
(978,799,o),
(862,773,o),
(767,773,cs),
(593,773,o),
(507,872,o),
(507,1074,cs),
(507,1465,l),
(138,1465,l),
(138,938,ls),
(138,639,o),
(363,490,o),
(632,490,cs)
);
},
{
closed = 1;
nodes = (
(1441,0,l),
(1604,306,l),
(1294,306,l),
(1294,0,l)
);
},
{
closed = 1;
nodes = (
(1604,-386,l),
(1604,306,l),
(1267,306,l),
(1337,-386,l)
);
}
);
width = 1668;
},
{
anchors = (
{
name = top;
position = "{742, 1465}";
}
);
layerId = "338923BD-A73B-4463-96D5-6CCFD2C76DE7";
shapes = (
{
closed = 1;
nodes = (
(1309,0,l),
(1309,1465,l),
(1082,1465,l),
(1082,0,l)
);
},
{
closed = 1;
nodes = (
(846,539,o),
(1075,603,o),
(1196,726,c),
(1102,811,l),
(1028,753,o),
(861,712,o),
(730,712,cs),
(513,712,o),
(394,829,o),
(394,1079,cs),
(394,1465,l),
(169,1465,l),
(169,1003,ls),
(169,700,o),
(363,539,o),
(653,539,cs)
);
},
{
closed = 1;
nodes = (
(1421,0,l),
(1524,184,l),
(1248,184,l),
(1248,0,l)
);
},
{
closed = 1;
nodes = (
(1524,-394,l),
(1524,184,l),
(1308,184,l),
(1354,-394,l)
);
}
);
width = 1627;
},
{
anchors = (
{
name = top;
position = "{730, 1465}";
}
);
layerId = "E5A5C170-0FDF-4A9B-BA4A-24DEB95A442A";
shapes = (
{
closed = 1;
nodes = (
(1265,0,l),
(1265,1465,l),
(1134,1465,l),
(1134,0,l)
);
},
{
closed = 1;
nodes = (
(859,571,o),
(1095,638,o),
(1213,745,c),
(1150,794,l),
(1061,722,o),
(861,671,o),
(706,671,cs),
(460,671,o),
(318,801,o),
(318,1082,cs),
(318,1465,l),
(189,1465,l),
(189,1046,ls),
(189,741,o),
(363,571,o),
(667,571,cs)
);
},
{
closed = 1;
nodes = (
(1408,0,l),
(1471,102,l),
(1217,102,l),
(1217,0,l)
);
},
{
closed = 1;
nodes = (
(1471,-399,l),
(1471,102,l),
(1336,102,l),
(1365,-399,l)
);
}
);
width = 1600;
}
);
rightKerningGroup = "Tse-cy1";
unicode = 1206;
},
{
glyphname = "Chedescenderabkhasian-cy";
layers = (
{
layerId = "48D2EA9E-46BD-4B15-B2EA-011CD0F10041";
shapes = (
{
closed = 1;
nodes = (
(1403,-41,o),
(1678,30,o),
(1871,235,c),
(1705,456,l),
(1594,387,o),
(1490,330,o),
(1314,330,cs),
(1033,330,o),
(904,492,o),
(904,804,cs),
(904,1060,o),
(1032,1172,o),
(1183,1172,cs),
(1378,1172,o),
(1446,1036,o),
(1443,837,c),
(1443,790,o),
(1439,720,o),
(1428,686,c),
(1852,605,l),
(1862,680,o),
(1862,757,o),
(1862,835,cs),
(1862,1224,o),
(1638,1505,o),
(1237,1505,cs),
(836,1505,o),
(474,1172,o),
(474,704,cs),
(474,314,o),
(736,-41,o),
(1196,-41,cs)
);
},
{
closed = 1;
nodes = (
(601,925,ls),
(459,925,o),
(402,1004,o),
(402,1150,cs),
(402,1249,o),
(431,1362,o),
(476,1465,c),
(133,1465,l),
(54,1329,o),
(14,1189,o),
(14,1064,cs),
(14,790,o),
(168,605,o),
(516,605,cs),
(1852,605,l),
(1584,925,l)
);
},
{
closed = 1;
nodes = (
(1364,-380,l),
(1404,87,l),
(982,87,l),
(1021,-380,l)
);
}
);
width = 1970;
},
{
layerId = "F06CBC40-6010-41C8-A897-7AE20112A561";
shapes = (
{
closed = 1;
nodes = (
(1401,-34,o),
(1656,42,o),
(1837,233,c),
(1700,413,l),
(1584,325,o),
(1462,262,o),
(1278,262,cs),
(971,262,o),
(804,455,o),
(804,788,cs),
(804,1076,o),
(962,1232,o),
(1166,1232,cs),
(1390,1232,o),
(1496,1076,o),
(1495,854,c),
(1495,816,o),
(1491,758,o),
(1482,728,c),
(1822,661,l),
(1830,726,o),
(1830,789,o),
(1830,855,cs),
(1830,1228,o),
(1598,1499,o),
(1211,1499,cs),
(808,1499,o),
(462,1168,o),
(462,711,cs),
(462,310,o),
(734,-34,o),
(1187,-34,cs)
);
},
{
closed = 1;
nodes = (
(583,919,ls),
(413,919,o),
(338,999,o),
(338,1166,cs),
(338,1261,o),
(366,1366,o),
(410,1465,c),
(135,1465,l),
(66,1341,o),
(28,1215,o),
(28,1098,cs),
(28,830,o),
(180,661,o),
(514,661,cs),
(1822,661,l),
(1612,919,l)
);
},
{
closed = 1;
nodes = (
(1320,-386,l),
(1352,70,l),
(1016,70,l),
(1047,-386,l)
);
}
);
width = 1946;
},
{
layerId = "338923BD-A73B-4463-96D5-6CCFD2C76DE7";
shapes = (
{
closed = 1;
nodes = (
(1399,-24,o),
(1624,60,o),
(1786,229,c),
(1693,348,l),
(1570,233,o),
(1421,159,o),
(1225,159,cs),
(877,159,o),
(654,400,o),
(654,765,cs),
(654,1099,o),
(858,1321,o),
(1141,1321,cs),
(1407,1321,o),
(1571,1137,o),
(1572,879,c),
(1572,854,o),
(1569,814,o),
(1564,792,c),
(1777,746,l),
(1783,794,o),
(1783,838,o),
(1783,884,cs),
(1783,1233,o),
(1539,1489,o),
(1171,1489,cs),
(765,1489,o),
(443,1161,o),
(443,721,cs),
(443,304,o),
(732,-24,o),
(1173,-24,cs)
);
},
{
closed = 1;
nodes = (
(555,909,ls),
(343,909,o),
(243,992,o),
(243,1190,cs),
(243,1280,o),
(269,1373,o),
(312,1465,c),
(139,1466,l),
(83,1359,o),
(50,1253,o),
(50,1150,cs),
(50,889,o),
(199,746,o),
(511,746,cs),
(1777,746,l),
(1654,909,l)
);
},
{
closed = 1;
nodes = (
(1254,-394,l),
(1275,45,l),
(1068,45,l),
(1087,-394,l)
);
}
);
width = 1911;
},
{
layerId = "E5A5C170-0FDF-4A9B-BA4A-24DEB95A442A";
shapes = (
{
closed = 1;
nodes = (
(1397,-17,o),
(1602,72,o),
(1752,226,c),
(1688,305,l),
(1561,172,o),
(1393,91,o),
(1189,91,cs),
(814,91,o),
(554,363,o),
(554,750,cs),
(554,1114,o),
(788,1380,o),
(1124,1380,cs),
(1418,1380,o),
(1621,1178,o),
(1624,896,c),
(1624,879,o),
(1621,852,o),
(1619,835,c),
(1747,803,l),
(1752,839,o),
(1752,870,o),
(1752,903,cs),
(1752,1237,o),
(1499,1482,o),
(1144,1482,cs),
(737,1482,o),
(431,1157,o),
(431,728,cs),
(431,300,o),
(731,-17,o),
(1164,-17,cs)
);
},
{
closed = 1;
nodes = (
(537,903,ls),
(296,903,o),
(180,987,o),
(180,1206,cs),
(180,1293,o),
(204,1378,o),
(247,1465,c),
(142,1467,l),
(94,1371,o),
(64,1278,o),
(64,1184,cs),
(64,928,o),
(212,803,o),
(509,803,cs),
(1747,803,l),
(1682,903,l)
);
},
{
closed = 1;
nodes = (
(1210,-399,l),
(1223,28,l),
(1102,28,l),
(1114,-399,l)
);
}
);
width = 1887;
}
);
unicode = 1214;
},
{
glyphname = "Chekhakassian-cy";
layers = (
{
anchors = (
{
name = top;
position = "{772, 1465}";
}
);
layerId = "48D2EA9E-46BD-4B15-B2EA-011CD0F10041";
shapes = (
{
closed = 1;
nodes = (
(1420,0,l),
(1420,1465,l),
(951,1465,l),
(951,0,l)
);
},
{
closed = 1;
nodes = (
(813,458,o),
(1024,514,o),
(1154,678,c),
(983,853,l),
(945,830,o),
(862,814,o),
(791,814,cs),
(646,814,o),
(583,900,o),
(583,1071,cs),
(583,1465,l),
(118,1465,l),
(118,895,ls),
(118,599,o),
(363,458,o),
(618,458,cs)
);
},
{
closed = 1;
nodes = (
(1116,-384,l),
(1175,303,l),
(707,303,l),
(773,-384,l)
);
},
{
closed = 1;
nodes = (
(1053,0,l),
(1053,303,l),
(707,303,l),
(918,0,l)
);
}
);
width = 1588;
},
{
anchors = (
{
name = top;
position = "{760, 1465}";
}
);
layerId = "F06CBC40-6010-41C8-A897-7AE20112A561";
shapes = (
{
closed = 1;
nodes = (
(1376,0,l),
(1376,1465,l),
(1003,1465,l),
(1003,0,l)
);
},
{
closed = 1;
nodes = (
(826,490,o),
(1044,550,o),
(1171,697,c),
(1031,836,l),
(978,799,o),
(862,773,o),
(767,773,cs),
(593,773,o),
(507,872,o),
(507,1074,cs),
(507,1465,l),
(138,1465,l),
(138,938,ls),
(138,639,o),
(363,490,o),
(632,490,cs)
);
},
{
closed = 1;
nodes = (
(1094,-398,l),
(1141,245,l),
(767,245,l),
(819,-398,l)
);
},
{
closed = 1;
nodes = (
(1093,0,l),
(1093,245,l),
(767,245,l),
(938,0,l)
);
}
);
width = 1568;
},
{
anchors = (
{
name = top;
position = "{742, 1465}";
}
);
layerId = "338923BD-A73B-4463-96D5-6CCFD2C76DE7";
shapes = (
{
closed = 1;
nodes = (
(1309,0,l),
(1309,1465,l),
(1082,1465,l),
(1082,0,l)
);
},
{
closed = 1;
nodes = (
(846,539,o),
(1075,603,o),
(1196,726,c),
(1102,811,l),
(1028,753,o),
(861,712,o),
(730,712,cs),
(513,712,o),
(394,829,o),
(394,1079,cs),
(394,1465,l),
(169,1465,l),
(169,1003,ls),
(169,700,o),
(363,539,o),
(653,539,cs)
);
},
{
closed = 1;
nodes = (
(1061,-419,l),
(1089,159,l),
(856,159,l),
(887,-419,l)
);
},
{
closed = 1;
nodes = (
(1152,0,l),
(1152,159,l),
(856,159,l),
(967,0,l)
);
}
);
width = 1538;
},
{
anchors = (
{
name = top;
position = "{730, 1465}";
}
);
layerId = "E5A5C170-0FDF-4A9B-BA4A-24DEB95A442A";
shapes = (
{
closed = 1;
nodes = (
(1265,0,l),
(1265,1465,l),
(1134,1465,l),
(1134,0,l)
);
},
{
closed = 1;
nodes = (
(859,571,o),
(1095,638,o),
(1213,745,c),
(1150,794,l),
(1061,722,o),
(861,671,o),
(706,671,cs),
(460,671,o),
(318,801,o),
(318,1082,cs),
(318,1465,l),
(189,1465,l),
(189,1046,ls),
(189,741,o),
(363,571,o),
(667,571,cs)
);
},
{
closed = 1;
nodes = (
(1039,-433,l),
(1054,102,l),
(915,102,l),
(932,-433,l)
);
},
{
closed = 1;
nodes = (
(1191,0,l),
(1191,102,l),
(915,102,l),
(986,0,l)
);
}
);
width = 1518;
}
);
unicode = 1227;
},
{
glyphname = "Cheverticalstroke-cy";
layers = (
{
anchors = (
{
name = bottomright;
position = "{1420, 0}";
},
{
name = top;
position = "{772, 1465}";
}
);
layerId = "48D2EA9E-46BD-4B15-B2EA-011CD0F10041";
shapes = (
{
closed = 1;
nodes = (
(888,164,l),
(888,1201,l),
(657,1201,l),
(657,164,l)
);
},
{
closed = 1;
nodes = (
(1420,0,l),
(1420,1465,l),
(986,1465,l),
(986,0,l)
);
},
{
closed = 1;
nodes = (
(788,477,o),
(1017,527,o),
(1154,678,c),
(1050,873,l),
(998,828,o),
(877,797,o),
(776,797,cs),
(616,797,o),
(550,866,o),
(550,1004,cs),
(550,1465,l),
(118,1465,l),
(118,895,ls),
(118,612,o),
(348,477,o),
(618,477,cs)
);
}
);
width = 1588;
},
{
anchors = (
{
name = bottomright;
position = "{1376, 0}";
},
{
name = top;
position = "{760, 1465}";
}
);
layerId = "F06CBC40-6010-41C8-A897-7AE20112A561";
shapes = (
{
closed = 1;
nodes = (
(850,180,l),
(850,1153,l),
(659,1153,l),
(659,180,l)
);
},
{
closed = 1;
nodes = (
(1376,0,l),
(1376,1465,l),
(1028,1465,l),
(1028,0,l)
);
},
{
closed = 1;
nodes = (
(808,504,o),
(1039,559,o),
(1171,697,c),
(1078,851,l),
(1016,798,o),
(873,761,o),
(756,761,cs),
(572,761,o),
(484,848,o),
(484,1026,cs),
(484,1465,l),
(138,1465,l),
(138,938,ls),
(138,649,o),
(352,504,o),
(632,504,cs)
);
}
);
width = 1568;
},
{
anchors = (
{
name = bottomright;
position = "{1309, 0}";
},
{
name = top;
position = "{742, 1465}";
}
);
layerId = "338923BD-A73B-4463-96D5-6CCFD2C76DE7";
shapes = (
{
closed = 1;
nodes = (
(792,205,l),
(792,1080,l),
(662,1080,l),
(662,205,l)
);
},
{
closed = 1;
nodes = (
(1309,0,l),
(1309,1465,l),
(1092,1465,l),
(1092,0,l)
);
},
{
closed = 1;
nodes = (
(839,544,o),
(1073,606,o),
(1196,726,c),
(1121,817,l),
(1043,752,o),
(866,707,o),
(726,707,cs),
(505,707,o),
(384,820,o),
(384,1060,cs),
(384,1465,l),
(169,1465,l),
(169,1003,ls),
(169,704,o),
(359,544,o),
(653,544,cs)
);
}
);
width = 1538;
},
{
anchors = (
{
name = bottomright;
position = "{1265, 0}";
},
{
name = top;
position = "{730, 1465}";
}
);
layerId = "E5A5C170-0FDF-4A9B-BA4A-24DEB95A442A";
shapes = (
{
closed = 1;
nodes = (
(754,222,l),
(754,1032,l),
(664,1032,l),
(664,222,l)
);
},
{
closed = 1;
nodes = (
(1265,0,l),
(1265,1465,l),
(1134,1465,l),
(1134,0,l)
);
},
{
closed = 1;
nodes = (
(859,571,o),
(1095,638,o),
(1213,745,c),
(1150,794,l),
(1061,722,o),
(861,671,o),
(706,671,cs),
(460,671,o),
(318,801,o),
(318,1082,cs),
(318,1465,l),
(189,1465,l),
(189,1046,ls),
(189,741,o),
(363,571,o),
(667,571,cs)
);
}
);
width = 1518;
}
);
rightKerningGroup = "I-cy1";
unicode = 1208;
},
{
glyphname = D;
layers = (
{
background = {
shapes = (
{
closed = 1;
nodes = (
(188,-6,o),
(319,-9,o),
(351,-9,cs),
(640,-9,o),
(768,188,o),
(768,395,cs),
(768,620,o),
(621,756,o),
(358,756,cs),
(309,756,o),
(199,752,o),
(105,742,c),
(109,618,o),
(111,477,o),
(111,365,cs),
(111,251,o),
(109,122,o),
(105,0,c)
);
},
{
closed = 1;
nodes = (
(214,170,o),
(213,278,o),
(213,373,cs),
(213,468,o),
(214,575,o),
(219,677,c),
(259,681,o),
(319,682,o),
(339,682,cs),
(537,682,o),
(652,564,o),
(652,377,cs),
(652,209,o),
(566,64,o),
(368,64,cs),
(341,64,o),
(285,66,o),
(219,75,c)
);
}
);
};
layerId = "48D2EA9E-46BD-4B15-B2EA-011CD0F10041";
shapes = (
{
closed = 1;
nodes = (
(160,0,l),
(731,-1,ls),
(1369,-2,o),
(1581,416,o),
(1581,784,cs),
(1581,1211,o),
(1296,1465,o),
(782,1465,cs),
(160,1465,l)
);
},
{
closed = 1;
nodes = (
(611,1208,l),
(755,1208,ls),
(987,1208,o),
(1117,1076,o),
(1117,756,cs),
(1117,464,o),
(1010,257,o),
(771,257,cs),
(611,257,l)
);
}
);
width = 1671;
},
{
layerId = "F06CBC40-6010-41C8-A897-7AE20112A561";
shapes = (
{
closed = 1;
nodes = (
(183,0,l),
(709,-1,ls),
(1318,-2,o),
(1547,412,o),
(1547,781,cs),
(1547,1195,o),
(1276,1465,o),
(755,1465,cs),
(183,1465,l)
);
},
{
closed = 1;
nodes = (
(535,1248,l),
(726,1248,ls),
(1019,1248,o),
(1185,1086,o),
(1185,754,cs),
(1185,449,o),
(1044,217,o),
(745,217,cs),
(535,217,l)
);
}
);
width = 1660;
},
{
layerId = "338923BD-A73B-4463-96D5-6CCFD2C76DE7";
shapes = (
{
closed = 1;
nodes = (
(217,0,l),
(675,0,l),
(1242,-1,o),
(1496,407,o),
(1496,776,cs),
(1496,1172,o),
(1245,1465,o),
(715,1465,cs),
(217,1465,l)
);
},
{
closed = 1;
nodes = (
(421,1308,l),
(683,1308,ls),
(1068,1308,o),
(1286,1100,o),
(1286,752,cs),
(1286,427,o),
(1096,157,o),
(705,157,cs),
(421,157,l)
);
}
);
width = 1643;
},
{
layerId = "E5A5C170-0FDF-4A9B-BA4A-24DEB95A442A";
shapes = (
{
closed = 1;
nodes = (
(240,0,l),
(652,0,ls),
(1191,0,o),
(1462,403,o),
(1462,773,cs),
(1462,1156,o),
(1224,1465,o),
(688,1465,cs),
(240,1465,l)
);
},
{
closed = 1;
nodes = (
(345,1348,l),
(654,1348,ls),
(1100,1348,o),
(1353,1110,o),
(1353,750,cs),
(1353,412,o),
(1130,117,o),
(679,117,cs),
(345,117,l)
);
}
);
width = 1632;
}
);
rightKerningGroup = _D_Left;
unicode = 68;
},
{
glyphname = Dcroat;
layers = (
{
layerId = "48D2EA9E-46BD-4B15-B2EA-011CD0F10041";
shapes = (
{
closed = 1;
nodes = (
(42,874,l),
(42,593,l),
(183,593,l),
(183,0,l),
(754,-1,ls),
(1392,-2,o),
(1604,416,o),
(1604,784,cs),
(1604,1211,o),
(1319,1465,o),
(805,1465,cs),
(183,1465,l),
(183,874,l)
);
},
{
closed = 1;
nodes = (
(634,1208,l),
(778,1208,ls),
(1010,1208,o),
(1140,1076,o),
(1140,756,cs),
(1140,464,o),
(1033,257,o),
(794,257,cs),
(634,257,l),
(634,593,l),
(897,593,l),
(897,874,l),
(634,874,l)
);
}
);
width = 1694;
},
{
layerId = "F06CBC40-6010-41C8-A897-7AE20112A561";
shapes = (
{
closed = 1;
nodes = (
(37,845,l),
(37,621,l),
(198,621,l),
(198,0,l),
(724,-1,ls),
(1333,-2,o),
(1562,412,o),
(1562,781,cs),
(1562,1200,o),
(1294,1465,o),
(770,1465,cs),
(198,1465,l),
(198,845,l)
);
},
{
closed = 1;
nodes = (
(550,1248,l),
(741,1248,ls),
(1034,1248,o),
(1200,1086,o),
(1200,754,cs),
(1200,449,o),
(1059,217,o),
(760,217,cs),
(550,217,l),
(550,621,l),
(860,621,l),
(860,845,l),
(550,845,l)
);
}
);
width = 1675;
},
{
layerId = "338923BD-A73B-4463-96D5-6CCFD2C76DE7";
shapes = (
{
closed = 1;
nodes = (
(30,802,l),
(30,664,l),
(220,664,l),
(220,0,l),
(678,0,l),
(1245,-1,o),
(1499,407,o),
(1499,776,cs),
(1499,1183,o),
(1256,1465,o),
(718,1465,cs),
(220,1465,l),
(220,802,l)
);
},
{
closed = 1;
nodes = (
(424,1308,l),
(686,1308,ls),
(1071,1308,o),
(1289,1100,o),
(1289,752,cs),
(1289,427,o),
(1099,157,o),
(708,157,cs),
(424,157,l),
(424,664,l),
(805,664,l),
(805,802,l),
(424,802,l)
);
}
);
width = 1646;
},
{
layerId = "E5A5C170-0FDF-4A9B-BA4A-24DEB95A442A";
shapes = (
{
closed = 1;
nodes = (
(25,773,l),
(25,692,l),
(235,692,l),
(235,0,l),
(647,0,ls),
(1186,0,o),
(1457,403,o),
(1457,773,cs),
(1457,1172,o),
(1231,1465,o),
(683,1465,cs),
(235,1465,l),
(235,773,l)
);
},
{
closed = 1;
nodes = (
(340,1348,l),
(649,1348,ls),
(1095,1348,o),
(1348,1110,o),
(1348,750,cs),
(1348,412,o),
(1126,117,o),
(674,117,cs),
(340,117,l),
(340,692,l),
(768,692,l),
(768,773,l),
(340,773,l)
);
}
);
width = 1627;
}
);
rightKerningGroup = _D_Left;
unicode = 272;
},
{
glyphname = "De-cy";
layers = (
{
layerId = "48D2EA9E-46BD-4B15-B2EA-011CD0F10041";
shapes = (
{
closed = 1;
nodes = (
(555,205,l),
(742,709,o),
(771,1136,o),
(794,1480,c),
(409,1480,l),
(388,1125,o),
(356,706,o),
(176,203,c)
);
},
{
closed = 1;
nodes = (
(415,-378,l),
(415,363,l),
(6,363,l),
(81,-378,l)
);
},
{
closed = 1;
nodes = (
(1433,0,l),
(1687,363,l),
(173,363,l),
(163,0,l)
);
},
{
closed = 1;
nodes = (
(1696,-378,l),
(1695,363,l),
(1286,363,l),
(1358,-378,l)
);
},
{
closed = 1;
nodes = (
(1460,0,l),
(1460,1480,l),
(1019,1480,l),
(1019,0,l)
);
},
{
closed = 1;
nodes = (
(1223,1138,l),
(1223,1480,l),
(641,1480,l),
(641,1138,l)
);
}
);
width = 1690;
},
{
layerId = "F06CBC40-6010-41C8-A897-7AE20112A561";
shapes = (
{
closed = 1;
nodes = (
(495,147,l),
(672,596,o),
(714,1034,o),
(744,1450,c),
(437,1450,l),
(410,1026,o),
(364,594,o),
(190,145,c)
);
},
{
closed = 1;
nodes = (
(355,-374,l),
(355,287,l),
(28,287,l),
(89,-374,l)
);
},
{
closed = 1;
nodes = (
(1429,0,l),
(1621,287,l),
(157,287,l),
(151,0,l)
);
},
{
closed = 1;
nodes = (
(1627,-374,l),
(1627,287,l),
(1300,287,l),
(1358,-374,l)
);
},
{
closed = 1;
nodes = (
(1405,0,l),
(1405,1450,l),
(1055,1450,l),
(1055,0,l)
);
},
{
closed = 1;
nodes = (
(1219,1178,l),
(1219,1450,l),
(619,1450,l),
(619,1178,l)
);
}
);
width = 1652;
},
{
layerId = "338923BD-A73B-4463-96D5-6CCFD2C76DE7";
shapes = (
{
closed = 1;
nodes = (
(404,59,l),
(566,426,o),
(629,880,o),
(668,1406,c),
(480,1406,l),
(442,877,o),
(376,425,o),
(211,58,c)
);
},
{
closed = 1;
nodes = (
(264,-369,l),
(264,172,l),
(60,172,l),
(100,-369,l)
);
},
{
closed = 1;
nodes = (
(1422,0,l),
(1521,172,l),
(132,172,l),
(134,0,l)
);
},
{
closed = 1;
nodes = (
(1523,-369,l),
(1524,172,l),
(1321,172,l),
(1359,-369,l)
);
},
{
closed = 1;
nodes = (
(1323,0,l),
(1323,1406,l),
(1109,1406,l),
(1109,0,l)
);
},
{
closed = 1;
nodes = (
(1214,1237,l),
(1214,1406,l),
(587,1406,l),
(587,1237,l)
);
}
);
width = 1595;
},
{
layerId = "E5A5C170-0FDF-4A9B-BA4A-24DEB95A442A";
shapes = (
{
closed = 1;
nodes = (
(343,0,l),
(495,313,o),
(572,778,o),
(618,1376,c),
(508,1376,l),
(464,778,o),
(384,312,o),
(225,0,c)
);
},
{
closed = 1;
nodes = (
(203,-365,l),
(203,96,l),
(81,96,l),
(108,-365,l)
);
},
{
closed = 1;
nodes = (
(1418,0,l),
(1454,96,l),
(115,96,l),
(122,0,l)
);
},
{
closed = 1;
nodes = (
(1454,-365,l),
(1456,96,l),
(1335,96,l),
(1360,-365,l)
);
},
{
closed = 1;
nodes = (
(1268,0,l),
(1268,1376,l),
(1145,1376,l),
(1145,0,l)
);
},
{
closed = 1;
nodes = (
(1210,1277,l),
(1210,1376,l),
(565,1376,l),
(565,1277,l)
);
}
);
width = 1557;
}
);
unicode = 1044;
},
{
glyphname = "De-cy.loclBGR";
layers = (
{
layerId = "48D2EA9E-46BD-4B15-B2EA-011CD0F10041";
shapes = (
{
closed = 1;
nodes = (
(470,0,l),
(906,1314,l),
(751,1314,l),
(1186,0,l),
(1651,0,l),
(1148,1465,l),
(601,1465,l),
(93,0,l)
);
},
{
closed = 1;
nodes = (
(398,-374,l),
(466,362,l),
(30,362,l),
(84,-374,l)
);
},
{
closed = 1;
nodes = (
(1506,0,l),
(1704,362,l),
(30,362,l),
(144,0,l)
);
},
{
closed = 1;
nodes = (
(1652,-374,l),
(1704,362,l),
(1275,362,l),
(1344,-374,l)
);
}
);
width = 1735;
},
{
layerId = "F06CBC40-6010-41C8-A897-7AE20112A561";
shapes = (
{
closed = 1;
nodes = (
(434,0,l),
(900,1336,l),
(775,1336,l),
(1244,0,l),
(1615,0,l),
(1086,1465,l),
(659,1465,l),
(129,0,l)
);
},
{
closed = 1;
nodes = (
(338,-378,l),
(392,288,l),
(46,288,l),
(86,-378,l)
);
},
{
closed = 1;
nodes = (
(1534,0,l),
(1690,288,l),
(46,288,l),
(136,0,l)
);
},
{
closed = 1;
nodes = (
(1651,-378,l),
(1690,288,l),
(1347,288,l),
(1404,-378,l)
);
}
);
width = 1741;
},
{
layerId = "338923BD-A73B-4463-96D5-6CCFD2C76DE7";
shapes = (
{
closed = 1;
nodes = (
(379,0,l),
(890,1369,l),
(812,1369,l),
(1330,0,l),
(1560,0,l),
(994,1465,l),
(747,1465,l),
(183,0,l)
);
},
{
closed = 1;
nodes = (
(247,-385,l),
(282,176,l),
(69,176,l),
(88,-385,l)
);
},
{
closed = 1;
nodes = (
(1575,0,l),
(1668,176,l),
(69,176,l),
(125,0,l)
);
},
{
closed = 1;
nodes = (
(1650,-385,l),
(1668,176,l),
(1456,176,l),
(1493,-385,l)
);
}
);
width = 1749;
},
{
layerId = "E5A5C170-0FDF-4A9B-BA4A-24DEB95A442A";
shapes = (
{
closed = 1;
nodes = (
(342,0,l),
(883,1391,l),
(837,1391,l),
(1388,0,l),
(1523,0,l),
(932,1465,l),
(805,1465,l),
(219,0,l)
);
},
{
closed = 1;
nodes = (
(187,-389,l),
(209,102,l),
(84,102,l),
(89,-389,l)
);
},
{
closed = 1;
nodes = (
(1602,0,l),
(1653,102,l),
(84,102,l),
(118,0,l)
);
},
{
closed = 1;
nodes = (
(1649,-389,l),
(1653,102,l),
(1529,102,l),
(1553,-389,l)
);
}
);
width = 1755;
}
);
},
{
glyphname = Delta;
layers = (
{
layerId = "48D2EA9E-46BD-4B15-B2EA-011CD0F10041";
shapes = (
{
closed = 1;
nodes = (
(1247,0,l),
(1127,326,l),
(322,326,l),
(224,0,l)
);
},
{
closed = 1;
nodes = (
(1458,238,l),
(1000,1465,l),
(516,1465,l),
(79,238,l),
(79,0,l),
(395,0,l),
(761,1213,l),
(675,1213,l),
(1025,0,l),
(1458,0,l)
);
}
);
width = 1529;
},
{
layerId = "F06CBC40-6010-41C8-A897-7AE20112A561";
shapes = (
{
closed = 1;
nodes = (
(1273,0,l),
(1187,262,l),
(274,262,l),
(204,0,l)
);
},
{
closed = 1;
nodes = (
(1436,190,l),
(946,1465,l),
(567,1465,l),
(91,190,l),
(91,0,l),
(343,0,l),
(765,1264,l),
(687,1264,l),
(1093,0,l),
(1436,0,l)
);
}
);
width = 1521;
},
{
layerId = "338923BD-A73B-4463-96D5-6CCFD2C76DE7";
shapes = (
{
closed = 1;
nodes = (
(1311,0,l),
(1276,167,l),
(201,167,l),
(173,0,l)
);
},
{
closed = 1;
nodes = (
(1402,117,l),
(864,1465,l),
(643,1465,l),
(109,117,l),
(109,0,l),
(266,0,l),
(771,1340,l),
(706,1340,l),
(1196,0,l),
(1402,0,l)
);
}
);
width = 1508;
},
{
layerId = "E5A5C170-0FDF-4A9B-BA4A-24DEB95A442A";
shapes = (
{
closed = 1;
nodes = (
(1336,0,l),
(1336,104,l),
(153,104,l),
(153,0,l)
);
},
{
closed = 1;
nodes = (
(1380,68,l),
(810,1465,l),
(694,1465,l),
(121,68,l),
(121,0,l),
(214,0,l),
(775,1391,l),
(719,1391,l),
(1264,0,l),
(1380,0,l)
);
}
);
width = 1500;
}
);
unicode = 916;
},
{
glyphname = "Dje-cy";
layers = (
{
layerId = "48D2EA9E-46BD-4B15-B2EA-011CD0F10041";
shapes = (
{
closed = 1;
nodes = (
(1351,-436,l),
(1664,-160,o),
(1753,121,o),
(1753,383,cs),
(1753,766,o),
(1532,941,o),
(1245,941,cs),
(1044,941,o),
(815,834,o),
(671,618,c),
(825,487,l),
(868,555,o),
(958,603,o),
(1049,603,cs),
(1199,603,o),
(1261,505,o),
(1261,296,cs),
(1261,103,o),
(1223,-113,o),
(1093,-291,c)
);
},
{
closed = 1;
nodes = (
(873,0,l),
(873,1465,l),
(401,1465,l),
(401,0,l)
);
},
{
closed = 1;
nodes = (
(1391,1126,l),
(1391,1465,l),
(64,1465,l),
(64,1126,l)
);
}
);
width = 1788;
},
{
layerId = "F06CBC40-6010-41C8-A897-7AE20112A561";
shapes = (
{
closed = 1;
nodes = (
(1299,-432,l),
(1594,-165,o),
(1687,135,o),
(1687,399,cs),
(1687,772,o),
(1480,938,o),
(1197,938,cs),
(986,938,o),
(765,836,o),
(623,624,c),
(751,511,l),
(810,613,o),
(929,666,o),
(1043,666,cs),
(1215,666,o),
(1295,559,o),
(1295,328,cs),
(1295,119,o),
(1243,-124,o),
(1096,-315,c)
);
},
{
closed = 1;
nodes = (
(797,0,l),
(797,1465,l),
(421,1465,l),
(421,0,l)
);
},
{
closed = 1;
nodes = (
(1364,1194,l),
(1364,1465,l),
(72,1465,l),
(72,1194,l)
);
}
);
width = 1761;
},
{
layerId = "338923BD-A73B-4463-96D5-6CCFD2C76DE7";
shapes = (
{
closed = 1;
nodes = (
(1222,-425,l),
(1488,-173,o),
(1587,155,o),
(1587,422,cs),
(1587,780,o),
(1402,933,o),
(1124,933,cs),
(899,933,o),
(689,838,o),
(550,632,c),
(641,546,l),
(722,699,o),
(885,761,o),
(1033,761,cs),
(1240,761,o),
(1347,641,o),
(1347,377,cs),
(1347,143,o),
(1274,-140,o),
(1101,-352,c)
);
},
{
closed = 1;
nodes = (
(682,0,l),
(682,1465,l),
(452,1465,l),
(452,0,l)
);
},
{
closed = 1;
nodes = (
(1324,1295,l),
(1324,1465,l),
(83,1465,l),
(83,1295,l)
);
}
);
width = 1721;
},
{
layerId = "E5A5C170-0FDF-4A9B-BA4A-24DEB95A442A";
shapes = (
{
closed = 1;
nodes = (
(1170,-421,l),
(1418,-178,o),
(1521,168,o),
(1521,438,cs),
(1521,786,o),
(1350,930,o),
(1075,930,cs),
(841,930,o),
(638,839,o),
(501,637,c),
(568,569,l),
(664,756,o),
(856,824,o),
(1026,824,cs),
(1257,824,o),
(1381,696,o),
(1381,409,cs),
(1381,159,o),
(1295,-151,o),
(1104,-376,c)
);
},
{
closed = 1;
nodes = (
(605,0,l),
(605,1465,l),
(472,1465,l),
(472,0,l)
);
},
{
closed = 1;
nodes = (
(1297,1363,l),
(1297,1465,l),
(91,1465,l),
(91,1363,l)
);
}
);
width = 1694;
}
);
unicode = 1026;
},
{
glyphname = "Dzeabkhasian-cy";
layers = (
{
layerId = "48D2EA9E-46BD-4B15-B2EA-011CD0F10041";
shapes = (
{
closed = 1;
nodes = (
(972,-41,o),
(1215,190,o),
(1215,477,cs),
(1215,740,o),
(1001,870,o),
(711,895,c),
(606,713,l),
(1153,1153,l),
(1157,1465,l),
(80,1465,l),
(80,1116,l),
(1036,1133,l),
(948,1328,l),
(290,818,l),
(393,599,l),
(706,633,o),
(817,506,o),
(817,405,cs),
(817,323,o),
(764,279,o),
(665,279,cs),
(554,279,o),
(467,332,o),
(375,449,c),
(26,287,l),
(105,100,o),
(312,-41,o),
(603,-41,cs)
);
}
);
width = 1277;
},
{
layerId = "F06CBC40-6010-41C8-A897-7AE20112A561";
shapes = (
{
closed = 1;
nodes = (
(956,-35,o),
(1207,172,o),
(1207,467,cs),
(1207,730,o),
(998,880,o),
(648,886,c),
(578,735,l),
(1152,1218,l),
(1155,1465,l),
(94,1465,l),
(94,1186,l),
(1056,1199,l),
(980,1356,l),
(324,822,l),
(405,647,l),
(768,683,o),
(886,540,o),
(886,409,cs),
(886,282,o),
(794,223,o),
(662,223,cs),
(525,223,o),
(415,286,o),
(328,423,c),
(45,295,l),
(121,100,o),
(330,-35,o),
(611,-35,cs)
);
}
);
width = 1279;
},
{
layerId = "338923BD-A73B-4463-96D5-6CCFD2C76DE7";
shapes = (
{
closed = 1;
nodes = (
(933,-25,o),
(1194,146,o),
(1194,451,cs),
(1194,716,o),
(993,896,o),
(553,872,c),
(537,769,l),
(1151,1316,l),
(1151,1464,l),
(116,1464,l),
(116,1290,l),
(1085,1298,l),
(1027,1397,l),
(374,829,l),
(422,720,l),
(861,757,o),
(990,590,o),
(990,416,cs),
(990,221,o),
(838,138,o),
(657,138,cs),
(481,138,o),
(337,218,o),
(258,385,c),
(74,308,l),
(144,100,o),
(358,-25,o),
(624,-25,cs)
);
}
);
width = 1281;
},
{
layerId = "E5A5C170-0FDF-4A9B-BA4A-24DEB95A442A";
shapes = (
{
closed = 1;
nodes = (
(918,-18,o),
(1186,129,o),
(1186,441,cs),
(1186,706,o),
(990,906,o),
(490,863,c),
(509,792,l),
(1150,1381,l),
(1148,1464,l),
(131,1464,l),
(131,1359,l),
(1105,1364,l),
(1059,1424,l),
(407,834,l),
(434,768,l),
(923,807,o),
(1059,623,o),
(1059,421,cs),
(1059,180,o),
(868,82,o),
(654,82,cs),
(452,82,o),
(285,172,o),
(211,360,c),
(93,316,l),
(160,100,o),
(376,-18,o),
(632,-18,cs)
);
}
);
width = 1282;
}
);
unicode = 1248;
},
{
glyphname = "Dzhe-cy";
layers = (
{
anchors = (
{
name = bottomright;
position = "{1534, 0}";
}
);
layerId = "48D2EA9E-46BD-4B15-B2EA-011CD0F10041";
shapes = (
{
closed = 1;
nodes = (
(1534,0,l),
(1534,1465,l),
(1066,1465,l),
(1066,0,l)
);
},
{
closed = 1;
nodes = (
(1385,0,l),
(1385,360,l),
(320,360,l),
(320,0,l)
);
},
{
closed = 1;
nodes = (
(637,0,l),
(637,1465,l),
(169,1465,l),
(169,0,l)
);
},
{
closed = 1;
nodes = (
(1030,-380,l),
(1068,87,l),
(648,87,l),
(686,-380,l)
);
}
);
width = 1705;
},
{
anchors = (
{
name = bottomright;
position = "{1498, 0}";
}
);
layerId = "F06CBC40-6010-41C8-A897-7AE20112A561";
shapes = (
{
closed = 1;
nodes = (
(1498,0,l),
(1498,1465,l),
(1128,1465,l),
(1128,0,l)
);
},
{
closed = 1;
nodes = (
(1379,0,l),
(1379,287,l),
(312,287,l),
(312,0,l)
);
},
{
closed = 1;
nodes = (
(565,0,l),
(565,1465,l),
(193,1465,l),
(193,0,l)
);
},
{
closed = 1;
nodes = (
(983,-386,l),
(1014,70,l),
(679,70,l),
(710,-386,l)
);
}
);
width = 1693;
},
{
anchors = (
{
name = bottomright;
position = "{1445, 0}";
}
);
layerId = "338923BD-A73B-4463-96D5-6CCFD2C76DE7";
shapes = (
{
closed = 1;
nodes = (
(1445,0,l),
(1445,1465,l),
(1220,1465,l),
(1220,0,l)
);
},
{
closed = 1;
nodes = (
(1371,0,l),
(1371,177,l),
(301,177,l),
(301,0,l)
);
},
{
closed = 1;
nodes = (
(456,0,l),
(456,1465,l),
(228,1465,l),
(228,0,l)
);
},
{
closed = 1;
nodes = (
(913,-394,l),
(933,45,l),
(725,45,l),
(747,-394,l)
);
}
);
width = 1676;
},
{
anchors = (
{
name = bottomright;
position = "{1410, 0}";
}
);
layerId = "E5A5C170-0FDF-4A9B-BA4A-24DEB95A442A";
shapes = (
{
closed = 1;
nodes = (
(1410,0,l),
(1410,1465,l),
(1282,1465,l),
(1282,0,l)
);
},
{
closed = 1;
nodes = (
(1365,0,l),
(1365,104,l),
(293,104,l),
(293,0,l)
);
},
{
closed = 1;
nodes = (
(383,0,l),
(383,1465,l),
(251,1465,l),
(251,0,l)
);
},
{
closed = 1;
nodes = (
(866,-399,l),
(879,28,l),
(756,28,l),
(771,-399,l)
);
}
);
width = 1664;
}
);
unicode = 1039;
},
{
glyphname = E;
layers = (
{
background = {
shapes = (
{
closed = 1;
nodes = (
(543,0,l),
(554,80,l),
(439,69,o),
(325,67,o),
(209,67,c),
(209,348,l),
(481,348,l),
(494,415,l),
(209,415,l),
(209,672,l),
(316,672,o),
(422,671,o),
(529,660,c),
(544,740,l),
(110,740,l),
(110,0,l)
);
}
);
};
layerId = "48D2EA9E-46BD-4B15-B2EA-011CD0F10041";
shapes = (
{
closed = 1;
nodes = (
(1137,0,l),
(1182,257,l),
(611,257,l),
(611,636,l),
(1019,636,l),
(1057,869,l),
(611,869,l),
(611,1208,l),
(1132,1208,l),
(1177,1465,l),
(160,1465,l),
(160,0,l)
);
}
);
width = 1299;
},
{
layerId = "F06CBC40-6010-41C8-A897-7AE20112A561";
shapes = (
{
closed = 1;
nodes = (
(1109,0,l),
(1149,217,l),
(535,217,l),
(535,656,l),
(993,656,l),
(1027,855,l),
(535,855,l),
(535,1248,l),
(1100,1248,l),
(1139,1465,l),
(183,1465,l),
(183,0,l)
);
}
);
width = 1271;
},
{
layerId = "338923BD-A73B-4463-96D5-6CCFD2C76DE7";
shapes = (
{
closed = 1;
nodes = (
(1068,0,l),
(1099,157,l),
(421,157,l),
(421,685,l),
(953,685,l),
(983,835,l),
(421,835,l),
(421,1308,l),
(1052,1308,l),
(1082,1465,l),
(217,1465,l),
(217,0,l)
);
}
);
width = 1228;
},
{
layerId = "E5A5C170-0FDF-4A9B-BA4A-24DEB95A442A";
shapes = (
{
closed = 1;
nodes = (
(1041,0,l),
(1066,117,l),
(345,117,l),
(345,705,l),
(926,705,l),
(954,822,l),
(345,822,l),
(345,1348,l),
(1020,1348,l),
(1044,1465,l),
(240,1465,l),
(240,0,l)
);
}
);
width = 1200;
}
);
rightKerningGroup = _E_Left;
unicode = 69;
},
{
glyphname = "E-cy";
layers = (
{
anchors = (
{
name = bottom;
position = "{869, 0}";
},
{
name = top;
position = "{920, 1465}";
}
);
layerId = "48D2EA9E-46BD-4B15-B2EA-011CD0F10041";
shapes = (
{
closed = 1;
nodes = (
(1060,-41,o),
(1269,1,o),
(1427,102,c),
(1283,410,l),
(1222,343,o),
(1124,275,o),
(983,275,cs),
(759,275,o),
(600,442,o),
(600,762,cs),
(600,1063,o),
(727,1192,o),
(920,1192,cs),
(1037,1192,o),
(1150,1136,o),
(1259,1046,c),
(1414,1388,l),
(1268,1473,o),
(1078,1505,o),
(927,1505,cs),
(426,1505,o),
(102,1198,o),
(102,700,cs),
(102,246,o),
(373,-41,o),
(872,-41,cs)
);
},
{
closed = 1;
nodes = (
(1131,915,l),
(472,872,l),
(444,604,l),
(1098,573,l)
);
}
);
width = 1480;
},
{
anchors = (
{
name = bottom;
position = "{869, 0}";
},
{
name = top;
position = "{906, 1465}";
}
);
layerId = "F06CBC40-6010-41C8-A897-7AE20112A561";
shapes = (
{
closed = 1;
nodes = (
(1059,-34,o),
(1254,11,o),
(1409,114,c),
(1290,364,l),
(1212,285,o),
(1102,219,o),
(953,219,cs),
(693,219,o),
(504,412,o),
(504,756,cs),
(504,1080,o),
(661,1246,o),
(902,1246,cs),
(1031,1246,o),
(1148,1192,o),
(1261,1100,c),
(1390,1376,l),
(1248,1461,o),
(1071,1499,o),
(914,1499,cs),
(432,1499,o),
(110,1191,o),
(110,706,cs),
(110,256,o),
(389,-34,o),
(870,-34,cs)
);
},
{
closed = 1;
nodes = (
(1103,881,l),
(400,848,l),
(378,630,l),
(1078,607,l)
);
}
);
width = 1476;
},
{
anchors = (
{
name = bottom;
position = "{869, 0}";
},
{
name = top;
position = "{886, 1465}";
}
);
layerId = "338923BD-A73B-4463-96D5-6CCFD2C76DE7";
shapes = (
{
closed = 1;
nodes = (
(1058,-24,o),
(1232,27,o),
(1381,133,c),
(1300,294,l),
(1198,198,o),
(1068,135,o),
(907,135,cs),
(593,135,o),
(361,368,o),
(361,746,cs),
(361,1105,o),
(562,1328,o),
(874,1328,cs),
(1021,1328,o),
(1144,1275,o),
(1265,1181,c),
(1353,1359,l),
(1217,1444,o),
(1061,1489,o),
(894,1489,cs),
(442,1489,o),
(121,1181,o),
(121,714,cs),
(121,270,o),
(413,-24,o),
(868,-24,cs)
);
},
{
closed = 1;
nodes = (
(1061,831,l),
(293,813,l),
(280,670,l),
(1048,657,l)
);
}
);
width = 1469;
},
{
anchors = (
{
name = bottom;
position = "{869, 0}";
},
{
name = top;
position = "{872, 1465}";
}
);
layerId = "E5A5C170-0FDF-4A9B-BA4A-24DEB95A442A";
shapes = (
{
closed = 1;
nodes = (
(1057,-17,o),
(1217,37,o),
(1363,145,c),
(1307,247,l),
(1189,140,o),
(1046,79,o),
(876,79,cs),
(526,79,o),
(266,339,o),
(266,739,cs),
(266,1122,o),
(496,1383,o),
(856,1383,cs),
(1014,1383,o),
(1142,1331,o),
(1267,1235,c),
(1329,1348,l),
(1197,1433,o),
(1054,1482,o),
(881,1482,cs),
(448,1482,o),
(129,1174,o),
(129,719,cs),
(129,279,o),
(429,-17,o),
(866,-17,cs)
);
},
{
closed = 1;
nodes = (
(1033,798,l),
(221,790,l),
(215,696,l),
(1028,690,l)
);
}
);
width = 1465;
}
);
unicode = 1028;
},
{
color = 9;
glyphname = Ecircumflexdotbelow;
layers = (
{
anchors = (
{
name = bottom;
position = "{718, -597}";
},
{
name = ogonek;
position = "{1242, 0}";
},
{
name = top;
position = "{714, 2070}";
},
{
name = topleft;
position = "{151, 1465}";
}
);
layerId = "48D2EA9E-46BD-4B15-B2EA-011CD0F10041";
shapes = (
{
closed = 1;
nodes = (
(858,-587,o),
(949,-502,o),
(949,-366,cs),
(949,-231,o),
(858,-143,o),
(718,-143,cs),
(578,-143,o),
(487,-231,o),
(487,-366,cs),
(487,-502,o),
(578,-587,o),
(718,-587,cs)
);
},
{
alignment = -1;
ref = Ecircumflex;
}
);
width = 1322;
},
{
anchors = (
{
name = bottom;
position = "{713, -547}";
},
{
name = ogonek;
position = "{1220, 0}";
},
{
name = top;
position = "{710, 2056}";
},
{
name = topleft;
position = "{146, 1465}";
}
);
layerId = "F06CBC40-6010-41C8-A897-7AE20112A561";
shapes = (
{
closed = 1;
nodes = (
(828,-539,o),
(903,-468,o),
(903,-357,cs),
(903,-245,o),
(828,-173,o),
(713,-173,cs),
(598,-173,o),
(523,-245,o),
(523,-357,cs),
(523,-468,o),
(598,-539,o),
(713,-539,cs)
);
},
{
alignment = -1;
ref = Ecircumflex;
}
);
width = 1312;
},
{
anchors = (
{
name = bottom;
position = "{706, -473}";
},
{
name = ogonek;
position = "{1186, 0}";
},
{
name = top;
position = "{705, 2034}";
},
{
name = topleft;
position = "{139, 1465}";
}
);
layerId = "338923BD-A73B-4463-96D5-6CCFD2C76DE7";
shapes = (
{
closed = 1;
nodes = (
(782,-468,o),
(835,-418,o),
(835,-343,cs),
(835,-266,o),
(782,-217,o),
(706,-217,cs),
(628,-217,o),
(576,-266,o),
(576,-343,cs),
(576,-418,o),
(628,-468,o),
(706,-468,cs)
);
},
{
alignment = -1;
ref = Ecircumflex;
}
);
width = 1298;
},
{
anchors = (
{
name = bottom;
position = "{701, -423}";
},
{
name = ogonek;
position = "{1164, 0}";
},
{
name = top;
position = "{701, 2019}";
},
{
name = topleft;
position = "{134, 1465}";
}
);
layerId = "E5A5C170-0FDF-4A9B-BA4A-24DEB95A442A";
shapes = (
{
closed = 1;
nodes = (
(752,-421,o),
(790,-385,o),
(790,-334,cs),
(790,-280,o),
(752,-247,o),
(701,-247,cs),
(648,-247,o),
(612,-280,o),
(612,-334,cs),
(612,-385,o),
(648,-421,o),
(701,-421,cs)
);
},
{
alignment = -1;
ref = Ecircumflex;
}
);
width = 1289;
}
);
unicode = 7878;
},
{
color = 9;
glyphname = Ecircumflexhookabove;
layers = (
{
anchors = (
{
name = bottom;
position = "{718, 0}";
},
{
name = ogonek;
position = "{1242, 0}";
},
{
name = topleft;
position = "{151, 1465}";
}
);
layerId = "48D2EA9E-46BD-4B15-B2EA-011CD0F10041";
shapes = (
{
closed = 1;
nodes = (
(1242,329,l),
(634,329,l),
(634,1135,l),
(1188,1135,l),
(1188,1465,l),
(168,1465,l),
(168,0,l),
(1242,0,l)
);
},
{
closed = 1;
nodes = (
(1095,588,l),
(1095,894,l),
(317,894,l),
(317,588,l)
);
},
{
closed = 1;
nodes = (
(1146,1573,l),
(874,1987,l),
(552,1987,l),
(634,1813,l),
(878,1573,l)
);
},
{
closed = 1;
nodes = (
(551,1573,l),
(794,1812,l),
(874,1987,l),
(552,1987,l),
(280,1573,l)
);
},
{
closed = 1;
nodes = (
(1280,1804,l),
(1297,1956,l),
(1196,1879,l),
(1343,1879,o),
(1423,1950,o),
(1423,2047,cs),
(1423,2155,o),
(1332,2245,o),
(1201,2245,cs),
(1134,2245,o),
(1043,2221,o),
(953,2148,c),
(1007,2035,l),
(1032,2053,o),
(1073,2065,o),
(1105,2065,cs),
(1137,2065,o),
(1164,2050,o),
(1164,2018,cs),
(1164,1977,o),
(1109,1963,o),
(1061,1955,c),
(1077,1804,l)
);
}
);
width = 1322;
},
{
anchors = (
{
name = bottom;
position = "{713, 0}";
},
{
name = ogonek;
position = "{1220, 0}";
},
{
name = topleft;
position = "{146, 1465}";
}
);
layerId = "F06CBC40-6010-41C8-A897-7AE20112A561";
shapes = (
{
closed = 1;
nodes = (
(1220,263,l),
(560,263,l),
(560,1201,l),
(1162,1201,l),
(1162,1465,l),
(192,1465,l),
(192,0,l),
(1220,0,l)
);
},
{
closed = 1;
nodes = (
(1071,618,l),
(1071,865,l),
(311,865,l),
(311,618,l)
);
},
{
closed = 1;
nodes = (
(1114,1578,l),
(837,1983,l),
(582,1983,l),
(648,1837,l),
(895,1578,l)
);
},
{
closed = 1;
nodes = (
(527,1578,l),
(774,1838,l),
(837,1983,l),
(582,1983,l),
(306,1578,l)
);
},
{
closed = 1;
nodes = (
(1208,1810,l),
(1221,1956,l),
(1140,1887,l),
(1283,1887,o),
(1366,1958,o),
(1366,2056,cs),
(1366,2158,o),
(1280,2241,o),
(1153,2241,cs),
(1088,2241,o),
(999,2221,o),
(917,2150,c),
(965,2055,l),
(994,2080,o),
(1037,2093,o),
(1077,2093,cs),
(1123,2093,o),
(1156,2071,o),
(1156,2034,cs),
(1156,1985,o),
(1095,1963,o),
(1031,1957,c),
(1043,1810,l)
);
}
);
width = 1312;
},
{
anchors = (
{
name = bottom;
position = "{706, 0}";
},
{
name = ogonek;
position = "{1186, 0}";
},
{
name = topleft;
position = "{139, 1465}";
}
);
layerId = "338923BD-A73B-4463-96D5-6CCFD2C76DE7";
shapes = (
{
closed = 1;
nodes = (
(1186,165,l),
(450,165,l),
(450,1299,l),
(1122,1299,l),
(1122,1465,l),
(229,1465,l),
(229,0,l),
(1186,0,l)
);
},
{
closed = 1;
nodes = (
(1035,664,l),
(1035,821,l),
(302,821,l),
(302,664,l)
);
},
{
closed = 1;
nodes = (
(1065,1586,l),
(782,1976,l),
(628,1976,l),
(668,1874,l),
(920,1586,l)
);
},
{
closed = 1;
nodes = (
(491,1586,l),
(744,1876,l),
(782,1976,l),
(628,1976,l),
(346,1586,l)
);
},
{
closed = 1;
nodes = (
(1101,1820,l),
(1106,1957,l),
(1055,1898,l),
(1194,1898,o),
(1281,1969,o),
(1281,2070,cs),
(1281,2163,o),
(1203,2236,o),
(1080,2236,cs),
(1020,2236,o),
(932,2220,o),
(862,2152,c),
(903,2086,l),
(936,2120,o),
(984,2136,o),
(1036,2136,cs),
(1102,2136,o),
(1145,2102,o),
(1145,2057,cs),
(1145,1997,o),
(1074,1963,o),
(985,1961,c),
(991,1820,l)
);
}
);
width = 1298;
},
{
anchors = (
{
name = bottom;
position = "{701, 0}";
},
{
name = ogonek;
position = "{1164, 0}";
},
{
name = topleft;
position = "{134, 1465}";
}
);
layerId = "E5A5C170-0FDF-4A9B-BA4A-24DEB95A442A";
shapes = (
{
closed = 1;
nodes = (
(1164,100,l),
(376,100,l),
(376,1364,l),
(1095,1364,l),
(1095,1465,l),
(253,1465,l),
(253,0,l),
(1164,0,l)
);
},
{
closed = 1;
nodes = (
(1011,694,l),
(1011,792,l),
(296,792,l),
(296,694,l)
);
},
{
closed = 1;
nodes = (
(1032,1591,l),
(745,1972,l),
(659,1972,l),
(681,1898,l),
(937,1591,l)
);
},
{
closed = 1;
nodes = (
(467,1591,l),
(724,1901,l),
(745,1972,l),
(659,1972,l),
(372,1591,l)
);
},
{
closed = 1;
nodes = (
(1030,1827,l),
(1030,1958,l),
(998,1905,l),
(1135,1905,o),
(1224,1977,o),
(1224,2079,cs),
(1224,2166,o),
(1151,2232,o),
(1032,2232,cs),
(975,2232,o),
(888,2219,o),
(826,2154,c),
(862,2107,l),
(897,2147,o),
(948,2164,o),
(1008,2164,cs),
(1088,2164,o),
(1138,2123,o),
(1138,2072,cs),
(1138,2005,o),
(1060,1963,o),
(955,1963,c),
(957,1827,l)
);
}
);
width = 1289;
}
);
unicode = 7874;
},
{
color = 9;
glyphname = Edotbelow;
layers = (
{
anchors = (
{
name = bottom;
position = "{718, -597}";
},
{
name = ogonek;
position = "{1242, 0}";
},
{
name = top;
position = "{714, 1465}";
},
{
name = topleft;
position = "{151, 1465}";
}
);
layerId = "48D2EA9E-46BD-4B15-B2EA-011CD0F10041";
shapes = (
{
closed = 1;
nodes = (
(858,-587,o),
(949,-502,o),
(949,-366,cs),
(949,-231,o),
(858,-143,o),
(718,-143,cs),
(578,-143,o),
(487,-231,o),
(487,-366,cs),
(487,-502,o),
(578,-587,o),
(718,-587,cs)
);
},
{
alignment = -1;
ref = E;
}
);
width = 1322;
},
{
anchors = (
{
name = bottom;
position = "{713, -547}";
},
{
name = ogonek;
position = "{1220, 0}";
},
{
name = top;
position = "{710, 1465}";
},
{
name = topleft;
position = "{146, 1465}";
}
);
layerId = "F06CBC40-6010-41C8-A897-7AE20112A561";
shapes = (
{
closed = 1;
nodes = (
(828,-539,o),
(903,-468,o),
(903,-357,cs),
(903,-245,o),
(828,-173,o),
(713,-173,cs),
(598,-173,o),
(523,-245,o),
(523,-357,cs),
(523,-468,o),
(598,-539,o),
(713,-539,cs)
);
},
{
alignment = -1;
ref = E;
}
);
width = 1312;
},
{
anchors = (
{
name = bottom;
position = "{706, -473}";
},
{
name = ogonek;
position = "{1186, 0}";
},
{
name = top;
position = "{705, 1465}";
},
{
name = topleft;
position = "{139, 1465}";
}
);
layerId = "338923BD-A73B-4463-96D5-6CCFD2C76DE7";
shapes = (
{
closed = 1;
nodes = (
(782,-468,o),
(835,-418,o),
(835,-343,cs),
(835,-266,o),
(782,-217,o),
(706,-217,cs),
(628,-217,o),
(576,-266,o),
(576,-343,cs),
(576,-418,o),
(628,-468,o),
(706,-468,cs)
);
},
{
alignment = -1;
ref = E;
}
);
width = 1298;
},
{
anchors = (
{
name = bottom;
position = "{701, -423}";
},
{
name = ogonek;
position = "{1164, 0}";
},
{
name = top;
position = "{701, 1465}";
},
{
name = topleft;
position = "{134, 1465}";
}
);
layerId = "E5A5C170-0FDF-4A9B-BA4A-24DEB95A442A";
shapes = (
{
closed = 1;
nodes = (
(752,-421,o),
(790,-385,o),
(790,-334,cs),
(790,-280,o),
(752,-247,o),
(701,-247,cs),
(648,-247,o),
(612,-280,o),
(612,-334,cs),
(612,-385,o),
(648,-421,o),
(701,-421,cs)
);
},
{
alignment = -1;
ref = E;
}
);
width = 1289;
}
);
unicode = 7864;
},
{
glyphname = "Ef-cy";
layers = (
{
layerId = "48D2EA9E-46BD-4B15-B2EA-011CD0F10041";
shapes = (
{
closed = 1;
nodes = (
(1502,120,o),
(1926,333,o),
(1926,778,cs),
(1926,1151,o),
(1622,1345,o),
(1085,1345,cs),
(521,1345,o),
(102,1131,o),
(102,687,cs),
(102,308,o),
(406,120,o),
(936,120,cs)
);
},
{
closed = 1;
nodes = (
(689,403,o),
(568,494,o),
(568,744,cs),
(568,994,o),
(683,1060,o),
(992,1060,cs),
(1342,1060,o),
(1457,978,o),
(1457,726,cs),
(1457,468,o),
(1340,403,o),
(1042,403,cs)
);
},
{
closed = 1;
nodes = (
(1237,-41,l),
(1237,1505,l),
(795,1505,l),
(795,-41,l)
);
}
);
width = 2029;
},
{
layerId = "F06CBC40-6010-41C8-A897-7AE20112A561";
shapes = (
{
closed = 1;
nodes = (
(1462,126,o),
(1858,343,o),
(1858,768,cs),
(1858,1136,o),
(1556,1339,o),
(1039,1339,cs),
(501,1339,o),
(110,1121,o),
(110,697,cs),
(110,324,o),
(412,126,o),
(924,126,cs)
);
},
{
closed = 1;
nodes = (
(641,353,o),
(481,472,o),
(481,742,cs),
(481,1010,o),
(633,1110,o),
(966,1110,cs),
(1328,1110,o),
(1485,998,o),
(1485,726,cs),
(1485,452,o),
(1330,353,o),
(1006,353,cs)
);
},
{
closed = 1;
nodes = (
(1162,-35,l),
(1162,1499,l),
(811,1499,l),
(811,-35,l)
);
}
);
width = 1968;
},
{
layerId = "338923BD-A73B-4463-96D5-6CCFD2C76DE7";
shapes = (
{
closed = 1;
nodes = (
(1403,136,o),
(1755,359,o),
(1755,753,cs),
(1755,1114,o),
(1457,1329,o),
(969,1329,cs),
(470,1329,o),
(121,1105,o),
(121,712,cs),
(121,349,o),
(420,136,o),
(905,136,cs)
);
},
{
closed = 1;
nodes = (
(570,279,o),
(351,440,o),
(351,739,cs),
(351,1033,o),
(557,1184,o),
(926,1184,cs),
(1307,1184,o),
(1526,1029,o),
(1526,727,cs),
(1526,429,o),
(1316,279,o),
(953,279,cs)
);
},
{
closed = 1;
nodes = (
(1050,-27,l),
(1050,1491,l),
(834,1491,l),
(834,-27,l)
);
}
);
width = 1877;
},
{
layerId = "E5A5C170-0FDF-4A9B-BA4A-24DEB95A442A";
shapes = (
{
closed = 1;
nodes = (
(1363,142,o),
(1686,369,o),
(1686,743,cs),
(1686,1099,o),
(1391,1322,o),
(923,1322,cs),
(450,1322,o),
(129,1095,o),
(129,722,cs),
(129,365,o),
(425,142,o),
(892,142,cs)
);
},
{
closed = 1;
nodes = (
(522,230,o),
(264,418,o),
(264,737,cs),
(264,1048,o),
(507,1233,o),
(900,1233,cs),
(1293,1233,o),
(1553,1050,o),
(1553,728,cs),
(1553,414,o),
(1307,230,o),
(917,230,cs)
);
},
{
closed = 1;
nodes = (
(975,-21,l),
(975,1486,l),
(849,1486,l),
(849,-21,l)
);
}
);
width = 1816;
}
);
unicode = 1060;
},
{
glyphname = "Ef-cy.loclBGR";
layers = (
{
layerId = "48D2EA9E-46BD-4B15-B2EA-011CD0F10041";
shapes = (
{
closed = 1;
nodes = (
(1514,-18,o),
(1930,248,o),
(1930,776,cs),
(1930,1233,o),
(1618,1483,o),
(1071,1483,cs),
(514,1483,o),
(105,1216,o),
(105,689,cs),
(105,226,o),
(419,-18,o),
(960,-18,cs)
);
},
{
closed = 1;
nodes = (
(704,263,o),
(571,407,o),
(571,764,cs),
(571,1061,o),
(700,1199,o),
(990,1199,cs),
(1332,1199,o),
(1461,1061,o),
(1461,704,cs),
(1461,403,o),
(1334,263,o),
(1043,263,cs)
);
},
{
closed = 1;
nodes = (
(1221,-241,l),
(1221,1701,l),
(816,1701,l),
(816,-241,l)
);
}
);
width = 2031;
},
{
layerId = "F06CBC40-6010-41C8-A897-7AE20112A561";
shapes = (
{
closed = 1;
nodes = (
(1494,-16,o),
(1888,258,o),
(1888,766,cs),
(1888,1219,o),
(1574,1481,o),
(1041,1481,cs),
(500,1481,o),
(112,1205,o),
(112,699,cs),
(112,242,o),
(427,-16,o),
(955,-16,cs)
);
},
{
closed = 1;
nodes = (
(658,209,o),
(483,386,o),
(483,758,cs),
(483,1081,o),
(650,1253,o),
(976,1253,cs),
(1342,1253,o),
(1515,1081,o),
(1515,709,cs),
(1515,382,o),
(1350,209,o),
(1021,209,cs)
);
},
{
closed = 1;
nodes = (
(1164,-243,l),
(1164,1705,l),
(840,1705,l),
(840,-243,l)
);
}
);
width = 1997;
},
{
layerId = "338923BD-A73B-4463-96D5-6CCFD2C76DE7";
shapes = (
{
closed = 1;
nodes = (
(1465,-14,o),
(1826,274,o),
(1826,751,cs),
(1826,1198,o),
(1509,1479,o),
(997,1479,cs),
(479,1479,o),
(122,1189,o),
(122,714,cs),
(122,265,o),
(440,-14,o),
(948,-14,cs)
);
},
{
closed = 1;
nodes = (
(590,128,o),
(352,355,o),
(352,748,cs),
(352,1112,o),
(574,1334,o),
(956,1334,cs),
(1356,1334,o),
(1595,1110,o),
(1595,717,cs),
(1595,351,o),
(1373,128,o),
(989,128,cs)
);
},
{
closed = 1;
nodes = (
(1079,-245,l),
(1079,1711,l),
(875,1711,l),
(875,-245,l)
);
}
);
width = 1945;
},
{
layerId = "E5A5C170-0FDF-4A9B-BA4A-24DEB95A442A";
shapes = (
{
closed = 1;
nodes = (
(1446,-13,o),
(1784,285,o),
(1784,741,cs),
(1784,1184,o),
(1465,1477,o),
(967,1477,cs),
(465,1477,o),
(129,1178,o),
(129,724,cs),
(129,281,o),
(448,-13,o),
(943,-13,cs)
);
},
{
closed = 1;
nodes = (
(545,74,o),
(264,334,o),
(264,741,cs),
(264,1132,o),
(524,1388,o),
(943,1388,cs),
(1365,1388,o),
(1649,1129,o),
(1649,722,cs),
(1649,330,o),
(1388,74,o),
(967,74,cs)
);
},
{
closed = 1;
nodes = (
(1022,-247,l),
(1022,1715,l),
(898,1715,l),
(898,-247,l)
);
}
);
width = 1911;
}
);
},
{
glyphname = Egrave;
layers = (
{
background = {
shapes = (
{
closed = 1;
nodes = (
(448,0,l),
(462,73,l),
(361,66,o),
(273,61,o),
(173,59,c),
(170,140,o),
(170,215,o),
(170,297,c),
(243,296,o),
(319,295,o),
(394,290,c),
(408,361,l),
(329,355,o),
(249,354,o),
(170,353,c),
(170,423,o),
(171,497,o),
(173,568,c),
(259,566,o),
(352,562,o),
(436,555,c),
(449,630,l),
(391,628,o),
(330,627,o),
(272,627,cs),
(210,627,o),
(142,628,o),
(79,630,c),
(82,529,o),
(84,416,o),
(84,314,cs),
(84,208,o),
(82,109,o),
(79,0,c)
);
}
);
};
layerId = "48D2EA9E-46BD-4B15-B2EA-011CD0F10041";
shapes = (
{
alignment = -1;
pos = (1,0);
ref = E;
},
{
alignment = -1;
pos = (56,0);
ref = grave.cap;
}
);
width = 1301;
},
{
layerId = "F06CBC40-6010-41C8-A897-7AE20112A561";
shapes = (
{
alignment = -1;
pos = (1,0);
ref = E;
},
{
alignment = -1;
pos = (87,0);
ref = grave.cap;
}
);
width = 1273;
},
{
layerId = "338923BD-A73B-4463-96D5-6CCFD2C76DE7";
shapes = (
{
alignment = -1;
pos = (2,0);
ref = E;
},
{
alignment = -1;
pos = (133,0);
ref = grave.cap;
}
);
width = 1232;
},
{
layerId = "E5A5C170-0FDF-4A9B-BA4A-24DEB95A442A";
shapes = (
{
alignment = -1;
pos = (3,0);
ref = E;
},
{
alignment = -1;
pos = (164,0);
ref = grave.cap;
}
);
width = 1205;
}
);
rightKerningGroup = _E_Left;
unicode = 200;
},
{
color = 9;
glyphname = Ehookabove;
layers = (
{
anchors = (
{
name = bottom;
position = "{718, 0}";
},
{
name = ogonek;
position = "{1242, 0}";
},
{
name = top;
position = "{745, 2132}";
},
{
name = topleft;
position = "{151, 1465}";
}
);
layerId = "48D2EA9E-46BD-4B15-B2EA-011CD0F10041";
shapes = (
{
closed = 1;
nodes = (
(864,1559,l),
(880,1780,l),
(728,1647,l),
(947,1662,o),
(1062,1778,o),
(1062,1900,cs),
(1062,2018,o),
(945,2132,o),
(725,2132,cs),
(619,2132,o),
(502,2103,o),
(407,2045,c),
(499,1884,l),
(547,1908,o),
(598,1917,o),
(637,1917,cs),
(697,1917,o),
(725,1898,o),
(725,1855,cs),
(725,1809,o),
(657,1788,o),
(566,1782,c),
(582,1559,l)
);
},
{
alignment = -1;
ref = E;
}
);
width = 1322;
},
{
anchors = (
{
name = bottom;
position = "{713, 0}";
},
{
name = ogonek;
position = "{1220, 0}";
},
{
name = top;
position = "{740, 2098}";
},
{
name = topleft;
position = "{146, 1465}";
}
);
layerId = "F06CBC40-6010-41C8-A897-7AE20112A561";
shapes = (
{
closed = 1;
nodes = (
(832,1557,l),
(844,1762,l),
(720,1654,l),
(923,1664,o),
(1036,1768,o),
(1036,1884,cs),
(1036,1996,o),
(925,2098,o),
(727,2098,cs),
(631,2098,o),
(518,2073,o),
(429,2007,c),
(507,1878,l),
(552,1910,o),
(608,1924,o),
(659,1924,cs),
(728,1924,o),
(764,1898,o),
(764,1849,cs),
(764,1797,o),
(694,1768,o),
(590,1764,c),
(602,1557,l)
);
},
{
alignment = -1;
ref = E;
}
);
width = 1312;
},
{
anchors = (
{
name = bottom;
position = "{706, 0}";
},
{
name = ogonek;
position = "{1186, 0}";
},
{
name = top;
position = "{733, 2048}";
},
{
name = topleft;
position = "{139, 1465}";
}
);
layerId = "338923BD-A73B-4463-96D5-6CCFD2C76DE7";
shapes = (
{
closed = 1;
nodes = (
(784,1553,l),
(789,1734,l),
(709,1664,l),
(888,1668,o),
(996,1752,o),
(996,1861,cs),
(996,1962,o),
(896,2048,o),
(730,2048,cs),
(650,2048,o),
(541,2027,o),
(461,1950,c),
(519,1870,l),
(560,1914,o),
(624,1934,o),
(691,1934,cs),
(774,1934,o),
(823,1897,o),
(823,1840,cs),
(823,1778,o),
(749,1738,o),
(626,1736,c),
(632,1553,l)
);
},
{
alignment = -1;
ref = E;
}
);
width = 1298;
},
{
anchors = (
{
name = bottom;
position = "{701, 0}";
},
{
name = ogonek;
position = "{1164, 0}";
},
{
name = top;
position = "{728, 2014}";
},
{
name = topleft;
position = "{134, 1465}";
}
);
layerId = "E5A5C170-0FDF-4A9B-BA4A-24DEB95A442A";
shapes = (
{
closed = 1;
nodes = (
(752,1551,l),
(752,1716,l),
(701,1671,l),
(864,1671,o),
(970,1741,o),
(970,1845,cs),
(970,1939,o),
(877,2014,o),
(732,2014,cs),
(663,2014,o),
(556,1996,o),
(482,1912,c),
(527,1865,l),
(565,1916,o),
(635,1941,o),
(712,1941,cs),
(805,1941,o),
(862,1896,o),
(862,1834,cs),
(862,1765,o),
(786,1718,o),
(650,1718,c),
(652,1551,l)
);
},
{
alignment = -1;
ref = E;
}
);
width = 1289;
}
);
unicode = 7866;
},
{
glyphname = "El-cy";
layers = (
{
anchors = (
{
name = bottomright;
position = "{1456, 0}";
}
);
layerId = "48D2EA9E-46BD-4B15-B2EA-011CD0F10041";
shapes = (
{
closed = 1;
nodes = (
(109,-30,l),
(637,-49,o),
(660,99,o),
(720,1465,c),
(352,1465,l),
(335,565,o),
(293,252,o),
(33,253,c)
);
},
{
closed = 1;
nodes = (
(1456,0,l),
(1456,1465,l),
(991,1465,l),
(991,0,l)
);
},
{
closed = 1;
nodes = (
(1221,1125,l),
(1221,1465,l),
(528,1465,l),
(562,1125,l)
);
}
);
width = 1628;
},
{
anchors = (
{
name = bottomright;
position = "{1422, 0}";
}
);
layerId = "F06CBC40-6010-41C8-A897-7AE20112A561";
shapes = (
{
closed = 1;
nodes = (
(117,-27,l),
(587,-7,o),
(631,215,o),
(682,1465,c),
(388,1465,l),
(365,591,o),
(313,238,o),
(53,201,c)
);
},
{
closed = 1;
nodes = (
(1422,0,l),
(1422,1465,l),
(1053,1465,l),
(1053,0,l)
);
},
{
closed = 1;
nodes = (
(1235,1192,l),
(1235,1465,l),
(530,1465,l),
(554,1192,l)
);
}
);
width = 1616;
},
{
anchors = (
{
name = bottomright;
position = "{1370, 0}";
}
);
layerId = "338923BD-A73B-4463-96D5-6CCFD2C76DE7";
shapes = (
{
closed = 1;
nodes = (
(128,-22,l),
(511,56,o),
(587,389,o),
(626,1465,c),
(441,1465,l),
(409,630,o),
(343,218,o),
(82,124,c)
);
},
{
closed = 1;
nodes = (
(1370,0,l),
(1370,1465,l),
(1145,1465,l),
(1145,0,l)
);
},
{
closed = 1;
nodes = (
(1257,1292,l),
(1257,1465,l),
(533,1465,l),
(543,1292,l)
);
}
);
width = 1598;
},
{
anchors = (
{
name = bottomright;
position = "{1335, 0}";
}
);
layerId = "E5A5C170-0FDF-4A9B-BA4A-24DEB95A442A";
shapes = (
{
closed = 1;
nodes = (
(136,-19,l),
(460,98,o),
(558,505,o),
(588,1465,c),
(477,1465,l),
(438,656,o),
(363,204,o),
(102,72,c)
);
},
{
closed = 1;
nodes = (
(1335,0,l),
(1335,1465,l),
(1206,1465,l),
(1206,0,l)
);
},
{
closed = 1;
nodes = (
(1272,1359,l),
(1272,1465,l),
(535,1465,l),
(535,1359,l)
);
}
);
width = 1586;
}
);
leftKerningGroup = "El-cy";
unicode = 1051;
},
{
glyphname = "El-cy.loclBGR";
layers = (
{
layerId = "48D2EA9E-46BD-4B15-B2EA-011CD0F10041";
shapes = (
{
closed = 1;
nodes = (
(479,0,l),
(815,1328,l),
(643,1328,l),
(1044,0,l),
(1563,0,l),
(1038,1465,l),
(531,1465,l),
(15,0,l)
);
}
);
width = 1580;
},
{
layerId = "F06CBC40-6010-41C8-A897-7AE20112A561";
shapes = (
{
closed = 1;
nodes = (
(411,0,l),
(805,1356,l),
(661,1356,l),
(1106,0,l),
(1517,0,l),
(976,1465,l),
(577,1465,l),
(41,0,l)
);
}
);
width = 1558;
},
{
layerId = "338923BD-A73B-4463-96D5-6CCFD2C76DE7";
shapes = (
{
closed = 1;
nodes = (
(310,0,l),
(789,1399,l),
(689,1399,l),
(1200,0,l),
(1447,0,l),
(882,1464,l),
(646,1464,l),
(79,0,l)
);
}
);
width = 1524;
},
{
layerId = "E5A5C170-0FDF-4A9B-BA4A-24DEB95A442A";
shapes = (
{
closed = 1;
nodes = (
(243,0,l),
(778,1427,l),
(708,1427,l),
(1262,0,l),
(1400,0,l),
(819,1464,l),
(692,1464,l),
(104,0,l)
);
}
);
width = 1501;
}
);
rightKerningGroup = "Abreve-cy1";
},
{
color = 8;
glyphname = "Eldescender-cy";
layers = (
{
layerId = "48D2EA9E-46BD-4B15-B2EA-011CD0F10041";
shapes = (
{
closed = 1;
nodes = (
(109,-30,l),
(637,-49,o),
(660,99,o),
(720,1465,c),
(352,1465,l),
(335,565,o),
(293,252,o),
(33,253,c)
);
},
{
closed = 1;
nodes = (
(1456,0,l),
(1456,1465,l),
(991,1465,l),
(991,0,l)
);
},
{
closed = 1;
nodes = (
(1221,1125,l),
(1221,1465,l),
(528,1465,l),
(562,1125,l)
);
},
{
closed = 1;
nodes = (
(1493,0,l),
(1698,388,l),
(1364,388,l),
(1364,0,l)
);
},
{
closed = 1;
nodes = (
(1698,-380,l),
(1698,388,l),
(1280,388,l),
(1366,-380,l)
);
}
);
width = 1735;
},
{
layerId = "F06CBC40-6010-41C8-A897-7AE20112A561";
shapes = (
{
closed = 1;
nodes = (
(117,-27,l),
(587,-7,o),
(631,215,o),
(682,1465,c),
(388,1465,l),
(365,591,o),
(313,238,o),
(53,201,c)
);
},
{
closed = 1;
nodes = (
(1422,0,l),
(1422,1465,l),
(1053,1465,l),
(1053,0,l)
);
},
{
closed = 1;
nodes = (
(1235,1192,l),
(1235,1465,l),
(530,1465,l),
(554,1192,l)
);
},
{
closed = 1;
nodes = (
(1489,0,l),
(1652,306,l),
(1342,306,l),
(1342,0,l)
);
},
{
closed = 1;
nodes = (
(1652,-386,l),
(1652,306,l),
(1316,306,l),
(1386,-386,l)
);
}
);
width = 1717;
},
{
layerId = "338923BD-A73B-4463-96D5-6CCFD2C76DE7";
shapes = (
{
closed = 1;
nodes = (
(128,-22,l),
(511,56,o),
(587,389,o),
(626,1465,c),
(441,1465,l),
(409,630,o),
(343,218,o),
(82,124,c)
);
},
{
closed = 1;
nodes = (
(1370,0,l),
(1370,1465,l),
(1145,1465,l),
(1145,0,l)
);
},
{
closed = 1;
nodes = (
(1257,1292,l),
(1257,1465,l),
(533,1465,l),
(543,1292,l)
);
},
{
closed = 1;
nodes = (
(1482,0,l),
(1584,184,l),
(1308,184,l),
(1308,0,l)
);
},
{
closed = 1;
nodes = (
(1584,-394,l),
(1584,184,l),
(1369,184,l),
(1415,-394,l)
);
}
);
width = 1689;
},
{
layerId = "E5A5C170-0FDF-4A9B-BA4A-24DEB95A442A";
shapes = (
{
closed = 1;
nodes = (
(136,-19,l),
(460,98,o),
(558,505,o),
(588,1465,c),
(477,1465,l),
(438,656,o),
(363,204,o),
(102,72,c)
);
},
{
closed = 1;
nodes = (
(1335,0,l),
(1335,1465,l),
(1206,1465,l),
(1206,0,l)
);
},
{
closed = 1;
nodes = (
(1272,1359,l),
(1272,1465,l),
(535,1465,l),
(535,1359,l)
);
},
{
closed = 1;
nodes = (
(1477,0,l),
(1539,102,l),
(1286,102,l),
(1286,0,l)
);
},
{
closed = 1;
nodes = (
(1539,-399,l),
(1539,102,l),
(1405,102,l),
(1435,-399,l)
);
}
);
width = 1671;
}
);
leftKerningGroup = "El-cy";
rightKerningGroup = "Tse-cy1";
unicode = 1326;
},
{
glyphname = "Elhook-cy";
layers = (
{
anchors = (
{
name = bottomright;
position = "{1455, 0}";
}
);
layerId = "48D2EA9E-46BD-4B15-B2EA-011CD0F10041";
shapes = (
{
closed = 1;
nodes = (
(866,-494,l),
(1241,-409,o),
(1457,-288,o),
(1457,220,cs),
(1457,1465,l),
(990,1465,l),
(990,220,ls),
(990,-115,o),
(925,-183,o),
(777,-266,c)
);
},
{
closed = 1;
nodes = (
(115,-30,l),
(642,-30,o),
(666,99,o),
(724,1465,c),
(356,1465,l),
(342,566,o),
(298,271,o),
(39,252,c)
);
},
{
closed = 1;
nodes = (
(1221,1125,l),
(1221,1465,l),
(533,1465,l),
(566,1125,l)
);
}
);
width = 1626;
},
{
anchors = (
{
name = bottomright;
position = "{1419, 0}";
}
);
layerId = "F06CBC40-6010-41C8-A897-7AE20112A561";
shapes = (
{
closed = 1;
nodes = (
(884,-482,l),
(1220,-401,o),
(1421,-270,o),
(1421,184,cs),
(1421,1465,l),
(1050,1465,l),
(1050,184,ls),
(1050,-131,o),
(973,-217,o),
(811,-296,c)
);
},
{
closed = 1;
nodes = (
(110,-26,l),
(582,-26,o),
(624,215,o),
(678,1465,c),
(384,1465,l),
(359,590,o),
(308,219,o),
(47,201,c)
);
},
{
closed = 1;
nodes = (
(1235,1192,l),
(1235,1465,l),
(525,1465,l),
(549,1192,l)
);
}
);
width = 1614;
},
{
anchors = (
{
name = bottomright;
position = "{1366, 0}";
}
);
layerId = "338923BD-A73B-4463-96D5-6CCFD2C76DE7";
shapes = (
{
closed = 1;
nodes = (
(912,-463,l),
(1189,-390,o),
(1367,-244,o),
(1367,130,cs),
(1367,1465,l),
(1141,1465,l),
(1141,130,ls),
(1141,-156,o),
(1044,-267,o),
(863,-340,c)
);
},
{
closed = 1;
nodes = (
(103,-21,l),
(491,-21,o),
(561,389,o),
(609,1465,c),
(425,1465,l),
(384,627,o),
(322,141,o),
(60,125,c)
);
},
{
closed = 1;
nodes = (
(1257,1292,l),
(1257,1465,l),
(514,1465,l),
(524,1292,l)
);
}
);
width = 1595;
},
{
anchors = (
{
name = bottomright;
position = "{1331, 0}";
}
);
layerId = "E5A5C170-0FDF-4A9B-BA4A-24DEB95A442A";
shapes = (
{
closed = 1;
nodes = (
(930,-450,l),
(1168,-383,o),
(1331,-226,o),
(1331,94,cs),
(1331,1465,l),
(1201,1465,l),
(1201,94,ls),
(1201,-172,o),
(1091,-300,o),
(898,-369,c)
);
},
{
closed = 1;
nodes = (
(98,-17,l),
(431,-17,o),
(519,505,o),
(563,1465,c),
(453,1465,l),
(401,652,o),
(332,89,o),
(68,74,c)
);
},
{
closed = 1;
nodes = (
(1272,1359,l),
(1272,1465,l),
(507,1465,l),
(507,1359,l)
);
}
);
width = 1582;
}
);
rightKerningGroup = "I-cy1";
unicode = 1298;
},
{
glyphname = "Eltail-cy";
layers = (
{
layerId = "48D2EA9E-46BD-4B15-B2EA-011CD0F10041";
shapes = (
{
closed = 1;
nodes = (
(109,-30,l),
(637,-49,o),
(660,99,o),
(720,1465,c),
(352,1465,l),
(335,565,o),
(293,252,o),
(33,253,c)
);
},
{
closed = 1;
nodes = (
(1456,0,l),
(1456,1465,l),
(991,1465,l),
(991,0,l)
);
},
{
closed = 1;
nodes = (
(1221,1125,l),
(1221,1465,l),
(528,1465,l),
(562,1125,l)
);
},
{
closed = 1;
nodes = (
(1543,0,l),
(1743,303,l),
(1366,303,l),
(1366,0,l)
);
},
{
closed = 1;
nodes = (
(1455,-434,l),
(1743,303,l),
(1242,303,l),
(1100,-434,l)
);
}
);
width = 1707;
},
{
layerId = "F06CBC40-6010-41C8-A897-7AE20112A561";
shapes = (
{
closed = 1;
nodes = (
(117,-27,l),
(587,-7,o),
(631,215,o),
(682,1465,c),
(388,1465,l),
(365,591,o),
(313,238,o),
(53,201,c)
);
},
{
closed = 1;
nodes = (
(1422,0,l),
(1422,1465,l),
(1053,1465,l),
(1053,0,l)
);
},
{
closed = 1;
nodes = (
(1235,1192,l),
(1235,1465,l),
(530,1465,l),
(554,1192,l)
);
},
{
closed = 1;
nodes = (
(1531,0,l),
(1689,245,l),
(1350,245,l),
(1350,0,l)
);
},
{
closed = 1;
nodes = (
(1416,-434,l),
(1689,245,l),
(1294,245,l),
(1134,-434,l)
);
}
);
width = 1687;
},
{
layerId = "338923BD-A73B-4463-96D5-6CCFD2C76DE7";
shapes = (
{
closed = 1;
nodes = (
(128,-22,l),
(511,56,o),
(587,389,o),
(626,1465,c),
(441,1465,l),
(409,630,o),
(343,218,o),
(82,124,c)
);
},
{
closed = 1;
nodes = (
(1370,0,l),
(1370,1465,l),
(1145,1465,l),
(1145,0,l)
);
},
{
closed = 1;
nodes = (
(1257,1292,l),
(1257,1465,l),
(533,1465,l),
(543,1292,l)
);
},
{
closed = 1;
nodes = (
(1513,0,l),
(1609,159,l),
(1327,159,l),
(1327,0,l)
);
},
{
closed = 1;
nodes = (
(1357,-433,l),
(1609,159,l),
(1373,159,l),
(1185,-433,l)
);
}
);
width = 1656;
},
{
layerId = "E5A5C170-0FDF-4A9B-BA4A-24DEB95A442A";
shapes = (
{
closed = 1;
nodes = (
(136,-19,l),
(460,98,o),
(558,505,o),
(588,1465,c),
(477,1465,l),
(438,656,o),
(363,204,o),
(102,72,c)
);
},
{
closed = 1;
nodes = (
(1335,0,l),
(1335,1465,l),
(1206,1465,l),
(1206,0,l)
);
},
{
closed = 1;
nodes = (
(1272,1359,l),
(1272,1465,l),
(535,1465,l),
(535,1359,l)
);
},
{
closed = 1;
nodes = (
(1501,0,l),
(1555,102,l),
(1311,102,l),
(1311,0,l)
);
},
{
closed = 1;
nodes = (
(1318,-433,l),
(1555,102,l),
(1425,102,l),
(1219,-433,l)
);
}
);
width = 1635;
}
);
leftKerningGroup = "El-cy";
rightKerningGroup = "Eltail-cy";
unicode = 1221;
},
{
glyphname = "Emtail-cy";
layers = (
{
layerId = "48D2EA9E-46BD-4B15-B2EA-011CD0F10041";
shapes = (
{
closed = 1;
nodes = (
(518,0,l),
(562,1465,l),
(250,1465,l),
(149,0,l)
);
},
{
closed = 1;
nodes = (
(2071,0,l),
(2271,303,l),
(1892,303,l),
(1892,0,l)
);
},
{
closed = 1;
nodes = (
(1982,-434,l),
(2271,303,l),
(1771,303,l),
(1627,-434,l)
);
},
{
alignment = -1;
ref = M;
}
);
width = 2221;
},
{
layerId = "F06CBC40-6010-41C8-A897-7AE20112A561";
shapes = (
{
closed = 1;
nodes = (
(474,0,l),
(524,1465,l),
(265,1465,l),
(165,0,l)
);
},
{
closed = 1;
nodes = (
(2041,0,l),
(2199,245,l),
(1858,245,l),
(1858,0,l)
);
},
{
closed = 1;
nodes = (
(1926,-434,l),
(2199,245,l),
(1805,245,l),
(1643,-434,l)
);
},
{
alignment = -1;
ref = M;
}
);
width = 2180;
},
{
layerId = "338923BD-A73B-4463-96D5-6CCFD2C76DE7";
shapes = (
{
closed = 1;
nodes = (
(409,0,l),
(467,1465,l),
(288,1465,l),
(190,0,l)
);
},
{
closed = 1;
nodes = (
(1996,0,l),
(2092,159,l),
(1808,159,l),
(1808,0,l)
);
},
{
closed = 1;
nodes = (
(1841,-433,l),
(2092,159,l),
(1855,159,l),
(1667,-433,l)
);
},
{
alignment = -1;
ref = M;
}
);
width = 2119;
},
{
layerId = "E5A5C170-0FDF-4A9B-BA4A-24DEB95A442A";
shapes = (
{
closed = 1;
nodes = (
(365,0,l),
(429,1465,l),
(303,1465,l),
(206,0,l)
);
},
{
closed = 1;
nodes = (
(1966,0,l),
(2021,102,l),
(1775,102,l),
(1775,0,l)
);
},
{
closed = 1;
nodes = (
(1784,-433,l),
(2021,102,l),
(1889,102,l),
(1683,-433,l)
);
},
{
alignment = -1;
ref = M;
}
);
width = 2078;
}
);
unicode = 1229;
},
{
color = 8;
glyphname = "EnLeftHook-cy";
layers = (
{
layerId = "48D2EA9E-46BD-4B15-B2EA-011CD0F10041";
shapes = (
{
closed = 1;
nodes = (
(201,220,ls),
(201,-115,o),
(139,-183,o),
(-10,-266,c),
(78,-494,l),
(453,-409,o),
(671,-288,o),
(671,220,cs),
(671,1465,l),
(201,1465,l)
);
},
{
closed = 1;
nodes = (
(1613,0,l),
(1613,1465,l),
(1146,1465,l),
(1146,0,l)
);
},
{
closed = 1;
nodes = (
(1394,564,l),
(1394,918,l),
(333,918,l),
(333,564,l)
);
}
);
width = 1779;
},
{
layerId = "F06CBC40-6010-41C8-A897-7AE20112A561";
shapes = (
{
closed = 1;
nodes = (
(235,184,ls),
(235,-131,o),
(159,-217,o),
(-2,-296,c),
(70,-482,l),
(405,-401,o),
(608,-270,o),
(608,184,cs),
(608,1465,l),
(235,1465,l)
);
},
{
closed = 1;
nodes = (
(1593,0,l),
(1593,1465,l),
(1223,1465,l),
(1223,0,l)
);
},
{
closed = 1;
nodes = (
(1424,600,l),
(1424,882,l),
(342,882,l),
(342,600,l)
);
}
);
width = 1785;
},
{
layerId = "338923BD-A73B-4463-96D5-6CCFD2C76DE7";
shapes = (
{
closed = 1;
nodes = (
(285,130,ls),
(285,-156,o),
(189,-267,o),
(9,-340,c),
(57,-463,l),
(334,-390,o),
(513,-244,o),
(513,130,cs),
(513,1465,l),
(285,1465,l)
);
},
{
closed = 1;
nodes = (
(1564,0,l),
(1564,1465,l),
(1338,1465,l),
(1338,0,l)
);
},
{
closed = 1;
nodes = (
(1470,654,l),
(1470,829,l),
(356,829,l),
(356,654,l)
);
}
);
width = 1793;
},
{
layerId = "E5A5C170-0FDF-4A9B-BA4A-24DEB95A442A";
shapes = (
{
closed = 1;
nodes = (
(318,94,ls),
(318,-172,o),
(209,-300,o),
(17,-369,c),
(49,-450,l),
(287,-383,o),
(450,-226,o),
(450,94,cs),
(450,1465,l),
(318,1465,l)
);
},
{
closed = 1;
nodes = (
(1544,0,l),
(1544,1465,l),
(1415,1465,l),
(1415,0,l)
);
},
{
closed = 1;
nodes = (
(1501,690,l),
(1501,794,l),
(365,794,l),
(365,690,l)
);
}
);
width = 1799;
}
);
leftKerningGroup = "I-cy";
unicode = 1320;
},
{
glyphname = "Endescender-cy";
layers = (
{
layerId = "48D2EA9E-46BD-4B15-B2EA-011CD0F10041";
shapes = (
{
closed = 1;
nodes = (
(1584,0,l),
(1584,1465,l),
(1116,1465,l),
(1116,0,l)
);
},
{
closed = 1;
nodes = (
(640,0,l),
(640,1465,l),
(169,1465,l),
(169,0,l)
);
},
{
closed = 1;
nodes = (
(1364,564,l),
(1364,921,l),
(301,921,l),
(301,564,l)
);
},
{
closed = 1;
nodes = (
(1617,0,l),
(1823,388,l),
(1488,388,l),
(1488,0,l)
);
},
{
closed = 1;
nodes = (
(1823,-380,l),
(1823,388,l),
(1403,388,l),
(1489,-380,l)
);
}
);
width = 1863;
},
{
layerId = "F06CBC40-6010-41C8-A897-7AE20112A561";
shapes = (
{
closed = 1;
nodes = (
(1546,0,l),
(1546,1465,l),
(1176,1465,l),
(1176,0,l)
);
},
{
closed = 1;
nodes = (
(566,0,l),
(566,1465,l),
(193,1465,l),
(193,0,l)
);
},
{
closed = 1;
nodes = (
(1377,600,l),
(1377,885,l),
(299,885,l),
(299,600,l)
);
},
{
closed = 1;
nodes = (
(1610,0,l),
(1775,306,l),
(1464,306,l),
(1464,0,l)
);
},
{
closed = 1;
nodes = (
(1775,-386,l),
(1775,306,l),
(1437,306,l),
(1507,-386,l)
);
}
);
width = 1841;
},
{
layerId = "338923BD-A73B-4463-96D5-6CCFD2C76DE7";
shapes = (
{
closed = 1;
nodes = (
(1490,0,l),
(1490,1465,l),
(1265,1465,l),
(1265,0,l)
);
},
{
closed = 1;
nodes = (
(456,0,l),
(456,1465,l),
(228,1465,l),
(228,0,l)
);
},
{
closed = 1;
nodes = (
(1397,654,l),
(1397,832,l),
(297,832,l),
(297,654,l)
);
},
{
closed = 1;
nodes = (
(1600,0,l),
(1704,184,l),
(1427,184,l),
(1427,0,l)
);
},
{
closed = 1;
nodes = (
(1704,-394,l),
(1704,184,l),
(1487,184,l),
(1533,-394,l)
);
}
);
width = 1809;
},
{
layerId = "E5A5C170-0FDF-4A9B-BA4A-24DEB95A442A";
shapes = (
{
closed = 1;
nodes = (
(1452,0,l),
(1452,1465,l),
(1325,1465,l),
(1325,0,l)
);
},
{
closed = 1;
nodes = (
(383,0,l),
(383,1465,l),
(251,1465,l),
(251,0,l)
);
},
{
closed = 1;
nodes = (
(1410,690,l),
(1410,796,l),
(296,796,l),
(296,690,l)
);
},
{
closed = 1;
nodes = (
(1593,0,l),
(1656,102,l),
(1402,102,l),
(1402,0,l)
);
},
{
closed = 1;
nodes = (
(1656,-399,l),
(1656,102,l),
(1521,102,l),
(1550,-399,l)
);
}
);
width = 1787;
}
);
leftKerningGroup = "Tse-cy";
rightKerningGroup = "Tse-cy1";
unicode = 1186;
},
{
color = (153, 155, 255, 255);
glyphname = Eng;
layers = (
{
layerId = "48D2EA9E-46BD-4B15-B2EA-011CD0F10041";
shapes = (
{
closed = 1;
nodes = (
(1091,-556,l),
(1505,-410,o),
(1592,-119,o),
(1592,186,cs),
(1592,460,l),
(1249,460,l),
(1249,75,ls),
(1249,-117,o),
(1091,-288,o),
(963,-395,c)
);
},
{
closed = 1;
nodes = (
(505,0,l),
(505,855,l),
(496,1101,l),
(516,1101,l),
(625,872,l),
(1100,0,l),
(1469,0,l),
(1592,186,l),
(1592,1465,l),
(1249,1465,l),
(1249,819,l),
(1258,548,l),
(1238,548,l),
(1123,790,l),
(762,1465,l),
(162,1465,l),
(162,0,l)
);
}
);
width = 1754;
},
{
layerId = "F06CBC40-6010-41C8-A897-7AE20112A561";
shapes = (
{
closed = 1;
nodes = (
(1089,-557,l),
(1450,-410,o),
(1546,-138,o),
(1546,150,cs),
(1546,374,l),
(1271,374,l),
(1271,73,ls),
(1271,-118,o),
(1137,-298,o),
(982,-425,c)
);
},
{
closed = 1;
nodes = (
(457,0,l),
(457,949,l),
(446,1179,l),
(466,1179,l),
(570,971,l),
(1175,0,l),
(1451,0,l),
(1546,150,l),
(1546,1465,l),
(1271,1465,l),
(1271,701,l),
(1281,456,l),
(1261,456,l),
(1152,669,l),
(654,1465,l),
(182,1465,l),
(182,0,l)
);
}
);
width = 1727;
},
{
layerId = "338923BD-A73B-4463-96D5-6CCFD2C76DE7";
shapes = (
{
closed = 1;
nodes = (
(1085,-559,l),
(1368,-409,o),
(1476,-166,o),
(1476,97,cs),
(1476,246,l),
(1303,246,l),
(1303,70,ls),
(1303,-120,o),
(1207,-314,o),
(1010,-469,c)
);
},
{
closed = 1;
nodes = (
(384,0,l),
(384,1089,l),
(370,1295,l),
(390,1295,l),
(488,1119,l),
(1288,0,l),
(1423,0,l),
(1476,97,l),
(1476,1465,l),
(1303,1465,l),
(1303,523,l),
(1316,317,l),
(1296,317,l),
(1196,488,l),
(492,1465,l),
(211,1465,l),
(211,0,l)
);
}
);
width = 1686;
},
{
layerId = "E5A5C170-0FDF-4A9B-BA4A-24DEB95A442A";
shapes = (
{
closed = 1;
nodes = (
(1082,-560,l),
(1313,-408,o),
(1429,-185,o),
(1429,61,cs),
(1429,160,l),
(1324,160,l),
(1324,68,ls),
(1324,-121,o),
(1254,-324,o),
(1029,-498,c)
);
},
{
closed = 1;
nodes = (
(335,0,l),
(335,1183,l),
(319,1372,l),
(339,1372,l),
(433,1218,l),
(1363,0,l),
(1405,0,l),
(1429,61,l),
(1429,1465,l),
(1324,1465,l),
(1324,404,l),
(1339,225,l),
(1319,225,l),
(1225,367,l),
(384,1465,l),
(230,1465,l),
(230,0,l)
);
}
);
width = 1659;
}
);
unicode = 330;
},
{
glyphname = "Enghe-cy";
layers = (
{
layerId = "48D2EA9E-46BD-4B15-B2EA-011CD0F10041";
shapes = (
{
closed = 1;
nodes = (
(1507,0,l),
(1507,1465,l),
(1055,1465,l),
(1055,0,l)
);
},
{
closed = 1;
nodes = (
(620,0,l),
(620,1465,l),
(169,1465,l),
(169,0,l)
);
},
{
closed = 1;
nodes = (
(1304,564,l),
(1304,918,l),
(301,918,l),
(301,564,l)
);
},
{
closed = 1;
nodes = (
(1983,1108,l),
(1983,1465,l),
(1241,1465,l),
(1241,1108,l)
);
}
);
width = 2058;
},
{
layerId = "F06CBC40-6010-41C8-A897-7AE20112A561";
shapes = (
{
closed = 1;
nodes = (
(1475,0,l),
(1475,1465,l),
(1115,1465,l),
(1115,0,l)
);
},
{
closed = 1;
nodes = (
(552,0,l),
(552,1465,l),
(193,1465,l),
(193,0,l)
);
},
{
closed = 1;
nodes = (
(1317,600,l),
(1317,882,l),
(299,882,l),
(299,600,l)
);
},
{
closed = 1;
nodes = (
(1985,1180,l),
(1985,1465,l),
(1265,1465,l),
(1265,1180,l)
);
}
);
width = 2058;
},
{
layerId = "338923BD-A73B-4463-96D5-6CCFD2C76DE7";
shapes = (
{
closed = 1;
nodes = (
(1426,0,l),
(1426,1465,l),
(1204,1465,l),
(1204,0,l)
);
},
{
closed = 1;
nodes = (
(451,0,l),
(451,1465,l),
(228,1465,l),
(228,0,l)
);
},
{
closed = 1;
nodes = (
(1337,654,l),
(1337,829,l),
(297,829,l),
(297,654,l)
);
},
{
closed = 1;
nodes = (
(1987,1287,l),
(1987,1465,l),
(1302,1465,l),
(1302,1287,l)
);
}
);
width = 2057;
},
{
layerId = "E5A5C170-0FDF-4A9B-BA4A-24DEB95A442A";
shapes = (
{
closed = 1;
nodes = (
(1393,0,l),
(1393,1465,l),
(1264,1465,l),
(1264,0,l)
);
},
{
closed = 1;
nodes = (
(383,0,l),
(383,1465,l),
(251,1465,l),
(251,0,l)
);
},
{
closed = 1;
nodes = (
(1350,690,l),
(1350,794,l),
(296,794,l),
(296,690,l)
);
},
{
closed = 1;
nodes = (
(1989,1359,l),
(1989,1465,l),
(1327,1465,l),
(1327,1359,l)
);
}
);
width = 2057;
}
);
leftKerningGroup = "I-cy";
unicode = 1188;
},
{
glyphname = "Enhook-cy";
layers = (
{
layerId = "48D2EA9E-46BD-4B15-B2EA-011CD0F10041";
shapes = (
{
closed = 1;
nodes = (
(637,0,l),
(637,1465,l),
(169,1465,l),
(169,0,l)
);
},
{
closed = 1;
nodes = (
(1360,564,l),
(1360,918,l),
(301,918,l),
(301,564,l)
);
},
{
closed = 1;
nodes = (
(1110,220,ls),
(1110,-115,o),
(1048,-183,o),
(896,-266,c),
(986,-494,l),
(1362,-409,o),
(1580,-288,o),
(1580,220,cs),
(1580,1465,l),
(1110,1465,l)
);
}
);
width = 1748;
},
{
layerId = "F06CBC40-6010-41C8-A897-7AE20112A561";
shapes = (
{
closed = 1;
nodes = (
(565,0,l),
(565,1465,l),
(193,1465,l),
(193,0,l)
);
},
{
closed = 1;
nodes = (
(1382,600,l),
(1382,882,l),
(299,882,l),
(299,600,l)
);
},
{
closed = 1;
nodes = (
(1178,184,ls),
(1178,-131,o),
(1102,-217,o),
(938,-296,c),
(1012,-482,l),
(1348,-401,o),
(1550,-270,o),
(1550,184,cs),
(1550,1465,l),
(1178,1465,l)
);
}
);
width = 1752;
},
{
layerId = "338923BD-A73B-4463-96D5-6CCFD2C76DE7";
shapes = (
{
closed = 1;
nodes = (
(456,0,l),
(456,1465,l),
(228,1465,l),
(228,0,l)
);
},
{
closed = 1;
nodes = (
(1414,654,l),
(1414,829,l),
(297,829,l),
(297,654,l)
);
},
{
closed = 1;
nodes = (
(1279,130,ls),
(1279,-156,o),
(1183,-267,o),
(1002,-340,c),
(1051,-463,l),
(1328,-390,o),
(1506,-244,o),
(1506,130,cs),
(1506,1465,l),
(1279,1465,l)
);
}
);
width = 1758;
},
{
layerId = "E5A5C170-0FDF-4A9B-BA4A-24DEB95A442A";
shapes = (
{
closed = 1;
nodes = (
(383,0,l),
(383,1465,l),
(251,1465,l),
(251,0,l)
);
},
{
closed = 1;
nodes = (
(1435,690,l),
(1435,794,l),
(296,794,l),
(296,690,l)
);
},
{
closed = 1;
nodes = (
(1346,94,ls),
(1346,-172,o),
(1237,-300,o),
(1044,-369,c),
(1077,-450,l),
(1314,-383,o),
(1477,-226,o),
(1477,94,cs),
(1477,1465,l),
(1346,1465,l)
);
}
);
width = 1762;
}
);
leftKerningGroup = "Enhook-cy";
rightKerningGroup = "I-cy1";
unicode = 1223;
},
{
glyphname = "Entail-cy";
layers = (
{
layerId = "48D2EA9E-46BD-4B15-B2EA-011CD0F10041";
shapes = (
{
closed = 1;
nodes = (
(1584,0,l),
(1584,1465,l),
(1116,1465,l),
(1116,0,l)
);
},
{
closed = 1;
nodes = (
(640,0,l),
(640,1465,l),
(169,1465,l),
(169,0,l)
);
},
{
closed = 1;
nodes = (
(1364,564,l),
(1364,921,l),
(301,921,l),
(301,564,l)
);
},
{
closed = 1;
nodes = (
(1671,0,l),
(1869,303,l),
(1491,303,l),
(1491,0,l)
);
},
{
closed = 1;
nodes = (
(1582,-434,l),
(1869,303,l),
(1370,303,l),
(1227,-434,l)
);
}
);
width = 1831;
},
{
layerId = "F06CBC40-6010-41C8-A897-7AE20112A561";
shapes = (
{
closed = 1;
nodes = (
(1546,0,l),
(1546,1465,l),
(1176,1465,l),
(1176,0,l)
);
},
{
closed = 1;
nodes = (
(566,0,l),
(566,1465,l),
(193,1465,l),
(193,0,l)
);
},
{
closed = 1;
nodes = (
(1377,600,l),
(1377,885,l),
(299,885,l),
(299,600,l)
);
},
{
closed = 1;
nodes = (
(1655,0,l),
(1813,245,l),
(1473,245,l),
(1473,0,l)
);
},
{
closed = 1;
nodes = (
(1540,-434,l),
(1813,245,l),
(1418,245,l),
(1258,-434,l)
);
}
);
width = 1809;
},
{
layerId = "338923BD-A73B-4463-96D5-6CCFD2C76DE7";
shapes = (
{
closed = 1;
nodes = (
(1490,0,l),
(1490,1465,l),
(1265,1465,l),
(1265,0,l)
);
},
{
closed = 1;
nodes = (
(456,0,l),
(456,1465,l),
(228,1465,l),
(228,0,l)
);
},
{
closed = 1;
nodes = (
(1397,654,l),
(1397,832,l),
(297,832,l),
(297,654,l)
);
},
{
closed = 1;
nodes = (
(1632,0,l),
(1728,159,l),
(1445,159,l),
(1445,0,l)
);
},
{
closed = 1;
nodes = (
(1477,-433,l),
(1728,159,l),
(1491,159,l),
(1304,-433,l)
);
}
);
width = 1775;
},
{
layerId = "E5A5C170-0FDF-4A9B-BA4A-24DEB95A442A";
shapes = (
{
closed = 1;
nodes = (
(1452,0,l),
(1452,1465,l),
(1325,1465,l),
(1325,0,l)
);
},
{
closed = 1;
nodes = (
(383,0,l),
(383,1465,l),
(251,1465,l),
(251,0,l)
);
},
{
closed = 1;
nodes = (
(1410,690,l),
(1410,796,l),
(296,796,l),
(296,690,l)
);
},
{
closed = 1;
nodes = (
(1617,0,l),
(1671,102,l),
(1427,102,l),
(1427,0,l)
);
},
{
closed = 1;
nodes = (
(1435,-433,l),
(1671,102,l),
(1539,102,l),
(1335,-433,l)
);
}
);
width = 1753;
}
);
leftKerningGroup = "Iu-cy";
rightKerningGroup = "Eltail-cy";
unicode = 1225;
},
{
glyphname = Eogonek;
layers = (
{
layerId = "48D2EA9E-46BD-4B15-B2EA-011CD0F10041";
shapes = (
{
closed = 1;
nodes = (
(1137,0,l),
(1182,257,l),
(611,257,l),
(611,636,l),
(1019,636,l),
(1057,869,l),
(611,869,l),
(611,1208,l),
(1132,1208,l),
(1177,1465,l),
(160,1465,l),
(160,0,l),
(804,0,l),
(711,-69,o),
(670,-150,o),
(670,-227,cs),
(670,-343,o),
(760,-435,o),
(904,-435,cs),
(1012,-435,o),
(1124,-382,o),
(1168,-344,c),
(1168,-209,l),
(1140,-223,o),
(1099,-228,o),
(1070,-228,cs),
(982,-228,o),
(946,-168,o),
(946,-122,cs),
(946,-70,o),
(991,-31,o),
(1037,0,c)
);
}
);
width = 1299;
},
{
layerId = "F06CBC40-6010-41C8-A897-7AE20112A561";
shapes = (
{
closed = 1;
nodes = (
(1109,0,l),
(1149,217,l),
(535,217,l),
(535,656,l),
(993,656,l),
(1027,855,l),
(535,855,l),
(535,1248,l),
(1100,1248,l),
(1139,1465,l),
(183,1465,l),
(183,0,l),
(822,0,l),
(731,-67,o),
(677,-151,o),
(677,-235,cs),
(677,-346,o),
(767,-434,o),
(900,-434,cs),
(996,-434,o),
(1094,-388,o),
(1142,-347,c),
(1142,-233,l),
(1112,-249,o),
(1059,-261,o),
(1023,-261,cs),
(942,-261,o),
(904,-207,o),
(904,-154,cs),
(904,-92,o),
(951,-43,o),
(1021,0,c)
);
}
);
width = 1277;
},
{
layerId = "338923BD-A73B-4463-96D5-6CCFD2C76DE7";
shapes = (
{
closed = 1;
nodes = (
(1068,0,l),
(1099,157,l),
(421,157,l),
(421,685,l),
(953,685,l),
(983,835,l),
(421,835,l),
(421,1308,l),
(1052,1308,l),
(1082,1465,l),
(217,1465,l),
(217,0,l),
(848,0,l),
(762,-63,o),
(687,-153,o),
(687,-248,cs),
(687,-351,o),
(778,-432,o),
(895,-432,cs),
(973,-432,o),
(1048,-396,o),
(1104,-351,c),
(1104,-270,l),
(1071,-289,o),
(999,-310,o),
(953,-310,cs),
(882,-310,o),
(841,-266,o),
(841,-201,cs),
(841,-126,o),
(892,-60,o),
(998,0,c)
);
}
);
width = 1243;
},
{
layerId = "E5A5C170-0FDF-4A9B-BA4A-24DEB95A442A";
shapes = (
{
closed = 1;
nodes = (
(1041,0,l),
(1066,117,l),
(345,117,l),
(345,705,l),
(926,705,l),
(954,822,l),
(345,822,l),
(345,1348,l),
(1020,1348,l),
(1044,1465,l),
(240,1465,l),
(240,0,l),
(866,0,l),
(783,-60,o),
(694,-154,o),
(694,-257,cs),
(694,-354,o),
(785,-431,o),
(891,-431,cs),
(957,-431,o),
(1018,-401,o),
(1078,-354,c),
(1078,-295,l),
(1044,-316,o),
(959,-343,o),
(906,-343,cs),
(842,-343,o),
(799,-305,o),
(799,-233,cs),
(799,-148,o),
(853,-72,o),
(983,0,c)
);
}
);
width = 1220;
}
);
rightKerningGroup = _E_Left;
unicode = 280;
},
{
glyphname = Epsilontonos;
rightMetricsKey = E;
layers = (
{
layerId = "48D2EA9E-46BD-4B15-B2EA-011CD0F10041";
shapes = (
{
closed = 1;
nodes = (
(514,1465,l),
(74,1465,l),
(-6,876,l),
(331,876,l)
);
},
{
alignment = -1;
pos = (468,0);
ref = E;
}
);
width = 1767;
},
{
layerId = "F06CBC40-6010-41C8-A897-7AE20112A561";
shapes = (
{
closed = 1;
nodes = (
(428,1465,l),
(77,1465,l),
(-16,872,l),
(253,872,l)
);
},
{
alignment = -1;
pos = (377,0);
ref = E;
}
);
width = 1648;
},
{
layerId = "338923BD-A73B-4463-96D5-6CCFD2C76DE7";
shapes = (
{
closed = 1;
nodes = (
(298,1465,l),
(82,1465,l),
(-30,865,l),
(135,865,l)
);
},
{
alignment = -1;
pos = (240,0);
ref = E;
}
);
width = 1468;
},
{
layerId = "E5A5C170-0FDF-4A9B-BA4A-24DEB95A442A";
shapes = (
{
closed = 1;
nodes = (
(212,1465,l),
(85,1465,l),
(-39,860,l),
(57,860,l)
);
},
{
alignment = -1;
pos = (149,0);
ref = E;
}
);
width = 1349;
}
);
rightKerningGroup = Epsilon;
unicode = 904;
},
{
glyphname = "Ereversed-cy";
layers = (
{
anchors = (
{
name = top;
position = "{651, 1465}";
}
);
layerId = "48D2EA9E-46BD-4B15-B2EA-011CD0F10041";
shapes = (
{
closed = 1;
nodes = (
(1053,-41,o),
(1384,269,o),
(1384,764,cs),
(1384,1220,o),
(1104,1505,o),
(597,1505,cs),
(420,1505,o),
(226,1468,o),
(92,1389,c),
(241,1074,l),
(292,1130,o),
(383,1187,o),
(525,1187,cs),
(745,1187,o),
(904,1021,o),
(904,702,cs),
(904,403,o),
(762,272,o),
(570,272,cs),
(453,272,o),
(337,327,o),
(235,422,c),
(80,101,l),
(220,-1,o),
(409,-41,o),
(571,-41,cs)
);
},
{
closed = 1;
nodes = (
(1015,616,l),
(1043,886,l),
(390,912,l),
(357,571,l)
);
}
);
width = 1486;
},
{
anchors = (
{
name = top;
position = "{649, 1465}";
}
);
layerId = "F06CBC40-6010-41C8-A897-7AE20112A561";
shapes = (
{
closed = 1;
nodes = (
(1039,-34,o),
(1372,271,o),
(1372,758,cs),
(1372,1206,o),
(1090,1499,o),
(601,1499,cs),
(422,1499,o),
(238,1458,o),
(104,1375,c),
(227,1120,l),
(294,1186,o),
(395,1244,o),
(545,1244,cs),
(806,1244,o),
(990,1047,o),
(990,708,cs),
(990,383,o),
(817,218,o),
(582,218,cs),
(451,218,o),
(327,273,o),
(216,372,c),
(86,115,l),
(227,10,o),
(409,-34,o),
(577,-34,cs)
);
},
{
closed = 1;
nodes = (
(1081,640,l),
(1103,859,l),
(404,880,l),
(379,605,l)
);
}
);
width = 1481;
},
{
anchors = (
{
name = top;
position = "{645, 1465}";
}
);
layerId = "338923BD-A73B-4463-96D5-6CCFD2C76DE7";
shapes = (
{
closed = 1;
nodes = (
(1018,-24,o),
(1353,273,o),
(1353,748,cs),
(1353,1186,o),
(1068,1489,o),
(608,1489,cs),
(424,1489,o),
(255,1443,o),
(121,1355,c),
(207,1188,l),
(298,1269,o),
(414,1329,o),
(576,1329,cs),
(897,1329,o),
(1120,1085,o),
(1120,716,cs),
(1120,352,o),
(900,136,o),
(601,136,cs),
(447,136,o),
(311,191,o),
(187,298,c),
(96,135,l),
(237,26,o),
(408,-24,o),
(587,-24,cs)
);
},
{
closed = 1;
nodes = (
(1181,677,l),
(1194,819,l),
(426,831,l),
(411,656,l)
);
}
);
width = 1474;
},
{
anchors = (
{
name = top;
position = "{643, 1465}";
}
);
layerId = "E5A5C170-0FDF-4A9B-BA4A-24DEB95A442A";
shapes = (
{
closed = 1;
nodes = (
(1004,-17,o),
(1340,275,o),
(1340,741,cs),
(1340,1172,o),
(1054,1482,o),
(612,1482,cs),
(425,1482,o),
(267,1433,o),
(133,1342,c),
(193,1233,l),
(300,1325,o),
(427,1386,o),
(596,1386,cs),
(958,1386,o),
(1206,1110,o),
(1206,722,cs),
(1206,332,o),
(955,81,o),
(614,81,cs),
(445,81,o),
(300,136,o),
(168,249,c),
(102,149,l),
(244,37,o),
(407,-17,o),
(594,-17,cs)
);
},
{
closed = 1;
nodes = (
(1248,701,l),
(1254,792,l),
(441,798,l),
(433,690,l)
);
}
);
width = 1469;
}
);
leftKerningGroup = "Edieresis-cy";
rightKerningGroup = "Edieresis-cy1";
unicode = 1069;
},
{
color = 8;
glyphname = "Ertick-cy";
layers = (
{
anchors = (
{
name = bottom;
position = "{691, 0}";
},
{
name = top;
position = "{691, 1465}";
}
);
layerId = "48D2EA9E-46BD-4B15-B2EA-011CD0F10041";
shapes = (
{
closed = 1;
nodes = (
(1069,150,l),
(1286,274,l),
(860,1013,l),
(644,887,l)
);
},
{
alignment = -1;
ref = P;
}
);
width = 1480;
},
{
anchors = (
{
name = bottom;
position = "{677, 0}";
},
{
name = top;
position = "{677, 1465}";
}
);
layerId = "F06CBC40-6010-41C8-A897-7AE20112A561";
shapes = (
{
closed = 1;
nodes = (
(1051,176,l),
(1230,278,l),
(813,1001,l),
(635,897,l)
);
},
{
alignment = -1;
ref = P;
}
);
width = 1433;
},
{
anchors = (
{
name = bottom;
position = "{655, 0}";
},
{
name = top;
position = "{655, 1465}";
}
);
layerId = "338923BD-A73B-4463-96D5-6CCFD2C76DE7";
shapes = (
{
closed = 1;
nodes = (
(1023,216,l),
(1145,285,l),
(743,982,l),
(621,913,l)
);
},
{
alignment = -1;
ref = P;
}
);
width = 1363;
},
{
anchors = (
{
name = bottom;
position = "{641, 0}";
},
{
name = top;
position = "{641, 1465}";
}
);
layerId = "E5A5C170-0FDF-4A9B-BA4A-24DEB95A442A";
shapes = (
{
closed = 1;
nodes = (
(1004,242,l),
(1088,290,l),
(696,970,l),
(612,923,l)
);
},
{
alignment = -1;
ref = P;
}
);
width = 1316;
}
);
leftKerningGroup = "I-cy";
unicode = 1166;
},
{
glyphname = "Esdescender-cy";
layers = (
{
anchors = (
{
name = _bottom;
position = "{870, 0}";
}
);
layerId = "48D2EA9E-46BD-4B15-B2EA-011CD0F10041";
shapes = (
{
closed = 1;
nodes = (
(1039,-378,l),
(1076,87,l),
(663,87,l),
(699,-378,l)
);
},
{
alignment = -1;
ref = C;
}
);
width = 1473;
},
{
anchors = (
{
name = _bottom;
position = "{864, 0}";
}
);
layerId = "F06CBC40-6010-41C8-A897-7AE20112A561";
shapes = (
{
closed = 1;
nodes = (
(998,-384,l),
(1029,70,l),
(699,70,l),
(728,-384,l)
);
},
{
alignment = -1;
ref = C;
}
);
width = 1467;
},
{
anchors = (
{
name = _bottom;
position = "{854, 0}";
}
);
layerId = "338923BD-A73B-4463-96D5-6CCFD2C76DE7";
shapes = (
{
closed = 1;
nodes = (
(937,-393,l),
(958,45,l),
(752,45,l),
(772,-393,l)
);
},
{
alignment = -1;
ref = C;
}
);
width = 1458;
},
{
anchors = (
{
name = _bottom;
position = "{847, 0}";
}
);
layerId = "E5A5C170-0FDF-4A9B-BA4A-24DEB95A442A";
shapes = (
{
closed = 1;
nodes = (
(896,-399,l),
(911,28,l),
(788,28,l),
(801,-399,l)
);
},
{
alignment = -1;
ref = C;
}
);
width = 1452;
}
);
leftKerningGroup = "Es-cy";
unicode = 1194;
},
{
color = 9;
glyphname = "Esdescender-cy.loclBSH";
layers = (
{
anchors = (
{
name = _bottom;
position = "{870, 0}";
}
);
layerId = "48D2EA9E-46BD-4B15-B2EA-011CD0F10041";
shapes = (
{
closed = 1;
nodes = (
(1041,-418,l),
(1078,-248,o),
(1060,-83,o),
(973,87,c),
(715,87,l),
(745,-83,o),
(724,-248,o),
(672,-418,c)
);
},
{
alignment = -1;
ref = C;
}
);
width = 1473;
},
{
anchors = (
{
name = _bottom;
position = "{864, 0}";
}
);
layerId = "F06CBC40-6010-41C8-A897-7AE20112A561";
shapes = (
{
closed = 1;
nodes = (
(997,-422,l),
(1032,-258,o),
(1018,-96,o),
(946,70,c),
(736,70,l),
(764,-96,o),
(747,-258,o),
(698,-422,c)
);
},
{
alignment = -1;
ref = C;
}
);
width = 1467;
},
{
anchors = (
{
name = _bottom;
position = "{854, 0}";
}
);
layerId = "338923BD-A73B-4463-96D5-6CCFD2C76DE7";
shapes = (
{
closed = 1;
nodes = (
(930,-429,l),
(963,-272,o),
(955,-115,o),
(906,45,c),
(767,45,l),
(793,-115,o),
(782,-272,o),
(738,-429,c)
);
},
{
alignment = -1;
ref = C;
}
);
width = 1458;
},
{
anchors = (
{
name = _bottom;
position = "{847, 0}";
}
);
layerId = "E5A5C170-0FDF-4A9B-BA4A-24DEB95A442A";
shapes = (
{
closed = 1;
nodes = (
(886,-433,l),
(917,-281,o),
(913,-128,o),
(879,28,c),
(788,28,l),
(812,-128,o),
(805,-281,o),
(765,-433,c)
);
},
{
alignment = -1;
ref = C;
}
);
width = 1452;
}
);
leftKerningGroup = "Es-cy";
},
{
glyphname = Etatonos;
rightMetricsKey = H;
layers = (
{
layerId = "48D2EA9E-46BD-4B15-B2EA-011CD0F10041";
shapes = (
{
closed = 1;
nodes = (
(514,1465,l),
(74,1465,l),
(-6,876,l),
(331,876,l)
);
},
{
alignment = -1;
pos = (472,1);
ref = H;
}
);
width = 2188;
},
{
layerId = "F06CBC40-6010-41C8-A897-7AE20112A561";
shapes = (
{
closed = 1;
nodes = (
(428,1465,l),
(77,1465,l),
(-16,872,l),
(253,872,l)
);
},
{
alignment = -1;
pos = (380,1);
ref = H;
}
);
width = 2060;
},
{
layerId = "338923BD-A73B-4463-96D5-6CCFD2C76DE7";
shapes = (
{
closed = 1;
nodes = (
(298,1465,l),
(82,1465,l),
(-30,865,l),
(135,865,l)
);
},
{
alignment = -1;
pos = (241,0);
ref = H;
}
);
width = 1866;
},
{
layerId = "E5A5C170-0FDF-4A9B-BA4A-24DEB95A442A";
shapes = (
{
closed = 1;
nodes = (
(212,1465,l),
(85,1465,l),
(-39,860,l),
(57,860,l)
);
},
{
alignment = -1;
pos = (149,0);
ref = H;
}
);
width = 1738;
}
);
rightKerningGroup = Nu1;
unicode = 905;
},
{
glyphname = Eth;
layers = (
{
background = {
shapes = (
{
closed = 1;
nodes = (
(30,692,l),
(222,692,l),
(222,472,o),
(218,228,o),
(210,0,c),
(376,-12,o),
(638,-18,o),
(702,-18,cs),
(1280,-18,o),
(1536,376,o),
(1536,790,cs),
(1536,1240,o),
(1244,1512,o),
(718,1512,cs),
(618,1512,o),
(398,1504,o),
(210,1484,c),
(216,1266,o),
(220,1026,o),
(222,818,c),
(40,814,l)
);
},
{
closed = 1;
nodes = (
(428,320,o),
(426,514,o),
(426,692,c),
(796,692,l),
(824,836,l),
(426,824,l),
(426,992,o),
(428,1176,o),
(438,1354,c),
(518,1362,o),
(638,1364,o),
(678,1364,cs),
(1074,1364,o),
(1306,1128,o),
(1306,754,cs),
(1306,418,o),
(1132,128,o),
(736,128,cs),
(682,128,o),
(572,132,o),
(438,150,c)
);
}
);
};
layerId = "48D2EA9E-46BD-4B15-B2EA-011CD0F10041";
shapes = (
{
closed = 1;
nodes = (
(42,874,l),
(42,593,l),
(183,593,l),
(183,0,l),
(754,-1,ls),
(1392,-2,o),
(1604,416,o),
(1604,784,cs),
(1604,1211,o),
(1319,1465,o),
(805,1465,cs),
(183,1465,l),
(183,874,l)
);
},
{
closed = 1;
nodes = (
(634,1208,l),
(778,1208,ls),
(1010,1208,o),
(1140,1076,o),
(1140,756,cs),
(1140,464,o),
(1033,257,o),
(794,257,cs),
(634,257,l),
(634,593,l),
(897,593,l),
(897,874,l),
(634,874,l)
);
}
);
width = 1694;
},
{
layerId = "F06CBC40-6010-41C8-A897-7AE20112A561";
shapes = (
{
closed = 1;
nodes = (
(37,845,l),
(37,621,l),
(198,621,l),
(198,0,l),
(724,-1,ls),
(1333,-2,o),
(1562,412,o),
(1562,781,cs),
(1562,1200,o),
(1294,1465,o),
(770,1465,cs),
(198,1465,l),
(198,845,l)
);
},
{
closed = 1;
nodes = (
(550,1248,l),
(741,1248,ls),
(1034,1248,o),
(1200,1086,o),
(1200,754,cs),
(1200,449,o),
(1059,217,o),
(760,217,cs),
(550,217,l),
(550,621,l),
(860,621,l),
(860,845,l),
(550,845,l)
);
}
);
width = 1675;
},
{
layerId = "338923BD-A73B-4463-96D5-6CCFD2C76DE7";
shapes = (
{
closed = 1;
nodes = (
(30,802,l),
(30,664,l),
(220,664,l),
(220,0,l),
(678,0,l),
(1245,-1,o),
(1499,407,o),
(1499,776,cs),
(1499,1183,o),
(1256,1465,o),
(718,1465,cs),
(220,1465,l),
(220,802,l)
);
},
{
closed = 1;
nodes = (
(424,1308,l),
(686,1308,ls),
(1071,1308,o),
(1289,1100,o),
(1289,752,cs),
(1289,427,o),
(1099,157,o),
(708,157,cs),
(424,157,l),
(424,664,l),
(805,664,l),
(805,802,l),
(424,802,l)
);
}
);
width = 1646;
},
{
layerId = "E5A5C170-0FDF-4A9B-BA4A-24DEB95A442A";
shapes = (
{
closed = 1;
nodes = (
(25,773,l),
(25,692,l),
(235,692,l),
(235,0,l),
(647,0,ls),
(1186,0,o),
(1457,403,o),
(1457,773,cs),
(1457,1172,o),
(1231,1465,o),
(683,1465,cs),
(235,1465,l),
(235,773,l)
);
},
{
closed = 1;
nodes = (
(340,1348,l),
(649,1348,ls),
(1095,1348,o),
(1348,1110,o),
(1348,750,cs),
(1348,412,o),
(1126,117,o),
(674,117,cs),
(340,117,l),
(340,692,l),
(768,692,l),
(768,773,l),
(340,773,l)
);
}
);
width = 1627;
}
);
rightKerningGroup = _D_Left;
unicode = 208;
},
{
glyphname = F;
layers = (
{
background = {
shapes = (
{
closed = 0;
nodes = (
(209,348,l),
(481,348,l),
(494,415,l),
(209,415,l)
);
}
);
};
layerId = "48D2EA9E-46BD-4B15-B2EA-011CD0F10041";
shapes = (
{
closed = 1;
nodes = (
(611,0,l),
(611,636,l),
(1019,636,l),
(1057,869,l),
(611,869,l),
(611,1208,l),
(1132,1208,l),
(1177,1465,l),
(160,1465,l),
(160,0,l)
);
}
);
width = 1265;
},
{
layerId = "F06CBC40-6010-41C8-A897-7AE20112A561";
shapes = (
{
closed = 1;
nodes = (
(535,0,l),
(535,656,l),
(993,656,l),
(1027,855,l),
(535,855,l),
(535,1248,l),
(1100,1248,l),
(1139,1465,l),
(183,1465,l),
(183,0,l)
);
}
);
width = 1232;
},
{
layerId = "338923BD-A73B-4463-96D5-6CCFD2C76DE7";
shapes = (
{
closed = 1;
nodes = (
(421,0,l),
(421,685,l),
(953,685,l),
(983,835,l),
(421,835,l),
(421,1308,l),
(1052,1308,l),
(1082,1465,l),
(217,1465,l),
(217,0,l)
);
}
);
width = 1182;
},
{
layerId = "E5A5C170-0FDF-4A9B-BA4A-24DEB95A442A";
shapes = (
{
closed = 1;
nodes = (
(345,0,l),
(345,705,l),
(926,705,l),
(954,822,l),
(345,822,l),
(345,1348,l),
(1020,1348,l),
(1044,1465,l),
(240,1465,l),
(240,0,l)
);
}
);
width = 1149;
}
);
unicode = 70;
},
{
glyphname = "Fita-cy";
widthMetricsKey = O;
layers = (
{
layerId = "48D2EA9E-46BD-4B15-B2EA-011CD0F10041";
shapes = (
{
closed = 1;
nodes = (
(691,532,l),
(708,571,o),
(735,593,o),
(784,593,cs),
(848,593,o),
(926,541,o),
(1014,541,cs),
(1152,541,o),
(1208,660,o),
(1246,894,c),
(1055,943,l),
(1032,893,o),
(1001,880,o),
(957,880,cs),
(892,880,o),
(815,931,o),
(725,931,cs),
(591,931,o),
(532,786,o),
(503,588,c)
);
},
{
alignment = -1;
ref = O;
}
);
width = 1743;
},
{
layerId = "F06CBC40-6010-41C8-A897-7AE20112A561";
shapes = (
{
closed = 1;
nodes = (
(635,557,l),
(658,605,o),
(700,631,o),
(757,631,cs),
(840,631,o),
(921,568,o),
(1026,568,cs),
(1160,568,o),
(1226,675,o),
(1265,877,c),
(1109,917,l),
(1082,861,o),
(1039,840,o),
(983,840,cs),
(899,840,o),
(815,903,o),
(713,903,cs),
(585,903,o),
(514,776,o),
(481,603,c)
);
},
{
alignment = -1;
ref = O;
}
);
width = 1751;
},
{
layerId = "338923BD-A73B-4463-96D5-6CCFD2C76DE7";
shapes = (
{
closed = 1;
nodes = (
(550,595,l),
(584,657,o),
(647,688,o),
(717,688,cs),
(829,688,o),
(913,608,o),
(1043,608,cs),
(1171,608,o),
(1252,698,o),
(1293,852,c),
(1191,878,l),
(1158,812,o),
(1096,781,o),
(1023,781,cs),
(910,781,o),
(814,860,o),
(696,860,cs),
(575,860,o),
(486,762,o),
(447,626,c)
);
},
{
alignment = -1;
ref = O;
}
);
width = 1762;
},
{
layerId = "E5A5C170-0FDF-4A9B-BA4A-24DEB95A442A";
shapes = (
{
closed = 1;
nodes = (
(494,620,l),
(535,692,o),
(612,726,o),
(690,726,cs),
(822,726,o),
(908,635,o),
(1054,635,cs),
(1178,635,o),
(1269,713,o),
(1312,835,c),
(1246,852,l),
(1208,780,o),
(1134,741,o),
(1050,741,cs),
(917,741,o),
(814,832,o),
(685,832,cs),
(569,832,o),
(468,753,o),
(425,641,c)
);
},
{
alignment = -1;
ref = O;
}
);
width = 1769;
}
);
unicode = 1138;
},
{
glyphname = G;
layers = (
{
background = {
shapes = (
{
closed = 1;
nodes = (
(1374,686,l),
(1198,686,l),
(1198,152,l),
(1099,121,o),
(1002,107,o),
(923,107,cs),
(558,107,o),
(352,394,o),
(352,735,cs),
(352,1095,o),
(582,1358,o),
(919,1358,cs),
(1012,1358,o),
(1140,1340,o),
(1287,1273,c),
(1307,1283,l),
(1340,1435,l),
(1194,1479,o),
(1059,1493,o),
(964,1493,cs),
(525,1493,o),
(148,1198,o),
(148,695,cs),
(148,333,o),
(345,61,o),
(699,-10,cs),
(758,-22,o),
(822,-28,o),
(889,-28,cs),
(1022,-28,o),
(1190,-4,o),
(1374,67,c)
);
}
);
};
layerId = "48D2EA9E-46BD-4B15-B2EA-011CD0F10041";
shapes = (
{
closed = 1;
nodes = (
(855,585,l),
(1033,585,l),
(1033,247,l),
(1018,240,o),
(952,237,o),
(925,237,cs),
(699,237,o),
(554,436,o),
(554,741,cs),
(554,1063,o),
(714,1228,o),
(973,1228,cs),
(1059,1228,o),
(1183,1209,o),
(1291,1155,c),
(1311,1163,l),
(1373,1438,l),
(1245,1472,o),
(1062,1485,o),
(965,1485,cs),
(519,1485,o),
(90,1219,o),
(90,662,cs),
(90,257,o),
(314,-20,o),
(866,-20,cs),
(1058,-20,o),
(1233,15,o),
(1428,86,c),
(1428,860,l),
(855,860,l)
);
}
);
width = 1565;
},
{
layerId = "F06CBC40-6010-41C8-A897-7AE20112A561";
shapes = (
{
closed = 1;
nodes = (
(809,613,l),
(1098,613,l),
(1098,221,l),
(1050,204,o),
(972,197,o),
(923,197,cs),
(643,197,o),
(476,423,o),
(476,736,cs),
(476,1065,o),
(660,1268,o),
(956,1268,cs),
(1039,1268,o),
(1166,1251,o),
(1289,1192,c),
(1309,1201,l),
(1359,1430,l),
(1233,1470,o),
(1056,1485,o),
(957,1485,cs),
(517,1485,o),
(113,1200,o),
(113,678,cs),
(113,255,o),
(354,-20,o),
(876,-20,cs),
(1043,-20,o),
(1219,11,o),
(1410,82,c),
(1410,839,l),
(809,839,l)
);
}
);
width = 1571;
},
{
layerId = "338923BD-A73B-4463-96D5-6CCFD2C76DE7";
shapes = (
{
closed = 1;
nodes = (
(740,656,l),
(1195,656,l),
(1195,181,l),
(1098,150,o),
(1001,137,o),
(921,137,cs),
(560,137,o),
(359,404,o),
(359,728,cs),
(359,1068,o),
(580,1328,o),
(930,1328,cs),
(1009,1328,o),
(1141,1315,o),
(1287,1248,c),
(1307,1259,l),
(1339,1417,l),
(1214,1468,o),
(1048,1485,o),
(946,1485,cs),
(513,1485,o),
(147,1172,o),
(147,701,cs),
(147,253,o),
(415,-20,o),
(891,-20,cs),
(1020,-20,o),
(1198,4,o),
(1382,75,c),
(1382,808,l),
(740,808,l)
);
}
);
width = 1580;
},
{
layerId = "E5A5C170-0FDF-4A9B-BA4A-24DEB95A442A";
shapes = (
{
closed = 1;
nodes = (
(694,684,l),
(1260,684,l),
(1260,155,l),
(1130,114,o),
(1020,97,o),
(920,97,cs),
(505,97,o),
(281,391,o),
(281,723,cs),
(281,1070,o),
(526,1368,o),
(913,1368,cs),
(989,1368,o),
(1124,1357,o),
(1285,1285,c),
(1305,1297,l),
(1325,1409,l),
(1201,1466,o),
(1043,1485,o),
(939,1485,cs),
(510,1485,o),
(170,1153,o),
(170,716,cs),
(170,251,o),
(456,-20,o),
(901,-20,cs),
(1005,-20,o),
(1184,0,o),
(1364,71,c),
(1364,787,l),
(694,787,l)
);
}
);
width = 1586;
}
);
leftKerningGroup = _C_Right;
rightKerningGroup = _G_Left;
unicode = 71;
},
{
glyphname = Gamma;
layers = (
{
anchors = (
{
name = bottomright;
position = "{637, 0}";
},
{
name = top;
position = "{664, 1465}";
}
);
layerId = "48D2EA9E-46BD-4B15-B2EA-011CD0F10041";
shapes = (
{
closed = 1;
nodes = (
(637,0,l),
(637,1465,l),
(168,1465,l),
(168,0,l)
);
},
{
closed = 1;
nodes = (
(1122,1108,l),
(1122,1465,l),
(407,1465,l),
(407,1108,l)
);
}
);
width = 1203;
},
{
anchors = (
{
name = bottomright;
position = "{565, 0}";
},
{
name = top;
position = "{680, 1465}";
}
);
layerId = "F06CBC40-6010-41C8-A897-7AE20112A561";
shapes = (
{
closed = 1;
nodes = (
(565,0,l),
(565,1465,l),
(192,1465,l),
(192,0,l)
);
},
{
closed = 1;
nodes = (
(1108,1180,l),
(1108,1465,l),
(381,1465,l),
(381,1180,l)
);
}
);
width = 1183;
},
{
anchors = (
{
name = bottomright;
position = "{457, 0}";
},
{
name = top;
position = "{705, 1465}";
}
);
layerId = "338923BD-A73B-4463-96D5-6CCFD2C76DE7";
shapes = (
{
closed = 1;
nodes = (
(457,0,l),
(457,1465,l),
(227,1465,l),
(227,0,l)
);
},
{
closed = 1;
nodes = (
(1087,1288,l),
(1087,1465,l),
(341,1465,l),
(341,1288,l)
);
}
);
width = 1152;
},
{
anchors = (
{
name = bottomright;
position = "{385, 0}";
},
{
name = top;
position = "{722, 1465}";
}
);
layerId = "E5A5C170-0FDF-4A9B-BA4A-24DEB95A442A";
shapes = (
{
closed = 1;
nodes = (
(385,0,l),
(385,1465,l),
(251,1465,l),
(251,0,l)
);
},
{
closed = 1;
nodes = (
(1073,1360,l),
(1073,1465,l),
(314,1465,l),
(314,1360,l)
);
}
);
width = 1132;
}
);
unicode = 915;
},
{
glyphname = "Ge-cy";
layers = (
{
anchors = (
{
name = bottomright;
position = "{641, 0}";
},
{
name = top;
position = "{682, 1480}";
}
);
layerId = "48D2EA9E-46BD-4B15-B2EA-011CD0F10041";
shapes = (
{
closed = 1;
nodes = (
(641,0,l),
(641,1480,l),
(172,1480,l),
(172,0,l)
);
},
{
closed = 1;
nodes = (
(1176,1122,l),
(1176,1480,l),
(409,1480,l),
(409,1122,l)
);
}
);
width = 1254;
},
{
anchors = (
{
name = bottomright;
position = "{561, 0}";
},
{
name = top;
position = "{668, 1450}";
}
);
layerId = "F06CBC40-6010-41C8-A897-7AE20112A561";
shapes = (
{
closed = 1;
nodes = (
(561,0,l),
(561,1450,l),
(190,1450,l),
(190,0,l)
);
},
{
closed = 1;
nodes = (
(1130,1166,l),
(1130,1450,l),
(377,1450,l),
(377,1166,l)
);
}
);
width = 1202;
},
{
anchors = (
{
name = bottomright;
position = "{441, 0}";
},
{
name = top;
position = "{646, 1406}";
}
);
layerId = "338923BD-A73B-4463-96D5-6CCFD2C76DE7";
shapes = (
{
closed = 1;
nodes = (
(441,0,l),
(441,1406,l),
(218,1406,l),
(218,0,l)
);
},
{
closed = 1;
nodes = (
(1062,1233,l),
(1062,1406,l),
(328,1406,l),
(328,1233,l)
);
}
);
width = 1125;
},
{
anchors = (
{
name = bottomright;
position = "{361, 0}";
},
{
name = top;
position = "{631, 1376}";
}
);
layerId = "E5A5C170-0FDF-4A9B-BA4A-24DEB95A442A";
shapes = (
{
closed = 1;
nodes = (
(361,0,l),
(361,1376,l),
(236,1376,l),
(236,0,l)
);
},
{
closed = 1;
nodes = (
(1017,1277,l),
(1017,1376,l),
(295,1376,l),
(295,1277,l)
);
}
);
width = 1073;
}
);
leftKerningGroup = "I-cy";
rightKerningGroup = "Ge-cy";
unicode = 1043;
},
{
glyphname = "Gedescender-cy";
layers = (
{
anchors = (
{
name = top;
position = "{682, 1480}";
}
);
layerId = "48D2EA9E-46BD-4B15-B2EA-011CD0F10041";
shapes = (
{
closed = 1;
nodes = (
(641,0,l),
(641,1480,l),
(172,1480,l),
(172,0,l)
);
},
{
closed = 1;
nodes = (
(1176,1122,l),
(1176,1480,l),
(409,1480,l),
(409,1122,l)
);
},
{
closed = 1;
nodes = (
(676,0,l),
(882,389,l),
(544,389,l),
(544,0,l)
);
},
{
closed = 1;
nodes = (
(882,-384,l),
(882,389,l),
(461,389,l),
(548,-384,l)
);
}
);
width = 1215;
},
{
anchors = (
{
name = top;
position = "{668, 1450}";
}
);
layerId = "F06CBC40-6010-41C8-A897-7AE20112A561";
shapes = (
{
closed = 1;
nodes = (
(561,0,l),
(561,1450,l),
(190,1450,l),
(190,0,l)
);
},
{
closed = 1;
nodes = (
(1130,1166,l),
(1130,1450,l),
(377,1450,l),
(377,1166,l)
);
},
{
closed = 1;
nodes = (
(624,0,l),
(788,305,l),
(478,305,l),
(478,0,l)
);
},
{
closed = 1;
nodes = (
(788,-382,l),
(788,305,l),
(452,305,l),
(522,-382,l)
);
}
);
width = 1171;
},
{
anchors = (
{
name = top;
position = "{646, 1406}";
}
);
layerId = "338923BD-A73B-4463-96D5-6CCFD2C76DE7";
shapes = (
{
closed = 1;
nodes = (
(441,0,l),
(441,1406,l),
(218,1406,l),
(218,0,l)
);
},
{
closed = 1;
nodes = (
(1062,1233,l),
(1062,1406,l),
(328,1406,l),
(328,1233,l)
);
},
{
closed = 1;
nodes = (
(547,0,l),
(648,180,l),
(380,180,l),
(380,0,l)
);
},
{
closed = 1;
nodes = (
(648,-378,l),
(648,180,l),
(438,180,l),
(482,-378,l)
);
}
);
width = 1106;
},
{
anchors = (
{
name = top;
position = "{631, 1376}";
}
);
layerId = "E5A5C170-0FDF-4A9B-BA4A-24DEB95A442A";
shapes = (
{
closed = 1;
nodes = (
(361,0,l),
(361,1376,l),
(236,1376,l),
(236,0,l)
);
},
{
closed = 1;
nodes = (
(1017,1277,l),
(1017,1376,l),
(295,1376,l),
(295,1277,l)
);
},
{
closed = 1;
nodes = (
(495,0,l),
(554,96,l),
(315,96,l),
(315,0,l)
);
},
{
closed = 1;
nodes = (
(554,-375,l),
(554,96,l),
(429,96,l),
(455,-375,l)
);
}
);
width = 1063;
}
);
unicode = 1270;
},
{
color = 8;
glyphname = "Gestrokehook-cy";
layers = (
{
layerId = "48D2EA9E-46BD-4B15-B2EA-011CD0F10041";
shapes = (
{
closed = 1;
nodes = (
(704,0,l),
(704,1465,l),
(235,1465,l),
(235,0,l)
);
},
{
closed = 1;
nodes = (
(345,-500,l),
(765,-500,o),
(968,-373,o),
(962,0,c),
(960,245,l),
(493,245,l),
(493,0,l),
(582,0,l),
(582,-145,o),
(575,-264,o),
(345,-264,c)
);
},
{
closed = 1;
nodes = (
(970,544,l),
(970,827,l),
(39,827,l),
(39,544,l)
);
},
{
closed = 1;
nodes = (
(1244,1108,l),
(1244,1465,l),
(473,1465,l),
(473,1108,l)
);
}
);
width = 1323;
},
{
layerId = "F06CBC40-6010-41C8-A897-7AE20112A561";
shapes = (
{
closed = 1;
nodes = (
(632,0,l),
(632,1465,l),
(259,1465,l),
(259,0,l)
);
},
{
closed = 1;
nodes = (
(355,-488,l),
(729,-488,o),
(910,-357,o),
(906,0,cs),
(904,202,l),
(464,202,l),
(464,0,l),
(602,0,l),
(602,-173,o),
(577,-298,o),
(355,-298,c)
);
},
{
closed = 1;
nodes = (
(919,588,l),
(919,817,l),
(55,817,l),
(55,588,l)
);
},
{
closed = 1;
nodes = (
(1240,1180,l),
(1240,1465,l),
(447,1465,l),
(447,1180,l)
);
}
);
width = 1315;
},
{
layerId = "338923BD-A73B-4463-96D5-6CCFD2C76DE7";
shapes = (
{
closed = 1;
nodes = (
(525,0,l),
(525,1465,l),
(294,1465,l),
(294,0,l)
);
},
{
closed = 1;
nodes = (
(369,-469,l),
(674,-469,o),
(823,-332,o),
(821,0,c),
(819,137,l),
(420,137,l),
(420,0,l),
(631,0,l),
(631,-214,o),
(581,-348,o),
(369,-348,c)
);
},
{
closed = 1;
nodes = (
(843,653,l),
(843,802,l),
(80,802,l),
(80,653,l)
);
},
{
closed = 1;
nodes = (
(1233,1287,l),
(1233,1465,l),
(407,1465,l),
(407,1287,l)
);
}
);
width = 1304;
},
{
layerId = "E5A5C170-0FDF-4A9B-BA4A-24DEB95A442A";
shapes = (
{
closed = 1;
nodes = (
(453,0,l),
(453,1465,l),
(318,1465,l),
(318,0,l)
);
},
{
closed = 1;
nodes = (
(378,-456,l),
(638,-456,o),
(765,-316,o),
(765,0,c),
(762,94,l),
(391,94,l),
(391,0,l),
(650,0,l),
(650,-242,o),
(584,-381,o),
(378,-381,c)
);
},
{
closed = 1;
nodes = (
(792,696,l),
(792,792,l),
(96,792,l),
(96,696,l)
);
},
{
closed = 1;
nodes = (
(1228,1359,l),
(1228,1465,l),
(381,1465,l),
(381,1359,l)
);
}
);
width = 1297;
}
);
unicode = 1274;
},
{
glyphname = "Ghemiddlehook-cy";
layers = (
{
anchors = (
{
name = bottomright;
position = "{479, 0}";
},
{
name = top;
position = "{469, 1480}";
}
);
layerId = "48D2EA9E-46BD-4B15-B2EA-011CD0F10041";
shapes = (
{
closed = 1;
nodes = (
(1333,-20,o),
(1459,258,o),
(1459,473,cs),
(1459,761,o),
(1283,917,o),
(1012,917,cs),
(820,917,o),
(637,853,o),
(553,790,c),
(576,519,l),
(623,552,o),
(721,583,o),
(831,583,cs),
(986,583,o),
(1046,514,o),
(1046,408,cs),
(1046,325,o),
(998,253,o),
(925,253,cs),
(896,253,o),
(861,263,o),
(829,276,c),
(729,75,l),
(773,21,o),
(864,-20,o),
(1003,-20,cs)
);
},
{
closed = 1;
nodes = (
(614,0,l),
(614,1480,l),
(172,1480,l),
(172,0,l)
);
},
{
closed = 1;
nodes = (
(1257,1122,l),
(1257,1480,l),
(459,1480,l),
(459,1122,l)
);
}
);
width = 1536;
},
{
anchors = (
{
name = bottomright;
position = "{445, 0}";
},
{
name = top;
position = "{529, 1450}";
}
);
layerId = "F06CBC40-6010-41C8-A897-7AE20112A561";
shapes = (
{
closed = 1;
nodes = (
(1263,-18,o),
(1391,240,o),
(1391,460,cs),
(1391,739,o),
(1223,889,o),
(954,889,cs),
(764,889,o),
(587,825,o),
(481,742,c),
(506,531,l),
(579,584,o),
(693,623,o),
(817,623,cs),
(989,623,o),
(1062,543,o),
(1062,406,cs),
(1062,293,o),
(1000,201,o),
(902,201,cs),
(866,201,o),
(825,213,o),
(787,230,c),
(704,67,l),
(749,20,o),
(834,-18,o),
(958,-18,cs)
);
},
{
closed = 1;
nodes = (
(542,0,l),
(542,1450,l),
(190,1450,l),
(190,0,l)
);
},
{
closed = 1;
nodes = (
(1209,1166,l),
(1209,1450,l),
(412,1450,l),
(412,1166,l)
);
}
);
width = 1476;
},
{
anchors = (
{
name = bottomright;
position = "{395, 0}";
},
{
name = top;
position = "{618, 1406}";
}
);
layerId = "338923BD-A73B-4463-96D5-6CCFD2C76DE7";
shapes = (
{
closed = 1;
nodes = (
(1159,-16,o),
(1290,212,o),
(1290,440,cs),
(1290,705,o),
(1133,846,o),
(866,846,cs),
(679,846,o),
(511,782,o),
(372,671,c),
(402,550,l),
(514,633,o),
(650,684,o),
(795,684,cs),
(994,684,o),
(1087,587,o),
(1087,404,cs),
(1087,244,o),
(1004,124,o),
(867,124,cs),
(822,124,o),
(770,139,o),
(725,162,c),
(667,56,l),
(714,19,o),
(788,-16,o),
(891,-16,cs)
);
},
{
closed = 1;
nodes = (
(433,0,l),
(433,1406,l),
(218,1406,l),
(218,0,l)
);
},
{
closed = 1;
nodes = (
(1138,1233,l),
(1138,1406,l),
(342,1406,l),
(342,1233,l)
);
}
);
width = 1385;
},
{
anchors = (
{
name = bottomright;
position = "{361, 0}";
},
{
name = top;
position = "{678, 1376}";
}
);
layerId = "E5A5C170-0FDF-4A9B-BA4A-24DEB95A442A";
shapes = (
{
closed = 1;
nodes = (
(1089,-14,o),
(1222,194,o),
(1222,427,cs),
(1222,682,o),
(1073,818,o),
(807,818,cs),
(622,818,o),
(460,753,o),
(299,624,c),
(333,563,l),
(471,666,o),
(622,724,o),
(781,724,cs),
(997,724,o),
(1103,616,o),
(1103,403,cs),
(1103,211,o),
(1006,72,o),
(844,72,cs),
(792,72,o),
(733,90,o),
(684,117,c),
(642,48,l),
(690,18,o),
(758,-14,o),
(846,-14,cs)
);
},
{
closed = 1;
nodes = (
(361,0,l),
(361,1376,l),
(236,1376,l),
(236,0,l)
);
},
{
closed = 1;
nodes = (
(1091,1277,l),
(1091,1376,l),
(295,1376,l),
(295,1277,l)
);
}
);
width = 1325;
}
);
unicode = 1172;
},
{
glyphname = "Ghestroke-cy";
layers = (
{
anchors = (
{
name = _center;
position = "{520, 689}";
},
{
name = bottomright;
position = "{708, 0}";
},
{
name = top;
position = "{749, 1480}";
}
);
layerId = "48D2EA9E-46BD-4B15-B2EA-011CD0F10041";
shapes = (
{
closed = 1;
nodes = (
(708,0,l),
(708,1480,l),
(238,1480,l),
(238,0,l)
);
},
{
closed = 1;
nodes = (
(1242,1122,l),
(1242,1480,l),
(477,1480,l),
(477,1122,l)
);
},
{
closed = 1;
nodes = (
(1001,548,l),
(1001,833,l),
(42,833,l),
(42,548,l)
);
}
);
width = 1282;
},
{
anchors = (
{
name = _center;
position = "{490, 691}";
},
{
name = bottomright;
position = "{627, 0}";
},
{
name = top;
position = "{733, 1450}";
}
);
layerId = "F06CBC40-6010-41C8-A897-7AE20112A561";
shapes = (
{
closed = 1;
nodes = (
(627,0,l),
(627,1450,l),
(256,1450,l),
(256,0,l)
);
},
{
closed = 1;
nodes = (
(1196,1166,l),
(1196,1450,l),
(443,1450,l),
(443,1166,l)
);
},
{
closed = 1;
nodes = (
(927,578,l),
(927,807,l),
(56,807,l),
(56,578,l)
);
}
);
width = 1238;
},
{
anchors = (
{
name = _center;
position = "{446, 695}";
},
{
name = bottomright;
position = "{506, 0}";
},
{
name = top;
position = "{710, 1406}";
}
);
layerId = "338923BD-A73B-4463-96D5-6CCFD2C76DE7";
shapes = (
{
closed = 1;
nodes = (
(506,0,l),
(506,1406,l),
(282,1406,l),
(282,0,l)
);
},
{
closed = 1;
nodes = (
(1126,1233,l),
(1126,1406,l),
(392,1406,l),
(392,1233,l)
);
},
{
closed = 1;
nodes = (
(816,622,l),
(816,768,l),
(78,768,l),
(78,622,l)
);
}
);
width = 1171;
},
{
anchors = (
{
name = _center;
position = "{416, 698}";
},
{
name = bottomright;
position = "{425, 0}";
},
{
name = top;
position = "{694, 1376}";
}
);
layerId = "E5A5C170-0FDF-4A9B-BA4A-24DEB95A442A";
shapes = (
{
closed = 1;
nodes = (
(425,0,l),
(425,1376,l),
(299,1376,l),
(299,0,l)
);
},
{
closed = 1;
nodes = (
(1080,1277,l),
(1080,1376,l),
(358,1376,l),
(358,1277,l)
);
},
{
closed = 1;
nodes = (
(742,652,l),
(742,742,l),
(92,742,l),
(92,652,l)
);
}
);
width = 1126;
}
);
unicode = 1170;
},
{
glyphname = "Gheupturn-cy";
layers = (
{
layerId = "48D2EA9E-46BD-4B15-B2EA-011CD0F10041";
shapes = (
{
closed = 1;
nodes = (
(641,0,l),
(641,1480,l),
(172,1480,l),
(172,0,l)
);
},
{
closed = 1;
nodes = (
(1133,1122,l),
(1133,1480,l),
(409,1480,l),
(409,1122,l)
);
},
{
closed = 1;
nodes = (
(1133,1282,l),
(1133,1766,l),
(813,1766,l),
(739,1282,l)
);
}
);
width = 1215;
},
{
layerId = "F06CBC40-6010-41C8-A897-7AE20112A561";
shapes = (
{
closed = 1;
nodes = (
(561,0,l),
(561,1450,l),
(190,1450,l),
(190,0,l)
);
},
{
closed = 1;
nodes = (
(1097,1166,l),
(1097,1450,l),
(377,1450,l),
(377,1166,l)
);
},
{
closed = 1;
nodes = (
(1097,1294,l),
(1097,1741,l),
(843,1741,l),
(782,1294,l)
);
}
);
width = 1171;
},
{
layerId = "338923BD-A73B-4463-96D5-6CCFD2C76DE7";
shapes = (
{
closed = 1;
nodes = (
(441,0,l),
(441,1406,l),
(218,1406,l),
(218,0,l)
);
},
{
closed = 1;
nodes = (
(1044,1233,l),
(1044,1406,l),
(328,1406,l),
(328,1233,l)
);
},
{
closed = 1;
nodes = (
(1044,1313,l),
(1044,1704,l),
(887,1704,l),
(847,1313,l)
);
}
);
width = 1106;
},
{
layerId = "E5A5C170-0FDF-4A9B-BA4A-24DEB95A442A";
shapes = (
{
closed = 1;
nodes = (
(361,0,l),
(361,1376,l),
(236,1376,l),
(236,0,l)
);
},
{
closed = 1;
nodes = (
(1008,1277,l),
(1008,1376,l),
(295,1376,l),
(295,1277,l)
);
},
{
closed = 1;
nodes = (
(1008,1325,l),
(1008,1679,l),
(917,1679,l),
(890,1325,l)
);
}
);
width = 1063;
}
);
leftKerningGroup = "I-cy";
unicode = 1168;
},
{
glyphname = "Gje-cy";
layers = (
{
anchors = (
{
name = bottomright;
position = "{641, 0}";
},
{
name = top;
position = "{769, 2062}";
}
);
layerId = "48D2EA9E-46BD-4B15-B2EA-011CD0F10041";
shapes = (
{
closed = 1;
nodes = (
(641,0,l),
(641,1480,l),
(172,1480,l),
(172,0,l)
);
},
{
closed = 1;
nodes = (
(1176,1122,l),
(1176,1480,l),
(409,1480,l),
(409,1122,l)
);
},
{
closed = 1;
nodes = (
(814,1642,l),
(1128,2090,l),
(612,2090,l),
(469,1642,l)
);
}
);
width = 1254;
},
{
anchors = (
{
name = bottomright;
position = "{561, 0}";
},
{
name = top;
position = "{753, 2008}";
}
);
layerId = "F06CBC40-6010-41C8-A897-7AE20112A561";
shapes = (
{
closed = 1;
nodes = (
(561,0,l),
(561,1450,l),
(190,1450,l),
(190,0,l)
);
},
{
closed = 1;
nodes = (
(1130,1166,l),
(1130,1450,l),
(377,1450,l),
(377,1166,l)
);
},
{
closed = 1;
nodes = (
(766,1612,l),
(1054,2034,l),
(648,2034,l),
(493,1612,l)
);
}
);
width = 1202;
},
{
anchors = (
{
name = bottomright;
position = "{441, 0}";
},
{
name = top;
position = "{730, 1928}";
}
);
layerId = "338923BD-A73B-4463-96D5-6CCFD2C76DE7";
shapes = (
{
closed = 1;
nodes = (
(441,0,l),
(441,1406,l),
(218,1406,l),
(218,0,l)
);
},
{
closed = 1;
nodes = (
(1062,1233,l),
(1062,1406,l),
(328,1406,l),
(328,1233,l)
);
},
{
closed = 1;
nodes = (
(695,1568,l),
(944,1951,l),
(701,1951,l),
(530,1568,l)
);
}
);
width = 1125;
},
{
anchors = (
{
name = bottomright;
position = "{361, 0}";
},
{
name = top;
position = "{714, 1874}";
}
);
layerId = "E5A5C170-0FDF-4A9B-BA4A-24DEB95A442A";
shapes = (
{
closed = 1;
nodes = (
(361,0,l),
(361,1376,l),
(236,1376,l),
(236,0,l)
);
},
{
closed = 1;
nodes = (
(1017,1277,l),
(1017,1376,l),
(295,1376,l),
(295,1277,l)
);
},
{
closed = 1;
nodes = (
(648,1538,l),
(871,1896,l),
(736,1896,l),
(554,1538,l)
);
}
);
width = 1073;
}
);
leftKerningGroup = "I-cy";
rightKerningGroup = "Ge-cy";
unicode = 1027;
},
{
glyphname = H;
layers = (
{
background = {
shapes = (
{
closed = 1;
nodes = (
(1067,0,l),
(1093,133,l),
(414,133,l),
(414,699,l),
(952,699,l),
(978,832,l),
(414,832,l),
(414,1331,l),
(1051,1331,l),
(1077,1465,l),
(218,1465,l),
(218,0,l)
);
}
);
};
layerId = "48D2EA9E-46BD-4B15-B2EA-011CD0F10041";
shapes = (
{
closed = 1;
nodes = (
(611,0,l),
(611,624,l),
(1105,624,l),
(1105,0,l),
(1556,0,l),
(1556,1465,l),
(1105,1465,l),
(1105,881,l),
(611,881,l),
(611,1465,l),
(160,1465,l),
(160,0,l)
);
}
);
width = 1716;
},
{
layerId = "F06CBC40-6010-41C8-A897-7AE20112A561";
shapes = (
{
closed = 1;
nodes = (
(537,0,l),
(537,649,l),
(1143,649,l),
(1143,0,l),
(1497,0,l),
(1497,1465,l),
(1143,1465,l),
(1143,862,l),
(537,862,l),
(537,1465,l),
(183,1465,l),
(183,0,l)
);
}
);
width = 1680;
},
{
layerId = "338923BD-A73B-4463-96D5-6CCFD2C76DE7";
shapes = (
{
closed = 1;
nodes = (
(426,0,l),
(426,687,l),
(1199,687,l),
(1199,0,l),
(1408,0,l),
(1408,1465,l),
(1199,1465,l),
(1199,834,l),
(426,834,l),
(426,1465,l),
(217,1465,l),
(217,0,l)
);
}
);
width = 1625;
},
{
layerId = "E5A5C170-0FDF-4A9B-BA4A-24DEB95A442A";
shapes = (
{
closed = 1;
nodes = (
(352,0,l),
(352,712,l),
(1237,712,l),
(1237,0,l),
(1349,0,l),
(1349,1465,l),
(1237,1465,l),
(1237,815,l),
(352,815,l),
(352,1465,l),
(240,1465,l),
(240,0,l)
);
}
);
width = 1589;
}
);
unicode = 72;
},
{
glyphname = "Haabkhasian-cy";
layers = (
{
anchors = (
{
name = bottom;
position = "{1024, 0}";
},
{
name = center;
position = "{1002, 730}";
},
{
name = ogonek;
position = "{1283, 0}";
},
{
name = top;
position = "{1020, 1465}";
},
{
name = topleft;
position = "{202, 1465}";
},
{
name = topright;
position = "{1230, 1062}";
}
);
layerId = "48D2EA9E-46BD-4B15-B2EA-011CD0F10041";
shapes = (
{
closed = 1;
nodes = (
(1420,-38,o),
(1839,347,o),
(1839,783,cs),
(1839,1095,o),
(1629,1405,o),
(1288,1405,cs),
(1009,1405,o),
(736,1205,o),
(736,790,cs),
(736,230,o),
(1246,-39,o),
(1578,-39,cs),
(1746,-39,o),
(1881,32,o),
(1924,64,c),
(1849,281,l),
(1785,238,o),
(1670,218,o),
(1602,218,cs),
(1357,218,o),
(1175,453,o),
(1175,872,cs),
(1175,1027,o),
(1188,1135,o),
(1248,1135,cs),
(1356,1135,o),
(1389,892,o),
(1389,722,cs),
(1389,384,o),
(1239,196,o),
(1012,195,c),
(796,195,o),
(563,378,o),
(563,807,cs),
(563,1030,o),
(626,1187,o),
(846,1336,c),
(761,1506,l),
(381,1421,o),
(102,1109,o),
(102,729,cs),
(102,295,o),
(462,-39,o),
(922,-39,c)
);
}
);
width = 1977;
},
{
anchors = (
{
name = bottom;
position = "{994, 0}";
},
{
name = center;
position = "{970, 730}";
},
{
name = ogonek;
position = "{1215, 0}";
},
{
name = top;
position = "{984, 1465}";
},
{
name = topleft;
position = "{160, 1465}";
},
{
name = topright;
position = "{1244, 1120}";
}
);
layerId = "F06CBC40-6010-41C8-A897-7AE20112A561";
shapes = (
{
closed = 1;
nodes = (
(1402,-33,o),
(1789,346,o),
(1789,779,cs),
(1789,1105,o),
(1577,1399,o),
(1252,1399,cs),
(979,1399,o),
(719,1192,o),
(719,786,cs),
(719,246,o),
(1191,-33,o),
(1530,-33,cs),
(1685,-33,o),
(1815,28,o),
(1874,72,c),
(1808,245,l),
(1741,198,o),
(1634,174,o),
(1554,174,cs),
(1297,174,o),
(1069,415,o),
(1069,852,cs),
(1069,1047,o),
(1118,1181,o),
(1218,1181,cs),
(1360,1181,o),
(1429,942,o),
(1429,730,cs),
(1429,382,o),
(1259,156,o),
(982,157,c),
(717,157,o),
(479,370,o),
(479,789,cs),
(479,1048,o),
(579,1235,o),
(831,1366,c),
(765,1502,l),
(382,1419,o),
(110,1109,o),
(110,727,cs),
(110,297,o),
(454,-33,o),
(912,-33,c)
);
}
);
width = 1924;
},
{
anchors = (
{
name = bottom;
position = "{948, 0}";
},
{
name = center;
position = "{922, 730}";
},
{
name = ogonek;
position = "{1112, 0}";
},
{
name = top;
position = "{930, 1465}";
},
{
name = topleft;
position = "{97, 1465}";
},
{
name = topright;
position = "{1266, 1207}";
}
);
layerId = "338923BD-A73B-4463-96D5-6CCFD2C76DE7";
shapes = (
{
closed = 1;
nodes = (
(1374,-26,o),
(1714,345,o),
(1714,773,cs),
(1714,1121,o),
(1498,1389,o),
(1197,1389,cs),
(935,1389,o),
(694,1172,o),
(694,781,cs),
(694,269,o),
(1109,-23,o),
(1458,-23,cs),
(1594,-23,o),
(1717,21,o),
(1798,85,c),
(1747,190,l),
(1676,138,o),
(1580,107,o),
(1481,107,cs),
(1206,107,o),
(911,358,o),
(911,821,cs),
(911,1076,o),
(1014,1249,o),
(1174,1249,cs),
(1367,1249,o),
(1489,1016,o),
(1489,742,cs),
(1489,378,o),
(1288,97,o),
(936,99,c),
(598,99,o),
(352,358,o),
(352,761,cs),
(352,1075,o),
(509,1307,o),
(809,1410,c),
(772,1495,l),
(383,1415,o),
(121,1108,o),
(121,725,cs),
(121,301,o),
(441,-23,o),
(896,-23,c)
);
}
);
width = 1844;
},
{
anchors = (
{
name = bottom;
position = "{917, 0}";
},
{
name = center;
position = "{890, 730}";
},
{
name = ogonek;
position = "{1044, 0}";
},
{
name = top;
position = "{894, 1465}";
},
{
name = topleft;
position = "{55, 1465}";
},
{
name = topright;
position = "{1280, 1265}";
}
);
layerId = "E5A5C170-0FDF-4A9B-BA4A-24DEB95A442A";
shapes = (
{
closed = 1;
nodes = (
(1355,-21,o),
(1664,344,o),
(1664,769,cs),
(1664,1132,o),
(1446,1383,o),
(1161,1383,cs),
(906,1383,o),
(677,1159,o),
(677,778,cs),
(677,285,o),
(1054,-17,o),
(1410,-17,cs),
(1533,-17,o),
(1651,17,o),
(1747,94,c),
(1706,153,l),
(1633,98,o),
(1544,62,o),
(1433,62,cs),
(1146,62,o),
(805,320,o),
(805,801,cs),
(805,1095,o),
(945,1295,o),
(1144,1295,cs),
(1371,1295,o),
(1529,1065,o),
(1529,750,cs),
(1529,376,o),
(1307,58,o),
(906,60,c),
(519,60,o),
(267,350,o),
(267,743,cs),
(267,1093,o),
(462,1355,o),
(794,1439,c),
(777,1490,l),
(384,1412,o),
(129,1108,o),
(129,724,cs),
(129,303,o),
(433,-17,o),
(886,-17,c)
);
}
);
width = 1791;
}
);
unicode = 1192;
},
{
glyphname = "Hadescender-cy";
layers = (
{
layerId = "48D2EA9E-46BD-4B15-B2EA-011CD0F10041";
shapes = (
{
closed = 1;
nodes = (
(531,0,l),
(755,474,l),
(994,0,l),
(1538,0,l),
(1034,744,l),
(1537,1465,l),
(1019,1465,l),
(789,993,l),
(549,1465,l),
(20,1465,l),
(504,731,l),
(2,0,l)
);
},
{
closed = 1;
nodes = (
(1591,-380,l),
(1601,400,l),
(1116,400,l),
(1245,-380,l)
);
},
{
closed = 1;
nodes = (
(1198,0,l),
(1464,0,l),
(1464,400,l),
(1198,400,l)
);
}
);
width = 1625;
},
{
layerId = "F06CBC40-6010-41C8-A897-7AE20112A561";
shapes = (
{
closed = 1;
nodes = (
(445,0,l),
(735,525,l),
(1040,0,l),
(1474,0,l),
(960,746,l),
(1467,1465,l),
(1055,1465,l),
(766,949,l),
(469,1465,l),
(44,1465,l),
(538,733,l),
(24,0,l)
);
},
{
closed = 1;
nodes = (
(1535,-386,l),
(1544,316,l),
(1160,316,l),
(1261,-386,l)
);
},
{
closed = 1;
nodes = (
(1197,0,l),
(1434,0,l),
(1434,316,l),
(1197,316,l)
);
}
);
width = 1571;
},
{
layerId = "338923BD-A73B-4463-96D5-6CCFD2C76DE7";
shapes = (
{
closed = 1;
nodes = (
(317,0,l),
(706,601,l),
(1110,0,l),
(1379,0,l),
(848,750,l),
(1363,1465,l),
(1110,1465,l),
(731,882,l),
(348,1465,l),
(80,1465,l),
(590,735,l),
(58,0,l)
);
},
{
closed = 1;
nodes = (
(1452,-395,l),
(1459,190,l),
(1225,190,l),
(1284,-394,l)
);
},
{
closed = 1;
nodes = (
(1196,0,l),
(1388,0,l),
(1388,190,l),
(1196,190,l)
);
}
);
width = 1491;
},
{
layerId = "E5A5C170-0FDF-4A9B-BA4A-24DEB95A442A";
shapes = (
{
closed = 1;
nodes = (
(232,0,l),
(687,652,l),
(1157,0,l),
(1316,0,l),
(773,753,l),
(1293,1465,l),
(1146,1465,l),
(708,837,l),
(267,1465,l),
(104,1465,l),
(624,737,l),
(81,0,l)
);
},
{
closed = 1;
nodes = (
(1397,-401,l),
(1402,106,l),
(1269,106,l),
(1299,-399,l)
);
},
{
closed = 1;
nodes = (
(1195,0,l),
(1358,0,l),
(1358,106,l),
(1195,106,l)
);
}
);
width = 1437;
}
);
unicode = 1202;
},
{
glyphname = "Hahook-cy";
layers = (
{
layerId = "48D2EA9E-46BD-4B15-B2EA-011CD0F10041";
shapes = (
{
closed = 1;
nodes = (
(1355,-557,o),
(1542,-414,o),
(1542,-112,cs),
(1542,163,o),
(1204,541,o),
(900,921,cs),
(735,1130,o),
(604,1337,o),
(535,1465,c),
(16,1465,l),
(132,1285,o),
(368,972,o),
(591,670,cs),
(832,345,o),
(1050,60,o),
(1050,-87,cs),
(1050,-243,o),
(1005,-286,o),
(922,-286,cs),
(887,-286,o),
(848,-279,o),
(810,-270,c),
(733,-484,l),
(820,-533,o),
(917,-557,o),
(1039,-557,cs)
);
},
{
closed = 1;
nodes = (
(535,0,l),
(842,585,l),
(1036,731,l),
(1539,1465,l),
(1012,1465,l),
(760,980,l),
(561,840,l),
(-2,0,l)
);
}
);
width = 1536;
},
{
layerId = "F06CBC40-6010-41C8-A897-7AE20112A561";
shapes = (
{
closed = 1;
nodes = (
(1325,-544,o),
(1494,-408,o),
(1494,-148,cs),
(1494,117,o),
(1168,509,o),
(862,897,c),
(686,1122,o),
(536,1337,o),
(453,1465,c),
(40,1465,l),
(158,1297,o),
(395,994,o),
(619,692,c),
(875,349,o),
(1104,30,o),
(1104,-129,cs),
(1104,-269,o),
(1051,-328,o),
(952,-328,cs),
(909,-328,o),
(860,-317,o),
(820,-301,c),
(757,-472,l),
(837,-521,o),
(930,-544,o),
(1042,-544,cs)
);
},
{
closed = 1;
nodes = (
(449,0,l),
(814,625,l),
(962,743,l),
(1469,1465,l),
(1048,1465,l),
(744,948,l),
(591,834,l),
(20,0,l)
);
}
);
width = 1496;
},
{
layerId = "338923BD-A73B-4463-96D5-6CCFD2C76DE7";
shapes = (
{
closed = 1;
nodes = (
(1281,-524,o),
(1423,-398,o),
(1423,-202,cs),
(1423,47,o),
(1115,460,o),
(804,861,c),
(612,1110,o),
(433,1336,o),
(331,1465,c),
(76,1465,l),
(196,1316,o),
(435,1026,o),
(660,725,c),
(940,355,o),
(1186,-14,o),
(1186,-191,cs),
(1186,-308,o),
(1120,-391,o),
(998,-391,cs),
(943,-391,o),
(879,-375,o),
(834,-347,c),
(794,-453,l),
(862,-502,o),
(950,-524,o),
(1047,-524,cs)
);
},
{
closed = 1;
nodes = (
(320,0,l),
(773,684,l),
(852,760,l),
(1365,1465,l),
(1103,1465,l),
(719,901,l),
(637,824,l),
(54,0,l)
);
}
);
width = 1437;
},
{
layerId = "E5A5C170-0FDF-4A9B-BA4A-24DEB95A442A";
shapes = (
{
closed = 1;
nodes = (
(1252,-511,o),
(1376,-391,o),
(1376,-238,cs),
(1376,0,o),
(1080,427,o),
(765,837,cs),
(563,1102,o),
(365,1335,o),
(249,1465,c),
(100,1465,l),
(222,1329,o),
(462,1048,o),
(687,747,cs),
(983,359,o),
(1240,-43,o),
(1240,-232,cs),
(1240,-334,o),
(1166,-433,o),
(1028,-433,cs),
(965,-433,o),
(892,-414,o),
(843,-378,c),
(818,-441,l),
(879,-490,o),
(963,-511,o),
(1050,-511,cs)
);
},
{
closed = 1;
nodes = (
(234,0,l),
(745,724,l),
(778,771,l),
(1295,1465,l),
(1140,1465,l),
(703,870,l),
(667,818,l),
(77,0,l)
);
}
);
width = 1397;
}
);
unicode = 1276;
},
{
glyphname = "Hardsign-cy";
layers = (
{
anchors = (
{
name = top;
position = "{863, 1465}";
}
);
layerId = "48D2EA9E-46BD-4B15-B2EA-011CD0F10041";
shapes = (
{
closed = 1;
nodes = (
(906,0,ls),
(1414,0,o),
(1655,223,o),
(1655,564,cs),
(1655,857,o),
(1438,1026,o),
(1054,1019,c),
(779,1019,l),
(779,703,l),
(930,703,ls),
(1124,703,o),
(1184,650,o),
(1184,521,cs),
(1184,397,o),
(1101,342,o),
(952,342,cs),
(826,342,l),
(826,1465,l),
(393,1465,l),
(393,0,l)
);
},
{
closed = 1;
nodes = (
(685,1108,l),
(685,1465,l),
(70,1465,l),
(70,1108,l)
);
}
);
width = 1725;
},
{
anchors = (
{
name = top;
position = "{823, 1465}";
}
);
layerId = "F06CBC40-6010-41C8-A897-7AE20112A561";
shapes = (
{
closed = 1;
nodes = (
(908,0,ls),
(1362,0,o),
(1589,213,o),
(1589,536,cs),
(1589,821,o),
(1384,984,o),
(1020,979,c),
(715,979,l),
(715,725,l),
(926,725,ls),
(1140,725,o),
(1216,650,o),
(1216,500,cs),
(1216,351,o),
(1120,273,o),
(946,273,cs),
(762,273,l),
(762,1465,l),
(417,1465,l),
(417,0,l)
);
},
{
closed = 1;
nodes = (
(641,1180,l),
(641,1465,l),
(65,1465,l),
(65,1180,l)
);
}
);
width = 1673;
},
{
anchors = (
{
name = top;
position = "{764, 1465}";
}
);
layerId = "338923BD-A73B-4463-96D5-6CCFD2C76DE7";
shapes = (
{
closed = 1;
nodes = (
(912,0,ls),
(1285,0,o),
(1491,199,o),
(1491,493,cs),
(1491,766,o),
(1304,922,o),
(968,920,c),
(620,920,l),
(620,758,l),
(919,758,ls),
(1165,758,o),
(1263,651,o),
(1263,469,cs),
(1263,283,o),
(1149,169,o),
(938,169,cs),
(665,169,l),
(665,1465,l),
(452,1465,l),
(452,0,l)
);
},
{
closed = 1;
nodes = (
(576,1287,l),
(576,1465,l),
(58,1465,l),
(58,1287,l)
);
}
);
width = 1594;
},
{
anchors = (
{
name = top;
position = "{724, 1465}";
}
);
layerId = "E5A5C170-0FDF-4A9B-BA4A-24DEB95A442A";
shapes = (
{
closed = 1;
nodes = (
(915,0,ls),
(1233,0,o),
(1425,189,o),
(1425,465,cs),
(1425,730,o),
(1250,881,o),
(934,881,cs),
(556,881,l),
(556,780,l),
(915,780,ls),
(1181,780,o),
(1295,652,o),
(1295,448,cs),
(1295,238,o),
(1168,100,o),
(932,100,cs),
(601,100,l),
(601,1465,l),
(476,1465,l),
(476,0,l)
);
},
{
closed = 1;
nodes = (
(532,1359,l),
(532,1465,l),
(53,1465,l),
(53,1359,l)
);
}
);
width = 1542;
}
);
rightKerningGroup = "Hardsign-cy";
unicode = 1066;
},
{
color = 8;
glyphname = "Hastroke-cy";
layers = (
{
layerId = "48D2EA9E-46BD-4B15-B2EA-011CD0F10041";
shapes = (
{
closed = 1;
nodes = (
(535,0,l),
(760,485,l),
(997,0,l),
(1530,0,l),
(1011,736,l),
(1539,1465,l),
(1012,1465,l),
(778,981,l),
(535,1465,l),
(16,1465,l),
(524,738,l),
(-2,0,l)
);
},
{
closed = 1;
nodes = (
(666,599,l),
(666,851,l),
(156,853,l),
(156,599,l)
);
},
{
closed = 1;
nodes = (
(1379,605,l),
(1379,857,l),
(867,857,l),
(867,605,l)
);
}
);
width = 1536;
},
{
layerId = "F06CBC40-6010-41C8-A897-7AE20112A561";
shapes = (
{
closed = 1;
nodes = (
(449,0,l),
(740,533,l),
(1043,0,l),
(1467,0,l),
(939,738,l),
(1469,1465,l),
(1048,1465,l),
(754,939,l),
(453,1465,l),
(40,1465,l),
(554,740,l),
(20,0,l)
);
},
{
closed = 1;
nodes = (
(669,629,l),
(669,832,l),
(170,833,l),
(170,629,l)
);
},
{
closed = 1;
nodes = (
(1323,633,l),
(1323,837,l),
(823,837,l),
(823,633,l)
);
}
);
width = 1496;
},
{
layerId = "338923BD-A73B-4463-96D5-6CCFD2C76DE7";
shapes = (
{
closed = 1;
nodes = (
(320,0,l),
(711,606,l),
(1113,0,l),
(1372,0,l),
(830,740,l),
(1365,1465,l),
(1103,1465,l),
(719,875,l),
(329,1465,l),
(76,1465,l),
(598,744,l),
(54,0,l)
);
},
{
closed = 1;
nodes = (
(674,673,l),
(674,803,l),
(190,804,l),
(190,673,l)
);
},
{
closed = 1;
nodes = (
(1240,675,l),
(1240,806,l),
(756,806,l),
(756,675,l)
);
}
);
width = 1437;
},
{
layerId = "E5A5C170-0FDF-4A9B-BA4A-24DEB95A442A";
shapes = (
{
closed = 1;
nodes = (
(234,0,l),
(692,654,l),
(1159,0,l),
(1309,0,l),
(758,741,l),
(1295,1465,l),
(1140,1465,l),
(696,832,l),
(247,1465,l),
(100,1465,l),
(628,747,l),
(77,0,l)
);
},
{
closed = 1;
nodes = (
(677,703,l),
(677,784,l),
(204,784,l),
(204,703,l)
);
},
{
closed = 1;
nodes = (
(1184,703,l),
(1184,786,l),
(711,786,l),
(711,703,l)
);
}
);
width = 1397;
}
);
unicode = 1278;
},
{
color = (153, 155, 255, 255);
glyphname = Hbar;
layers = (
{
layerId = "48D2EA9E-46BD-4B15-B2EA-011CD0F10041";
shapes = (
{
closed = 1;
nodes = (
(526,1045,l),
(1190,1045,l),
(1190,1326,l),
(526,1326,l)
);
},
{
alignment = -1;
ref = H;
}
);
width = 1716;
},
{
layerId = "F06CBC40-6010-41C8-A897-7AE20112A561";
shapes = (
{
closed = 1;
nodes = (
(458,1073,l),
(1224,1073,l),
(1224,1297,l),
(458,1297,l)
);
},
{
alignment = -1;
ref = H;
}
);
width = 1680;
},
{
layerId = "338923BD-A73B-4463-96D5-6CCFD2C76DE7";
shapes = (
{
closed = 1;
nodes = (
(356,1116,l),
(1276,1116,l),
(1276,1254,l),
(356,1254,l)
);
},
{
alignment = -1;
ref = H;
}
);
width = 1625;
},
{
layerId = "E5A5C170-0FDF-4A9B-BA4A-24DEB95A442A";
shapes = (
{
closed = 1;
nodes = (
(288,1145,l),
(1311,1145,l),
(1311,1225,l),
(288,1225,l)
);
},
{
alignment = -1;
ref = H;
}
);
width = 1589;
}
);
unicode = 294;
},
{
glyphname = I;
layers = (
{
background = {
shapes = (
{
closed = 1;
nodes = (
(216,0,l),
(212,122,o),
(208,244,o),
(208,369,cs),
(208,490,o),
(211,616,o),
(215,740,c),
(101,740,l),
(105,617,o),
(107,493,o),
(107,369,cs),
(107,246,o),
(105,124,o),
(101,0,c)
);
}
);
};
layerId = "48D2EA9E-46BD-4B15-B2EA-011CD0F10041";
shapes = (
{
closed = 1;
nodes = (
(611,1465,l),
(160,1465,l),
(160,0,l),
(611,0,l)
);
}
);
width = 771;
},
{
layerId = "F06CBC40-6010-41C8-A897-7AE20112A561";
shapes = (
{
closed = 1;
nodes = (
(535,1465,l),
(183,1465,l),
(183,0,l),
(535,0,l)
);
}
);
width = 718;
},
{
layerId = "338923BD-A73B-4463-96D5-6CCFD2C76DE7";
shapes = (
{
closed = 1;
nodes = (
(421,1465,l),
(217,1465,l),
(217,0,l),
(421,0,l)
);
}
);
width = 638;
},
{
layerId = "E5A5C170-0FDF-4A9B-BA4A-24DEB95A442A";
shapes = (
{
closed = 1;
nodes = (
(345,1465,l),
(240,1465,l),
(240,0,l),
(345,0,l)
);
}
);
width = 585;
}
);
unicode = 73;
},
{
glyphname = "Ia-cy";
layers = (
{
anchors = (
{
name = top;
position = "{728, 1465}";
}
);
layerId = "48D2EA9E-46BD-4B15-B2EA-011CD0F10041";
shapes = (
{
closed = 1;
nodes = (
(1386,0,l),
(1386,1465,l),
(767,1465,ls),
(397,1465,o),
(144,1275,o),
(144,994,cs),
(144,690,o),
(452,533,o),
(725,533,cs),
(889,533,o),
(1033,554,o),
(1174,601,c),
(1174,862,l),
(1062,833,o),
(906,807,o),
(823,807,cs),
(693,807,o),
(614,889,o),
(614,986,cs),
(614,1104,o),
(695,1150,o),
(806,1150,cs),
(936,1150,l),
(936,0,l)
);
},
{
closed = 1;
nodes = (
(867,609,l),
(526,714,l),
(3,0,l),
(531,0,l)
);
}
);
width = 1554;
},
{
anchors = (
{
name = top;
position = "{700, 1465}";
}
);
layerId = "F06CBC40-6010-41C8-A897-7AE20112A561";
shapes = (
{
closed = 1;
nodes = (
(1316,0,l),
(1316,1465,l),
(759,1465,ls),
(405,1465,o),
(166,1285,o),
(166,1010,cs),
(166,720,o),
(444,563,o),
(727,563,cs),
(870,563,o),
(1007,582,o),
(1138,623,c),
(1138,831,l),
(1030,807,o),
(886,785,o),
(807,785,cs),
(637,785,o),
(538,883,o),
(538,1008,cs),
(538,1148,o),
(635,1212,o),
(782,1212,cs),
(958,1212,l),
(958,0,l)
);
},
{
closed = 1;
nodes = (
(819,629,l),
(548,714,l),
(26,0,l),
(449,0,l)
);
}
);
width = 1508;
},
{
anchors = (
{
name = top;
position = "{657, 1465}";
}
);
layerId = "338923BD-A73B-4463-96D5-6CCFD2C76DE7";
shapes = (
{
closed = 1;
nodes = (
(1210,0,l),
(1210,1465,l),
(748,1465,ls),
(416,1465,o),
(199,1299,o),
(199,1034,cs),
(199,764,o),
(433,608,o),
(729,608,cs),
(841,608,o),
(967,624,o),
(1085,657,c),
(1085,785,l),
(981,767,o),
(855,753,o),
(784,753,cs),
(554,753,o),
(425,873,o),
(425,1042,cs),
(425,1215,o),
(544,1304,o),
(747,1304,cs),
(990,1304,l),
(990,0,l)
);
},
{
closed = 1;
nodes = (
(748,658,l),
(581,713,l),
(61,0,l),
(326,0,l)
);
}
);
width = 1438;
},
{
anchors = (
{
name = top;
position = "{628, 1465}";
}
);
layerId = "E5A5C170-0FDF-4A9B-BA4A-24DEB95A442A";
shapes = (
{
closed = 1;
nodes = (
(1140,0,l),
(1140,1465,l),
(741,1465,ls),
(423,1465,o),
(221,1309,o),
(221,1050,cs),
(221,794,o),
(425,638,o),
(730,638,cs),
(822,638,o),
(940,652,o),
(1050,679,c),
(1050,754,l),
(949,741,o),
(835,731,o),
(769,731,cs),
(499,731,o),
(350,866,o),
(350,1065,cs),
(350,1260,o),
(483,1365,o),
(724,1365,cs),
(1012,1365,l),
(1012,0,l)
);
},
{
closed = 1;
nodes = (
(701,677,l),
(603,713,l),
(84,0,l),
(244,0,l)
);
}
);
width = 1391;
}
);
rightKerningGroup = "I-cy1";
unicode = 1071;
},
{
glyphname = Idotaccent;
layers = (
{
background = {
shapes = (
{
closed = 1;
nodes = (
(203,0,l),
(199,115,o),
(195,230,o),
(195,349,cs),
(195,463,o),
(198,581,o),
(202,698,c),
(94,698,l),
(98,582,o),
(100,465,o),
(100,349,cs),
(100,232,o),
(98,117,o),
(94,0,c)
);
},
{
closed = 1;
nodes = (
(182,787,o),
(209,813,o),
(209,848,cs),
(209,881,o),
(183,907,o),
(150,907,cs),
(117,907,o),
(89,880,o),
(89,847,cs),
(89,812,o),
(113,787,o),
(148,787,cs)
);
}
);
};
layerId = "48D2EA9E-46BD-4B15-B2EA-011CD0F10041";
shapes = (
{
alignment = -1;
ref = I;
},
{
alignment = -1;
pos = (-68,0);
ref = dotaccent.cap;
}
);
width = 770;
},
{
layerId = "F06CBC40-6010-41C8-A897-7AE20112A561";
shapes = (
{
alignment = -1;
ref = I;
},
{
alignment = -1;
pos = (-45,0);
ref = dotaccent.cap;
}
);
width = 716;
},
{
layerId = "338923BD-A73B-4463-96D5-6CCFD2C76DE7";
shapes = (
{
alignment = -1;
pos = (1,0);
ref = I;
},
{
alignment = -1;
pos = (-11,0);
ref = dotaccent.cap;
}
);
width = 635;
},
{
layerId = "E5A5C170-0FDF-4A9B-BA4A-24DEB95A442A";
shapes = (
{
alignment = -1;
pos = (2,0);
ref = I;
},
{
alignment = -1;
pos = (12,0);
ref = dotaccent.cap;
}
);
width = 581;
}
);
unicode = 304;
},
{
color = 9;
glyphname = Idotbelow;
layers = (
{
anchors = (
{
name = bottom;
position = "{421, -597}";
},
{
name = ogonek;
position = "{658, 0}";
},
{
name = top;
position = "{421, 1465}";
},
{
name = topleft;
position = "{42, 1465}";
}
);
layerId = "48D2EA9E-46BD-4B15-B2EA-011CD0F10041";
shapes = (
{
closed = 1;
nodes = (
(560,-587,o),
(648,-502,o),
(648,-366,cs),
(648,-231,o),
(560,-143,o),
(421,-143,cs),
(278,-143,o),
(188,-231,o),
(188,-366,cs),
(188,-502,o),
(278,-587,o),
(421,-587,cs)
);
},
{
alignment = -1;
ref = I;
}
);
width = 836;
},
{
anchors = (
{
name = bottom;
position = "{395, -547}";
},
{
name = ogonek;
position = "{584, 0}";
},
{
name = top;
position = "{395, 1465}";
},
{
name = topleft;
position = "{42, 1465}";
}
);
layerId = "F06CBC40-6010-41C8-A897-7AE20112A561";
shapes = (
{
closed = 1;
nodes = (
(510,-539,o),
(583,-468,o),
(583,-357,cs),
(583,-245,o),
(510,-173,o),
(395,-173,cs),
(278,-173,o),
(204,-245,o),
(204,-357,cs),
(204,-468,o),
(278,-539,o),
(395,-539,cs)
);
},
{
alignment = -1;
ref = I;
}
);
width = 789;
},
{
anchors = (
{
name = bottom;
position = "{357, -473}";
},
{
name = ogonek;
position = "{474, 0}";
},
{
name = top;
position = "{357, 1465}";
},
{
name = topleft;
position = "{42, 1465}";
}
);
layerId = "338923BD-A73B-4463-96D5-6CCFD2C76DE7";
shapes = (
{
closed = 1;
nodes = (
(434,-468,o),
(486,-418,o),
(486,-343,cs),
(486,-266,o),
(434,-217,o),
(357,-217,cs),
(278,-217,o),
(227,-266,o),
(227,-343,cs),
(227,-418,o),
(278,-468,o),
(357,-468,cs)
);
},
{
alignment = -1;
ref = I;
}
);
width = 719;
},
{
anchors = (
{
name = bottom;
position = "{331, -423}";
},
{
name = ogonek;
position = "{401, 0}";
},
{
name = top;
position = "{331, 1465}";
},
{
name = topleft;
position = "{42, 1465}";
}
);
layerId = "E5A5C170-0FDF-4A9B-BA4A-24DEB95A442A";
shapes = (
{
closed = 1;
nodes = (
(383,-421,o),
(421,-385,o),
(421,-334,cs),
(421,-280,o),
(383,-247,o),
(331,-247,cs),
(278,-247,o),
(242,-280,o),
(242,-334,cs),
(242,-385,o),
(278,-421,o),
(331,-421,cs)
);
},
{
alignment = -1;
ref = I;
}
);
width = 672;
}
);
unicode = 7882;
},
{
color = 9;
glyphname = Ihookabove;
layers = (
{
anchors = (
{
name = bottom;
position = "{421, 0}";
},
{
name = ogonek;
position = "{658, 0}";
},
{
name = top;
position = "{451, 2132}";
},
{
name = topleft;
position = "{42, 1465}";
}
);
layerId = "48D2EA9E-46BD-4B15-B2EA-011CD0F10041";
shapes = (
{
closed = 1;
nodes = (
(570,1559,l),
(585,1780,l),
(433,1647,l),
(653,1662,o),
(767,1778,o),
(767,1900,cs),
(767,2018,o),
(650,2132,o),
(431,2132,cs),
(326,2132,o),
(207,2103,o),
(113,2045,c),
(205,1884,l),
(253,1908,o),
(303,1917,o),
(342,1917,cs),
(403,1917,o),
(433,1898,o),
(433,1855,cs),
(433,1809,o),
(361,1788,o),
(273,1782,c),
(288,1559,l)
);
},
{
alignment = -1;
ref = I;
}
);
width = 836;
},
{
anchors = (
{
name = bottom;
position = "{395, 0}";
},
{
name = ogonek;
position = "{584, 0}";
},
{
name = top;
position = "{425, 2098}";
},
{
name = topleft;
position = "{42, 1465}";
}
);
layerId = "F06CBC40-6010-41C8-A897-7AE20112A561";
shapes = (
{
closed = 1;
nodes = (
(516,1557,l),
(527,1762,l),
(404,1654,l),
(607,1664,o),
(719,1768,o),
(719,1884,cs),
(719,1996,o),
(609,2098,o),
(411,2098,cs),
(316,2098,o),
(201,2073,o),
(113,2007,c),
(191,1878,l),
(237,1910,o),
(292,1924,o),
(342,1924,cs),
(413,1924,o),
(450,1898,o),
(450,1849,cs),
(450,1797,o),
(377,1768,o),
(275,1764,c),
(286,1557,l)
);
},
{
alignment = -1;
ref = I;
}
);
width = 789;
},
{
anchors = (
{
name = bottom;
position = "{357, 0}";
},
{
name = ogonek;
position = "{474, 0}";
},
{
name = top;
position = "{385, 2048}";
},
{
name = topleft;
position = "{42, 1465}";
}
);
layerId = "338923BD-A73B-4463-96D5-6CCFD2C76DE7";
shapes = (
{
closed = 1;
nodes = (
(436,1553,l),
(441,1734,l),
(360,1664,l),
(539,1668,o),
(648,1752,o),
(648,1861,cs),
(648,1962,o),
(548,2048,o),
(382,2048,cs),
(302,2048,o),
(193,2027,o),
(113,1950,c),
(171,1870,l),
(212,1914,o),
(276,1934,o),
(342,1934,cs),
(427,1934,o),
(475,1897,o),
(475,1840,cs),
(475,1778,o),
(400,1738,o),
(278,1736,c),
(284,1553,l)
);
},
{
alignment = -1;
ref = I;
}
);
width = 719;
},
{
anchors = (
{
name = bottom;
position = "{331, 0}";
},
{
name = ogonek;
position = "{401, 0}";
},
{
name = top;
position = "{359, 2014}";
},
{
name = topleft;
position = "{42, 1465}";
}
);
layerId = "E5A5C170-0FDF-4A9B-BA4A-24DEB95A442A";
shapes = (
{
closed = 1;
nodes = (
(383,1551,l),
(383,1716,l),
(331,1671,l),
(494,1671,o),
(601,1741,o),
(601,1845,cs),
(601,1939,o),
(507,2014,o),
(363,2014,cs),
(293,2014,o),
(187,1996,o),
(113,1912,c),
(158,1865,l),
(196,1916,o),
(265,1941,o),
(342,1941,cs),
(436,1941,o),
(492,1896,o),
(492,1834,cs),
(492,1765,o),
(416,1718,o),
(280,1718,c),
(283,1551,l)
);
},
{
alignment = -1;
ref = I;
}
);
width = 672;
}
);
unicode = 7880;
},
{
glyphname = "Ii-cy";
layers = (
{
anchors = (
{
name = bottomright;
position = "{1560, 0}";
},
{
name = top;
position = "{894, 1465}";
}
);
layerId = "48D2EA9E-46BD-4B15-B2EA-011CD0F10041";
shapes = (
{
closed = 1;
nodes = (
(628,0,l),
(1338,1273,l),
(1338,1465,l),
(1099,1465,l),
(357,180,l),
(357,0,l)
);
},
{
closed = 1;
nodes = (
(571,0,l),
(610,1465,l),
(169,1465,l),
(169,0,l)
);
},
{
closed = 1;
nodes = (
(1560,0,l),
(1560,1465,l),
(1158,1465,l),
(1117,0,l)
);
}
);
width = 1727;
},
{
anchors = (
{
name = bottomright;
position = "{1534, 0}";
},
{
name = top;
position = "{890, 1465}";
}
);
layerId = "F06CBC40-6010-41C8-A897-7AE20112A561";
shapes = (
{
closed = 1;
nodes = (
(560,0,l),
(1360,1309,l),
(1360,1465,l),
(1165,1465,l),
(343,146,l),
(343,0,l)
);
},
{
closed = 1;
nodes = (
(515,0,l),
(545,1465,l),
(193,1465,l),
(193,0,l)
);
},
{
closed = 1;
nodes = (
(1534,0,l),
(1534,1465,l),
(1213,1465,l),
(1181,0,l)
);
}
);
width = 1725;
},
{
anchors = (
{
name = bottomright;
position = "{1496, 0}";
},
{
name = top;
position = "{883, 1465}";
}
);
layerId = "338923BD-A73B-4463-96D5-6CCFD2C76DE7";
shapes = (
{
closed = 1;
nodes = (
(459,0,l),
(1392,1362,l),
(1392,1464,l),
(1265,1464,l),
(323,96,l),
(323,0,l)
);
},
{
closed = 1;
nodes = (
(430,0,l),
(448,1464,l),
(228,1464,l),
(228,0,l)
);
},
{
closed = 1;
nodes = (
(1496,0,l),
(1496,1464,l),
(1296,1464,l),
(1276,0,l)
);
}
);
width = 1723;
},
{
anchors = (
{
name = bottomright;
position = "{1471, 0}";
},
{
name = top;
position = "{879, 1465}";
}
);
layerId = "E5A5C170-0FDF-4A9B-BA4A-24DEB95A442A";
shapes = (
{
closed = 1;
nodes = (
(391,0,l),
(1413,1397,l),
(1413,1464,l),
(1331,1464,l),
(310,62,l),
(310,0,l)
);
},
{
closed = 1;
nodes = (
(374,0,l),
(383,1464,l),
(251,1464,l),
(251,0,l)
);
},
{
closed = 1;
nodes = (
(1471,0,l),
(1471,1464,l),
(1351,1464,l),
(1339,0,l)
);
}
);
width = 1722;
}
);
leftKerningGroup = "I-cy";
rightKerningGroup = "I-cy1";
unicode = 1048;
},
{
glyphname = "Iigrave-cy";
layers = (
{
anchors = (
{
name = bottomright;
position = "{1560, 0}";
},
{
name = top;
position = "{807, 2042}";
}
);
layerId = "48D2EA9E-46BD-4B15-B2EA-011CD0F10041";
shapes = (
{
closed = 1;
nodes = (
(628,0,l),
(1339,1273,l),
(1339,1465,l),
(1099,1465,l),
(357,180,l),
(357,0,l)
);
},
{
closed = 1;
nodes = (
(571,0,l),
(610,1465,l),
(169,1465,l),
(169,0,l)
);
},
{
closed = 1;
nodes = (
(1560,0,l),
(1560,1465,l),
(1159,1465,l),
(1117,0,l)
);
},
{
closed = 1;
nodes = (
(1103,1625,l),
(961,2069,l),
(452,2069,l),
(763,1625,l)
);
}
);
width = 1727;
},
{
anchors = (
{
name = bottomright;
position = "{1534, 0}";
},
{
name = top;
position = "{802, 2028}";
}
);
layerId = "F06CBC40-6010-41C8-A897-7AE20112A561";
shapes = (
{
closed = 1;
nodes = (
(560,0,l),
(1360,1309,l),
(1360,1465,l),
(1165,1465,l),
(343,146,l),
(343,0,l)
);
},
{
closed = 1;
nodes = (
(515,0,l),
(545,1465,l),
(193,1465,l),
(193,0,l)
);
},
{
closed = 1;
nodes = (
(1534,0,l),
(1534,1465,l),
(1213,1465,l),
(1181,0,l)
);
},
{
closed = 1;
nodes = (
(1063,1629,l),
(906,2055,l),
(500,2055,l),
(791,1629,l)
);
}
);
width = 1725;
},
{
anchors = (
{
name = bottomright;
position = "{1496, 0}";
},
{
name = top;
position = "{795, 2008}";
}
);
layerId = "338923BD-A73B-4463-96D5-6CCFD2C76DE7";
shapes = (
{
closed = 1;
nodes = (
(459,0,l),
(1391,1362,l),
(1391,1465,l),
(1265,1465,l),
(323,96,l),
(323,0,l)
);
},
{
closed = 1;
nodes = (
(430,0,l),
(448,1465,l),
(228,1465,l),
(228,0,l)
);
},
{
closed = 1;
nodes = (
(1496,0,l),
(1496,1465,l),
(1295,1465,l),
(1276,0,l)
);
},
{
closed = 1;
nodes = (
(1002,1634,l),
(824,2033,l),
(573,2033,l),
(833,1634,l)
);
}
);
width = 1723;
},
{
anchors = (
{
name = bottomright;
position = "{1471, 0}";
},
{
name = top;
position = "{790, 1995}";
}
);
layerId = "E5A5C170-0FDF-4A9B-BA4A-24DEB95A442A";
shapes = (
{
closed = 1;
nodes = (
(391,0,l),
(1412,1397,l),
(1412,1465,l),
(1331,1465,l),
(310,62,l),
(310,0,l)
);
},
{
closed = 1;
nodes = (
(374,0,l),
(383,1465,l),
(251,1465,l),
(251,0,l)
);
},
{
closed = 1;
nodes = (
(1471,0,l),
(1471,1465,l),
(1350,1465,l),
(1340,0,l)
);
},
{
closed = 1;
nodes = (
(962,1637,l),
(769,2019,l),
(622,2019,l),
(861,1637,l)
);
}
);
width = 1722;
}
);
leftKerningGroup = "I-cy";
rightKerningGroup = "I-cy1";
unicode = 1037;
},
{
color = 8;
glyphname = "Iishorttail-cy";
layers = (
{
anchors = (
{
name = _top;
position = "{894, 1465}";
}
);
layerId = "48D2EA9E-46BD-4B15-B2EA-011CD0F10041";
shapes = (
{
closed = 1;
nodes = (
(628,0,l),
(1339,1273,l),
(1339,1465,l),
(1099,1465,l),
(357,180,l),
(357,0,l)
);
},
{
closed = 1;
nodes = (
(571,0,l),
(610,1465,l),
(169,1465,l),
(169,0,l)
);
},
{
closed = 1;
nodes = (
(1560,0,l),
(1560,1465,l),
(1159,1465,l),
(1117,0,l)
);
},
{
closed = 1;
nodes = (
(1646,0,l),
(1844,303,l),
(1468,303,l),
(1468,0,l)
);
},
{
closed = 1;
nodes = (
(1558,-434,l),
(1844,303,l),
(1345,303,l),
(1202,-434,l)
);
},
{
alignment = -1;
pos = (328,0);
ref = breve.cap;
}
);
width = 1806;
},
{
anchors = (
{
name = _top;
position = "{890, 1465}";
}
);
layerId = "F06CBC40-6010-41C8-A897-7AE20112A561";
shapes = (
{
closed = 1;
nodes = (
(560,0,l),
(1360,1309,l),
(1360,1465,l),
(1165,1465,l),
(343,146,l),
(343,0,l)
);
},
{
closed = 1;
nodes = (
(515,0,l),
(545,1465,l),
(193,1465,l),
(193,0,l)
);
},
{
closed = 1;
nodes = (
(1534,0,l),
(1534,1465,l),
(1213,1465,l),
(1181,0,l)
);
},
{
closed = 1;
nodes = (
(1644,0,l),
(1800,245,l),
(1462,245,l),
(1462,0,l)
);
},
{
closed = 1;
nodes = (
(1528,-434,l),
(1800,245,l),
(1407,245,l),
(1246,-434,l)
);
},
{
alignment = -1;
pos = (346,0);
ref = breve.cap;
}
);
width = 1796;
},
{
anchors = (
{
name = _top;
position = "{883, 1465}";
}
);
layerId = "338923BD-A73B-4463-96D5-6CCFD2C76DE7";
shapes = (
{
closed = 1;
nodes = (
(459,0,l),
(1391,1362,l),
(1391,1465,l),
(1265,1465,l),
(323,96,l),
(323,0,l)
);
},
{
closed = 1;
nodes = (
(430,0,l),
(448,1465,l),
(228,1465,l),
(228,0,l)
);
},
{
closed = 1;
nodes = (
(1496,0,l),
(1496,1465,l),
(1295,1465,l),
(1276,0,l)
);
},
{
closed = 1;
nodes = (
(1640,0,l),
(1734,159,l),
(1452,159,l),
(1452,0,l)
);
},
{
closed = 1;
nodes = (
(1484,-433,l),
(1734,159,l),
(1499,159,l),
(1311,-433,l)
);
},
{
alignment = -1;
pos = (374,0);
ref = breve.cap;
}
);
width = 1780;
},
{
anchors = (
{
name = _top;
position = "{879, 1465}";
}
);
layerId = "E5A5C170-0FDF-4A9B-BA4A-24DEB95A442A";
shapes = (
{
closed = 1;
nodes = (
(391,0,l),
(1412,1397,l),
(1412,1465,l),
(1331,1465,l),
(310,62,l),
(310,0,l)
);
},
{
closed = 1;
nodes = (
(374,0,l),
(383,1465,l),
(251,1465,l),
(251,0,l)
);
},
{
closed = 1;
nodes = (
(1471,0,l),
(1471,1465,l),
(1350,1465,l),
(1340,0,l)
);
},
{
closed = 1;
nodes = (
(1637,0,l),
(1690,102,l),
(1446,102,l),
(1446,0,l)
);
},
{
closed = 1;
nodes = (
(1454,-433,l),
(1690,102,l),
(1561,102,l),
(1355,-433,l)
);
},
{
alignment = -1;
pos = (393,0);
ref = breve.cap;
}
);
width = 1769;
}
);
leftKerningGroup = "Iu-cy";
rightKerningGroup = "Eltail-cy";
unicode = 1162;
},
{
glyphname = Iogonek;
layers = (
{
background = {
shapes = (
{
closed = 1;
nodes = (
(434,0,l),
(426,246,o),
(418,492,o),
(418,746,cs),
(418,990,o),
(424,1244,o),
(432,1494,c),
(202,1494,l),
(210,1246,o),
(214,996,o),
(214,746,cs),
(214,496,o),
(210,250,o),
(202,0,c),
(88,-86,o),
(26,-186,o),
(26,-276,cs),
(26,-380,o),
(112,-446,o),
(218,-446,cs),
(292,-446,o),
(356,-416,o),
(410,-366,c),
(368,-286,l),
(334,-306,o),
(296,-314,o),
(270,-314,cs),
(214,-314,o),
(176,-278,o),
(176,-222,cs),
(176,-148,o),
(246,-62,o),
(338,0,c)
);
}
);
};
layerId = "48D2EA9E-46BD-4B15-B2EA-011CD0F10041";
shapes = (
{
closed = 1;
nodes = (
(611,1465,l),
(160,1465,l),
(160,1,l),
(65,-68,o),
(23,-149,o),
(23,-227,cs),
(23,-343,o),
(113,-435,o),
(257,-435,cs),
(365,-435,o),
(477,-382,o),
(521,-344,c),
(521,-209,l),
(494,-223,o),
(452,-228,o),
(423,-228,cs),
(335,-228,o),
(299,-168,o),
(299,-122,cs),
(299,-70,o),
(344,-31,o),
(390,0,c),
(611,0,l)
);
}
);
width = 771;
},
{
layerId = "F06CBC40-6010-41C8-A897-7AE20112A561";
shapes = (
{
closed = 1;
nodes = (
(535,1465,l),
(183,1465,l),
(183,10,l),
(86,-58,o),
(23,-145,o),
(23,-235,cs),
(23,-346,o),
(113,-434,o),
(246,-434,cs),
(342,-434,o),
(440,-388,o),
(488,-347,c),
(488,-233,l),
(459,-249,o),
(405,-261,o),
(369,-261,cs),
(288,-261,o),
(250,-207,o),
(250,-154,cs),
(250,-92,o),
(298,-43,o),
(368,0,c),
(535,0,l)
);
}
);
width = 717;
},
{
layerId = "338923BD-A73B-4463-96D5-6CCFD2C76DE7";
shapes = (
{
closed = 1;
nodes = (
(421,1465,l),
(217,1465,l),
(217,23,l),
(118,-42,o),
(22,-140,o),
(22,-248,cs),
(22,-351,o),
(114,-432,o),
(230,-432,cs),
(308,-432,o),
(384,-396,o),
(439,-351,c),
(439,-270,l),
(407,-289,o),
(334,-310,o),
(288,-310,cs),
(217,-310,o),
(176,-266,o),
(176,-201,cs),
(176,-126,o),
(228,-60,o),
(334,0,c),
(421,0,l)
);
}
);
width = 637;
},
{
layerId = "E5A5C170-0FDF-4A9B-BA4A-24DEB95A442A";
shapes = (
{
closed = 1;
nodes = (
(345,1465,l),
(240,1465,l),
(240,32,l),
(139,-32,o),
(22,-137,o),
(22,-257,cs),
(22,-354,o),
(114,-431,o),
(219,-431,cs),
(285,-431,o),
(347,-401,o),
(406,-354,c),
(406,-295,l),
(372,-316,o),
(287,-343,o),
(234,-343,cs),
(170,-343,o),
(127,-305,o),
(127,-233,cs),
(127,-148,o),
(182,-72,o),
(311,0,c),
(345,0,l)
);
}
);
width = 583;
}
);
unicode = 302;
},
{
glyphname = Iotatonos;
rightMetricsKey = I;
layers = (
{
layerId = "48D2EA9E-46BD-4B15-B2EA-011CD0F10041";
shapes = (
{
closed = 1;
nodes = (
(514,1465,l),
(74,1465,l),
(-6,876,l),
(331,876,l)
);
},
{
alignment = -1;
pos = (471,0);
ref = I;
}
);
width = 1242;
},
{
layerId = "F06CBC40-6010-41C8-A897-7AE20112A561";
shapes = (
{
closed = 1;
nodes = (
(428,1465,l),
(77,1465,l),
(-16,872,l),
(253,872,l)
);
},
{
alignment = -1;
pos = (377,0);
ref = I;
}
);
width = 1095;
},
{
layerId = "338923BD-A73B-4463-96D5-6CCFD2C76DE7";
shapes = (
{
closed = 1;
nodes = (
(298,1465,l),
(82,1465,l),
(-30,865,l),
(135,865,l)
);
},
{
alignment = -1;
pos = (237,0);
ref = I;
}
);
width = 875;
},
{
layerId = "E5A5C170-0FDF-4A9B-BA4A-24DEB95A442A";
shapes = (
{
closed = 1;
nodes = (
(212,1465,l),
(85,1465,l),
(-39,860,l),
(57,860,l)
);
},
{
alignment = -1;
pos = (143,0);
ref = I;
}
);
width = 728;
}
);
rightKerningGroup = Nu1;
unicode = 906;
},
{
glyphname = "Iu-cy";
layers = (
{
anchors = (
{
name = top;
position = "{1161, 1465}";
}
);
layerId = "48D2EA9E-46BD-4B15-B2EA-011CD0F10041";
shapes = (
{
closed = 1;
nodes = (
(1936,-41,o),
(2275,282,o),
(2275,756,cs),
(2275,1211,o),
(1973,1505,o),
(1539,1505,cs),
(1096,1505,o),
(798,1217,o),
(798,724,cs),
(798,256,o),
(1069,-41,o),
(1497,-41,cs)
);
},
{
closed = 1;
nodes = (
(629,0,l),
(629,1465,l),
(169,1465,l),
(169,0,l)
);
},
{
closed = 1;
nodes = (
(1068,564,l),
(1068,918,l),
(283,918,l),
(283,564,l)
);
},
{
closed = 1;
nodes = (
(1366,262,o),
(1274,399,o),
(1274,738,cs),
(1274,1047,o),
(1347,1192,o),
(1508,1192,cs),
(1673,1192,o),
(1762,1033,o),
(1762,705,cs),
(1762,402,o),
(1690,262,o),
(1531,262,cs)
);
}
);
width = 2375;
},
{
anchors = (
{
name = top;
position = "{1137, 1465}";
}
);
layerId = "F06CBC40-6010-41C8-A897-7AE20112A561";
shapes = (
{
closed = 1;
nodes = (
(1908,-34,o),
(2243,288,o),
(2243,751,cs),
(2243,1197,o),
(1940,1499,o),
(1514,1499,cs),
(1080,1499,o),
(781,1201,o),
(781,724,cs),
(781,270,o),
(1055,-34,o),
(1479,-34,cs)
);
},
{
closed = 1;
nodes = (
(559,0,l),
(559,1465,l),
(193,1465,l),
(193,0,l)
);
},
{
closed = 1;
nodes = (
(996,600,l),
(996,882,l),
(287,882,l),
(287,600,l)
);
},
{
closed = 1;
nodes = (
(1292,210,o),
(1160,387,o),
(1160,740,cs),
(1160,1069,o),
(1275,1246,o),
(1487,1246,cs),
(1701,1246,o),
(1836,1055,o),
(1836,709,cs),
(1836,384,o),
(1716,210,o),
(1509,210,cs)
);
}
);
width = 2351;
},
{
anchors = (
{
name = top;
position = "{1101, 1465}";
}
);
layerId = "338923BD-A73B-4463-96D5-6CCFD2C76DE7";
shapes = (
{
closed = 1;
nodes = (
(1866,-24,o),
(2194,297,o),
(2194,744,cs),
(2194,1175,o),
(1890,1489,o),
(1477,1489,cs),
(1057,1489,o),
(756,1177,o),
(756,725,cs),
(756,290,o),
(1035,-24,o),
(1453,-24,cs)
);
},
{
closed = 1;
nodes = (
(453,0,l),
(453,1465,l),
(228,1465,l),
(228,0,l)
);
},
{
closed = 1;
nodes = (
(887,654,l),
(887,829,l),
(292,829,l),
(292,654,l)
);
},
{
closed = 1;
nodes = (
(1182,131,o),
(990,369,o),
(990,743,cs),
(990,1101,o),
(1168,1328,o),
(1456,1328,cs),
(1743,1328,o),
(1948,1087,o),
(1948,715,cs),
(1948,356,o),
(1756,131,o),
(1476,131,cs)
);
}
);
width = 2314;
},
{
anchors = (
{
name = top;
position = "{1077, 1465}";
}
);
layerId = "E5A5C170-0FDF-4A9B-BA4A-24DEB95A442A";
shapes = (
{
closed = 1;
nodes = (
(1838,-17,o),
(2161,303,o),
(2161,739,cs),
(2161,1161,o),
(1857,1482,o),
(1452,1482,cs),
(1041,1482,o),
(739,1161,o),
(739,726,cs),
(739,303,o),
(1022,-17,o),
(1435,-17,cs)
);
},
{
closed = 1;
nodes = (
(383,0,l),
(383,1465,l),
(251,1465,l),
(251,0,l)
);
},
{
closed = 1;
nodes = (
(814,690,l),
(814,794,l),
(296,794,l),
(296,690,l)
);
},
{
closed = 1;
nodes = (
(1108,79,o),
(876,357,o),
(876,745,cs),
(876,1122,o),
(1097,1383,o),
(1435,1383,cs),
(1771,1383,o),
(2023,1108,o),
(2023,719,cs),
(2023,337,o),
(1782,79,o),
(1454,79,cs)
);
}
);
width = 2289;
}
);
leftKerningGroup = "Iu-cy";
unicode = 1070;
},
{
glyphname = "Izhitsa-cy";
layers = (
{
anchors = (
{
name = top;
position = "{808, 1465}";
}
);
layerId = "48D2EA9E-46BD-4B15-B2EA-011CD0F10041";
shapes = (
{
closed = 1;
nodes = (
(1052,0,l),
(1380,1078,l),
(1401,1144,o),
(1437,1177,o),
(1500,1177,cs),
(1522,1177,o),
(1547,1172,o),
(1577,1166,c),
(1693,1422,l),
(1575,1468,o),
(1454,1498,o),
(1342,1498,cs),
(1152,1498,o),
(1016,1404,o),
(968,1164,cs),
(767,155,l),
(880,155,l),
(534,1465,l),
(23,1465,l),
(519,0,l)
);
}
);
width = 1617;
},
{
anchors = (
{
name = top;
position = "{801, 1465}";
}
);
layerId = "F06CBC40-6010-41C8-A897-7AE20112A561";
shapes = (
{
closed = 1;
nodes = (
(988,0,l),
(1339,1098,l),
(1371,1192,o),
(1413,1237,o),
(1482,1237,cs),
(1506,1237,o),
(1534,1232,o),
(1565,1219,c),
(1657,1422,l),
(1559,1466,o),
(1456,1494,o),
(1356,1494,cs),
(1188,1494,o),
(1066,1400,o),
(1012,1168,c),
(759,121,l),
(862,121,l),
(450,1465,l),
(45,1465,l),
(571,0,l)
);
}
);
width = 1602;
},
{
anchors = (
{
name = top;
position = "{791, 1465}";
}
);
layerId = "338923BD-A73B-4463-96D5-6CCFD2C76DE7";
shapes = (
{
closed = 1;
nodes = (
(893,0,l),
(1278,1129,l),
(1325,1265,o),
(1378,1328,o),
(1455,1328,cs),
(1483,1328,o),
(1514,1321,o),
(1546,1299,c),
(1604,1422,l),
(1536,1462,o),
(1458,1487,o),
(1377,1487,cs),
(1242,1487,o),
(1142,1395,o),
(1078,1174,c),
(747,69,l),
(836,69,l),
(324,1465,l),
(79,1465,l),
(650,0,l)
);
}
);
width = 1580;
},
{
anchors = (
{
name = top;
position = "{784, 1465}";
}
);
layerId = "E5A5C170-0FDF-4A9B-BA4A-24DEB95A442A";
shapes = (
{
closed = 1;
nodes = (
(829,0,l),
(1237,1149,ls),
(1295,1314,o),
(1355,1388,o),
(1437,1388,cs),
(1467,1388,o),
(1501,1381,o),
(1533,1352,c),
(1568,1422,l),
(1520,1459,o),
(1459,1482,o),
(1391,1482,cs),
(1278,1482,o),
(1193,1391,o),
(1122,1178,cs),
(739,34,l),
(818,34,l),
(240,1465,l),
(102,1465,l),
(703,0,l)
);
}
);
width = 1565;
}
);
unicode = 1140;
},
{
glyphname = J;
layers = (
{
background = {
shapes = (
{
closed = 0;
nodes = (
(110,34,l),
(110,-61,o),
(90,-171,o),
(-13,-252,c),
(14,-294,l),
(159,-216,o),
(208,-75,o),
(208,54,c)
);
}
);
};
layerId = "48D2EA9E-46BD-4B15-B2EA-011CD0F10041";
shapes = (
{
closed = 1;
nodes = (
(-42,-517,l),
(384,-376,o),
(612,-146,o),
(612,322,cs),
(612,1465,l),
(160,1465,l),
(160,225,ls),
(160,-80,o),
(67,-201,o),
(-149,-343,c)
);
}
);
width = 771;
},
{
layerId = "F06CBC40-6010-41C8-A897-7AE20112A561";
shapes = (
{
closed = 1;
nodes = (
(-23,-495,l),
(370,-341,o),
(536,-95,o),
(536,296,cs),
(536,1465,l),
(183,1465,l),
(183,227,ls),
(183,-52,o),
(116,-205,o),
(-113,-355,c)
);
}
);
width = 718;
},
{
layerId = "338923BD-A73B-4463-96D5-6CCFD2C76DE7";
shapes = (
{
closed = 1;
nodes = (
(5,-463,l),
(350,-289,o),
(423,-18,o),
(423,256,cs),
(423,1465,l),
(218,1465,l),
(218,231,ls),
(218,-9,o),
(190,-210,o),
(-59,-372,c)
);
}
);
width = 639;
},
{
layerId = "E5A5C170-0FDF-4A9B-BA4A-24DEB95A442A";
shapes = (
{
closed = 1;
nodes = (
(24,-441,l),
(336,-254,o),
(347,33,o),
(347,230,cs),
(347,1465,l),
(241,1465,l),
(241,234,ls),
(241,19,o),
(239,-213,o),
(-23,-383,c)
);
}
);
width = 586;
}
);
unicode = 74;
},
{
glyphname = K;
layers = (
{
anchors = (
{
name = bottom;
position = "{850, 0}";
},
{
name = top;
position = "{863, 1465}";
}
);
layerId = "48D2EA9E-46BD-4B15-B2EA-011CD0F10041";
shapes = (
{
closed = 1;
nodes = (
(1660,0,l),
(967,919,l),
(958,699,l),
(1555,1465,l),
(1064,1465,l),
(605,749,l),
(1098,0,l)
);
},
{
closed = 1;
nodes = (
(636,0,l),
(636,1465,l),
(168,1465,l),
(168,0,l)
);
}
);
width = 1627;
},
{
anchors = (
{
name = bottom;
position = "{836, 0}";
},
{
name = top;
position = "{845, 1465}";
}
);
layerId = "F06CBC40-6010-41C8-A897-7AE20112A561";
shapes = (
{
closed = 1;
nodes = (
(1562,0,l),
(827,883,l),
(818,707,l),
(1459,1465,l),
(1064,1465,l),
(536,751,l),
(1106,0,l)
);
},
{
closed = 1;
nodes = (
(563,0,l),
(563,1465,l),
(192,1465,l),
(192,0,l)
);
}
);
width = 1547;
},
{
anchors = (
{
name = bottom;
position = "{815, 0}";
},
{
name = top;
position = "{819, 1465}";
}
);
layerId = "338923BD-A73B-4463-96D5-6CCFD2C76DE7";
shapes = (
{
closed = 1;
nodes = (
(1414,0,l),
(616,830,l),
(607,720,l),
(1314,1465,l),
(1065,1465,l),
(432,753,l),
(1119,0,l)
);
},
{
closed = 1;
nodes = (
(453,0,l),
(453,1465,l),
(227,1465,l),
(227,0,l)
);
}
);
width = 1427;
},
{
anchors = (
{
name = bottom;
position = "{801, 0}";
},
{
name = top;
position = "{801, 1465}";
}
);
layerId = "E5A5C170-0FDF-4A9B-BA4A-24DEB95A442A";
shapes = (
{
closed = 1;
nodes = (
(1315,0,l),
(476,794,l),
(467,728,l),
(1217,1465,l),
(1066,1465,l),
(363,754,l),
(1127,0,l)
);
},
{
closed = 1;
nodes = (
(380,0,l),
(380,1465,l),
(251,1465,l),
(251,0,l)
);
}
);
width = 1347;
}
);
rightKerningGroup = _K_Left;
unicode = 75;
},
